<?xml version="1.0" encoding="UTF-8"?><svg id="Calque_2" xmlns="http://www.w3.org/2000/svg" xmlns:xlink="http://www.w3.org/1999/xlink" viewBox="0 0 298.64 412.02"><defs><style>.cls-1,.cls-2{fill:none;}.cls-3{font-family:FreightSansProLight-Italic, 'FreightSans Pro';font-size:12.56px;opacity:.5;}.cls-3,.cls-4,.cls-5,.cls-6{fill:#43649d;}.cls-4{font-family:QuincyCF-Text, 'Quincy CF';font-size:23.56px;}.cls-7{clip-path:url(#clippath);}.cls-8{letter-spacing:-.08em;}.cls-9{fill:#39a236;}.cls-10{letter-spacing:-.12em;}.cls-11{letter-spacing:-.03em;}.cls-12{clip-path:url(#clippath-1);}.cls-13{clip-path:url(#clippath-2);}.cls-6{font-family:QuincyCF-Bold, 'Quincy CF';font-size:23.7px;}.cls-2{stroke:#43649d;stroke-miterlimit:10;}.cls-14{letter-spacing:-.01em;}</style><clipPath id="clippath"><rect class="cls-1" x="257.21" y="364.13" width="24.6" height="34.98"/></clipPath><clipPath id="clippath-1"><rect class="cls-1" x="242.83" y="353.88" width="80.86" height="55.69"/></clipPath><clipPath id="clippath-2"><rect class="cls-1" x="242.83" y="353.88" width="80.86" height="55.69"/></clipPath></defs><g id="Calque_1-2"><path class="cls-2" d="M298.14,65.69V404.78c0,3.72-3.06,6.74-6.84,6.74H66.59C30.09,411.52,.5,382.34,.5,346.33V7.24C.5,3.52,3.56,.5,7.34,.5H232.05c10.41,0,20.25,2.37,29.01,6.6,4.36-3.36,10.08-5.07,16.2-4.21,9.72,1.36,17.35,9.41,18.15,19.06,.45,5.46-1.21,10.53-4.27,14.5,4.48,8.79,7,18.73,7,29.25Z"/><text class="cls-4" transform="translate(115.83 327.64)"><tspan x="0" y="0">Fleurs</tspan></text><text class="cls-3" transform="translate(52.32 347.12)"><tspan x="0" y="0" xml:space="preserve">Bleuet Blauer Junge  – Centaurea cyanus </tspan></text><g><path class="cls-5" d="M197.44,63.68H103.66c-.82,0-1.48-.66-1.48-1.48s.66-1.48,1.48-1.48h93.78c.82,0,1.48,.66,1.48,1.48s-.66,1.48-1.48,1.48Z"/><text class="cls-6" transform="translate(90.83 53.37)"><tspan x="0" y="0">SEME</tspan><tspan class="cls-14" x="62.14" y="0">N</tspan><tspan x="78.37" y="0">CES</tspan></text><text class="cls-6" transform="translate(105.22 84.32)"><tspan class="cls-14" x="0" y="0">D</tspan><tspan x="16.14" y="0">E </tspan><tspan class="cls-8" x="34.77" y="0">P</tspan><tspan class="cls-10" x="47.83" y="0">A</tspan><tspan class="cls-11" x="62.16" y="0">Y</tspan><tspan x="77.47" y="0">S</tspan></text></g><g class="cls-7"><g class="cls-12"><g class="cls-13"><path d="M298.59,387.33c-5.66,0-10.42-4.61-10.32-10.54,.1-5.57,4.67-10.24,10.55-10.13,5.57,.1,10.23,4.68,10.11,10.56-.11,5.59-4.68,10.11-10.34,10.1m4.67-8.27c.39-1.49,.46-2.98,.15-4.49-.34-1.66-1.1-3.13-2.16-4.44-.65-.8-1.38-1.53-2.25-2.1-.16-.11-.29-.11-.46,0-1.52,1.07-2.78,2.38-3.68,4.03-.93,1.7-1.26,3.51-.98,5.42,.19,1.33,.66,2.56,1.31,3.73,.15,.27,.3,.53,.45,.79l-.04,.04c-.28-.22-.57-.42-.84-.65-1.56-1.37-2.46-3.11-2.89-5.11-.05-.22-.07-.45-.13-.67-.03-.11-.13-.19-.2-.29-.08,.07-.18,.13-.25,.21-.04,.05-.06,.13-.08,.2-.55,1.66-.65,3.35-.23,5.05,.56,2.24,1.83,3.94,3.95,4.94,1.64,.77,3.38,.94,5.16,.67,2.58-.39,4.39-1.8,5.4-4.2,.64-1.52,.77-3.11,.54-4.74-.23-1.6-.8-3.06-1.72-4.38-.05-.07-.1-.14-.16-.2-.04-.03-.12-.07-.15-.05-.04,.02-.06,.1-.06,.15,0,.08,.03,.15,.05,.23,.06,.37,.13,.74,.18,1.11,.07,.63,.02,1.27-.08,1.89-.15,1-.43,1.95-.85,2.87"/><path class="cls-9" d="M269.36,387.33c-5.66,0-10.42-4.61-10.32-10.54,.1-5.57,4.67-10.24,10.55-10.13,5.57,.1,10.23,4.68,10.11,10.56-.11,5.59-4.68,10.11-10.34,10.1m4.67-8.27c.39-1.49,.46-2.98,.15-4.49-.34-1.66-1.1-3.13-2.16-4.44-.65-.8-1.38-1.53-2.25-2.1-.16-.11-.29-.11-.46,0-1.52,1.07-2.78,2.38-3.68,4.03-.93,1.7-1.26,3.51-.98,5.42,.19,1.33,.66,2.56,1.31,3.73,.15,.27,.3,.53,.45,.79l-.04,.04c-.28-.22-.57-.42-.84-.65-1.56-1.37-2.46-3.11-2.89-5.11-.05-.22-.07-.45-.13-.67-.03-.11-.13-.19-.2-.29-.08,.07-.18,.13-.25,.21-.04,.05-.06,.13-.08,.2-.55,1.66-.65,3.35-.23,5.05,.56,2.24,1.83,3.94,3.95,4.94,1.64,.77,3.38,.94,5.16,.67,2.58-.39,4.39-1.8,5.4-4.2,.64-1.52,.77-3.11,.54-4.74-.23-1.6-.8-3.06-1.72-4.38-.05-.07-.1-.14-.16-.2-.04-.03-.12-.07-.15-.05-.04,.02-.06,.1-.06,.15,0,.08,.03,.15,.05,.23,.06,.37,.13,.74,.18,1.11,.07,.63,.02,1.27-.08,1.89-.15,1-.43,1.95-.85,2.87"/><path class="cls-9" d="M264.8,390.25c.32,0,.61,.03,.88,.08,.26,.05,.49,.14,.68,.26,.19,.12,.34,.28,.44,.49,.1,.2,.16,.45,.16,.75,0,.32-.08,.59-.23,.81-.15,.21-.38,.39-.69,.53,.42,.11,.73,.31,.93,.59,.2,.28,.31,.62,.31,1.02,0,.32-.07,.6-.2,.84-.13,.24-.31,.43-.53,.58-.22,.15-.48,.26-.77,.33-.29,.07-.58,.11-.88,.11h-3.27v-6.39h3.18Zm-.19,2.59c.26,0,.48-.06,.65-.18,.17-.12,.26-.31,.26-.58,0-.15-.03-.27-.08-.37-.06-.1-.13-.17-.23-.22-.09-.05-.2-.09-.33-.11-.12-.02-.25-.03-.38-.03h-1.39v1.49h1.5Zm.09,2.71c.14,0,.28-.01,.42-.04,.13-.03,.25-.07,.35-.13,.1-.06,.18-.15,.24-.25,.06-.11,.09-.24,.09-.41,0-.33-.1-.56-.29-.7-.2-.14-.45-.21-.78-.21h-1.62v1.75h1.59Z"/><rect class="cls-9" x="268.28" y="390.25" width="1.48" height="6.39"/><path class="cls-9" d="M271,392.14c.15-.41,.37-.76,.65-1.07,.28-.3,.63-.54,1.05-.72,.41-.17,.88-.26,1.4-.26s.99,.09,1.4,.26c.41,.17,.76,.41,1.04,.72,.28,.3,.5,.66,.65,1.07,.15,.41,.23,.85,.23,1.33s-.08,.9-.23,1.3c-.15,.4-.37,.75-.65,1.05-.28,.3-.63,.53-1.04,.7-.41,.17-.88,.25-1.4,.25s-.98-.08-1.4-.25c-.41-.17-.76-.4-1.05-.7-.28-.3-.5-.65-.65-1.05-.15-.4-.23-.84-.23-1.3s.08-.92,.23-1.33m1.36,2.11c.07,.25,.17,.48,.32,.68,.14,.2,.33,.37,.57,.49,.23,.12,.52,.18,.85,.18s.62-.06,.85-.18c.23-.12,.42-.28,.57-.49,.14-.2,.25-.43,.32-.68,.07-.25,.1-.51,.1-.78s-.03-.55-.1-.81c-.07-.26-.17-.5-.32-.7-.15-.21-.33-.37-.57-.49-.23-.12-.52-.18-.85-.18s-.62,.06-.85,.18c-.23,.12-.42,.29-.57,.49-.15,.21-.25,.44-.32,.7-.07,.26-.1,.53-.1,.81s.03,.53,.1,.78"/><path d="M294.03,390.25c.32,0,.61,.03,.88,.08,.26,.05,.49,.14,.68,.26,.19,.12,.34,.28,.44,.49,.1,.2,.16,.45,.16,.75,0,.32-.08,.59-.23,.81-.15,.21-.38,.39-.69,.53,.42,.11,.73,.31,.93,.59,.2,.28,.31,.62,.31,1.02,0,.32-.07,.6-.2,.84-.13,.24-.31,.43-.53,.58-.22,.15-.48,.26-.77,.33-.29,.07-.58,.11-.88,.11h-3.27v-6.39h3.18Zm-.19,2.59c.26,0,.48-.06,.65-.18,.17-.12,.26-.31,.26-.58,0-.15-.03-.27-.09-.37-.06-.1-.13-.17-.23-.22-.09-.05-.2-.09-.33-.11-.12-.02-.25-.03-.38-.03h-1.39v1.49h1.5Zm.09,2.71c.14,0,.28-.01,.42-.04,.13-.03,.25-.07,.35-.13,.1-.06,.18-.15,.24-.25,.06-.11,.09-.24,.09-.41,0-.33-.1-.56-.29-.7-.2-.14-.45-.21-.78-.21h-1.62v1.75h1.59Z"/><rect x="297.51" y="390.25" width="1.48" height="6.39"/></g></g></g><g><path class="cls-5" d="M174.34,164.79c-.21,.45-.36,.94-.65,1.33-1.72,2.41-3.45,4.82-5.21,7.2-.97,1.31-1.64,2.75-2.17,4.3,2.68-2.76,4.99-5.81,7.46-8.74-2.65,4.26-5.68,8.23-8.99,12.02,3.84-2.87,7.3-6.16,10.86-9.35-.63,1.04-1.51,1.88-2.35,2.74-.89,.91-1.79,1.82-2.72,2.7-.92,.88-1.87,1.74-2.82,2.59-.94,.84-1.9,1.65-2.77,2.6,1.76-.55,3.14-1.76,4.7-2.78-.94,1.55-3.14,3.13-6.96,4.99l.99,.8-.04,.23-1.76-.29c-.13,.46-.3,.93-.38,1.42-1.96,12.28-6.37,23.74-11.78,34.84-1.97,4.04-4.23,7.93-6.24,11.95-1.83,3.66-3.94,7.15-6.24,10.53-.6,.88-1.33,1.68-2.03,2.49-.17,.19-.45,.29-.89,.24,.19-.31,.35-.65,.58-.93,2.96-3.61,5.29-7.63,7.43-11.76,1.95-3.76,4.05-7.45,5.94-11.24,4.05-8.1,7.61-16.4,9.99-25.15,1.05-3.84,1.77-7.76,2.62-11.65,.07-.34,.06-.7,.09-1.22-1.52-.32-3.03-.51-4.45-.97-1.39-.45-2.69-1.17-4.19-1.85-1.73,3.29-3.4,6.47-5.07,9.64,1.03-3.42,2.71-6.56,4.32-9.82-2.14-1.32-4.65-2.01-6.11-4.24-1.14,.56-1.78,1.43-2.34,2.32-1.01,1.6-1.98,3.22-2.86,4.89-5.04,9.54-9.45,19.36-12.86,29.61-.78,2.32-1.44,4.68-2.14,7.03-.1,.33-.23,.74-.12,1.03,.44,1.23,.96,2.43,1.59,4,2.41-8.83,5.66-16.96,9.49-24.86-.59,1.52-1.18,3.03-1.77,4.55-2.55,6.62-5.03,13.27-6.89,20.13-.31,1.14-.35,2.17,.15,3.25,.42,.92,.69,1.91,1.14,3.18,1.13-2.55,2.14-4.86,3.15-7.16l.24,.07c-.05,.28-.05,.58-.15,.84-.84,2.25-1.74,4.47-2.53,6.74-.23,.64-.32,1.4-.23,2.08,.33,2.48,.73,4.95,1.16,7.42,.16,.93,.49,1.82,.77,2.83-.83-.15-.97-.73-1.17-1.3-.89-2.5-2.12-4.87-3.69-6.97-1.83-2.43-2.43-4.99-1.96-7.91,.22-1.36,.43-2.72,.56-4.09,.05-.53,.02-1.16-.23-1.6-.5-.89-.42-1.71-.16-2.64,2.02-7.3,4.65-14.38,7.82-21.25,2.76-5.98,5.68-11.88,8.6-17.79,.74-1.5,1.73-2.88,2.73-4.53l-1.57-1.1,.24-.33,1.6,.65c-.48-1.71-.91-3.25-1.34-4.78l.26-.1,.79,1.46c.16-3.87,.45-7.68,1.45-11.42l-.55,7.7,.17,.02,1.03-5.81,.21,.03c-.14,1.62-.28,3.23-.43,4.85l.22,.04,1.83-8.68,.23,.05-1.62,10.53,.36,.08c.21-.76,.41-1.52,.62-2.28,.53-1.91,.94-3.84,1.89-5.63,.49-.93,.64-2.04,.95-3.06,.51-1.71,1.03-3.42,1.69-5.09-1.37,6.05-2.74,12.1-4.11,18.15,.75-.65,2.08-4.04,2.36-5.6,.36-2.06,.66-4.12,1.21-6.16l-.25,2.29,.3,.1c1.02-2.31,1.6-4.79,2.81-7.04-1,3.33-2,6.66-3,9.99,1.74-3.62,2.84-7.51,4.91-10.98-1.73,5.58-4.32,10.87-5.32,16.7,.69-.87,1.26-1.78,1.65-2.83,1.37-3.68,2.78-7.35,4.19-11.02,.18-.47,.43-.91,.86-1.29l-2.78,7.4,.35,.17c.71-1.41,1.42-2.81,2.11-4.22,.7-1.42,1.37-2.85,2.05-4.29,.7-1.47,1.39-2.95,2.3-4.33-.55,1.34-1.13,2.67-1.63,4.03-1.77,4.78-3.52,9.57-5.25,14.37-.22,.61-.35,1.26-.52,1.88l.29,.13c.23-.45,.49-.9,.69-1.36,1.65-3.79,3.28-7.59,4.92-11.38,.28-.66,.55-1.32,.89-1.95,.11-.21,.4-.33,.74-.4-1.33,4.11-3.61,7.82-4.4,12.12,1.81-3.87,3.63-7.75,5.44-11.62l.32,.13c-2.63,6.8-5.34,13.57-7.87,20.73,1.17-.57,1.6-1.31,1.93-2.11,1.28-3.12,2.56-6.23,3.81-9.36,1.37-3.41,2.71-6.84,4.06-10.25,.09-.23,.21-.44,.41-.62-.72,3.24-1.94,6.3-3.14,9.38-1.19,3.06-2.38,6.12-3.45,9.23,1.16-.78,1.9-1.8,2.42-3.07,1.7-4.21,3.47-8.4,5.23-12.59,.2-.47,.44-.91,.89-1.29-.67,2.01-1.35,4.01-2.02,6.02l.22,.1c.3-.64,.6-1.27,.9-1.91,.19-.4,.28-.91,.9-.85h-.02l-2.7,6.35,.29,.16c.98-.77,1.57-1.85,2.24-2.87,.52-.8,1.15-1.51,1.65-2.32,.4-.64,.64-1.37,1-2.04,.23-.42,.53-.81,.8-1.21l-.02-.03c-.11,1.02-.47,1.93-.88,2.87-1.14,2.63-2.11,5.34-3.15,8.01l.32,.19c.76-.86,1.52-1.72,2.29-2.57,.84-.94,1.7-1.86,2.55-2.79l-.03-.03c-.24,.43-.43,.9-.73,1.28-1.53,1.91-3.09,3.8-4.65,5.69-.52,.63-1.05,1.23-.97,2.38,3.31-3.3,5.77-7.06,8.99-10.22-.14,.26-.25,.54-.43,.77-.98,1.3-2,2.58-2.96,3.9-.4,.55-.71,1.16-1.07,1.74l.31,.21c.45-.58,.89-1.17,1.35-1.74,.98-1.22,1.97-2.43,2.95-3.65l-.03-.03Zm-45.05,75.36c-.4-4.98-1.48-9.44-3.58-13.67-.29,1.33-.5,2.66-.62,3.99-.17,2,.27,3.83,1.5,5.48,.79,1.06,1.4,2.25,2.1,3.37,.12,.2,.28,.38,.61,.83Zm34.51-67.24c1.81-2.35,2.64-5.14,3.65-7.86-1.56,2.46-2.72,5.11-3.65,7.86Zm-4.5,2.53c-1.34,.86-2.23,1.99-2.35,3.81,1.59-.95,1.93-2.41,2.35-3.81Zm3.71-2.91l1.7-3.48c-1.29,.82-1.67,2.07-1.7,3.48Zm-11.74,4.06c1.14-.28,1.21-.48,1.32-3.08-.41,.94-.81,1.89-1.32,3.08Zm12.01-1.66c-1.14,.81-1.25,.99-1.6,2.66,1.06-.67,1.32-1.66,1.6-2.66Zm5.08-3.28l-.31-.18-1.63,2.72c1.17-.65,1.24-.75,1.94-2.54Zm-13.55,1.98l-.37-.19-1.39,3.25,.42,.17,1.33-3.23Zm4.85,4.71c-.85,.42-1.01,1.14-1.1,2.11,1.02-.52,.99-1.36,1.1-2.11Zm.31-2.02c.98-.8,1.24-1.49,1.25-2.69l-1.25,2.69Zm3.8,1.64l1.36-2.36c-1.21,.72-1.22,.74-1.36,2.36Zm-2.54,1.82c-1.38,.8-1.42,.89-1.01,2.01l1.01-2.01Zm-8.67-9.11l.32,.2,.83-1.95-.28-.12-.86,1.87Zm-5.21,7.41l-.03,.25,.82,.27,.15-.82-.94,.3Zm1.88-3.62l-.29-.18-.48,1.12,.22,.11,.55-1.04Zm14.83,4.62l.15,.12,.55-.75-.17-.13-.53,.76Zm-7.68,2.18l-.2-.16-.44,.7,.16,.11,.48-.66Z"/><path class="cls-5" d="M266.5,208.7l-2.44,.14c-.11-.65-.54-.48-.93-.35-2.47,.8-4.97,1.54-7.41,2.42-7.44,2.68-14.14,6.58-19.79,12.19-.05,.05-.18,.03-.32,.04-.03-.13-.13-.29-.09-.39,.48-1.24,.87-2.52,1.5-3.68,1.16-2.14,1.94-4.41,2.28-6.79,.68-4.75,1.39-9.5,1.76-14.28,.19-2.4-.11-4.9-.56-7.29-.88-4.65-2.98-8.8-5.98-12.44-2.6-3.15-5.24-6.29-8.1-9.18-5.46-5.52-11.1-10.85-16.66-16.27-3-2.92-6.04-5.82-7.86-9.7-.05-.1-.32-.09-.49-.14,.63-1.26,.6-1.46-.38-2.15q-.11,.69,.26,1.47c-.41-.35-.82-.7-1.23-1.05-.42-.35-.86-.69-1.55-1.23,.6,1.81,1.41,2.55,2.89,2.91-.25,.04-.37,.69-.76,.17-.72-.38-1.43-.76-2.21-1.17,.39,1.34,.8,1.54,2.21,1.15,.09,.26,.11,.58,.28,.78,2.6,3.13,5.04,6.41,8.21,9.02,.23,.19,.48,.4,.64,.65,.06,.09-.13,.33-.2,.5l.06,.05-1.6-.66,.06,.04c-.42-.26-.84-.51-1.25-.77-.41-.26-.81-.53-1.22-.8l-.03,.03,2.18,.62c-.23-.32-.33-.48-.45-.62-2.06-2.33-4.13-4.65-6.18-7-.44-.51-.88-.91-1.57-1.13-1.3-.43-2.61-.94-3.11-2.45-.11-.33-.38-.61-.51-.81-1.61,.79-.77,2.24-1.46,3.55-.84-1.97-1.19-3.71-1.19-5.92-.65,.94-1.02,1.7-1.58,2.26-.64,.64-1.43,1.14-2.21,1.62-.7,.43-1.23,1.18-2.48,1.34l2.9-2.75c-1.81,.18-3.03,1.32-4.81,1.29l1-1.6-2.45,.14c.66-.76,1.27-1.01,1.97-1.1,.14,.15,.29,.44,.42,.43,.54-.03,1.07-.15,1.9-.29l-1.56,1.48,.13,.19,3.95-1.38,.13,.98c1.3-.99,1.82-2.33,2.25-3.62l-2.93-.69-3.73,2.02c.12,.42,.11,.87-.61,.92l-1.94-1.76c2.55,.56,4.42-.23,6.12-2.04-.73-.22-1.21,.14-1.72,.2-1.01,.11-2.08,.63-2.92-.45-.1-.13-.37-.14-.57-.19-.68-.17-1.57,0-1.6-1.13,0-.14-.41-.26-.61-.42-.31-.24-.6-.49-.96-.8,.26-.14,.39-.22,.52-.27,.13-.06,.27-.1,.49-.18l-1.16-1.74,5.21,1.39-4.14-2.79,1.09-.45-.43-1.26,1.09-.24c-.44-.86-.86-1.65-1.35-2.61,1.19-.12,1.72,.77,2.6,1l.34-1.02c.41,.23,.74,.44,1.08,.61,.22,.11,.55,.31,.68,.22,1.17-.74,1.72,.24,2.28,.87,.93,1.05,1.73,2.22,2.81,3.27-.19-.91-.38-1.81-.61-2.91,1.02,.65,1.09-1.42,2.23-.56,.49-.81,.98-1.62,1.5-2.49,1.03,.65,.59,1.53,.65,2.42l1.58-.58c.41,1.29-.74,1.99-.93,2.99-.2,1.03-.54,2.03-.87,3.23,2.24-.87,2.19-2.84,2.74-4.64l.85,.76,.92-.65,.23,1.36,1.26-.58,.34,.95,2.75-.7c-.62,1.15-1.44,1.5-2.1,2.02-.52,.41-1.14,.75-1.51,1.26-.81,1.11-1.84,1.89-3.33,2.46,.81,.28,1.45,.47,2.06,.71,.58,.23,1.15,.51,1.91,.85-.82,.66-1.75,.62-2.13,1.44-.07,.15-.85-.01-1.3-.07-.43-.06-.84-.14-.91,.25,.89,.38,1.74,.75,2.59,1.12,.57,.25,.9,.66,.86,1.31,0,.1-.04,.24,.02,.3,1.25,1.47,1.09,3.58,2.31,5.07,1.16,1.42,2.15,3,3.42,4.31,3.17,3.26,6.45,6.41,9.7,9.58,3.22,3.14,6.5,6.21,9.68,9.39,1.98,1.99,3.82,4.12,5.72,6.19,.2,.22,.41,.44,.81,.87,0-.49,.03-.75,0-1-.23-1.64-.13-3.27,.31-4.86,.98-3.5,1.01-7.06,.68-10.64-.11-1.27-.24-2.53-.15-3.84,.24,1.54,.51,3.07,.72,4.62,.42,3.17,.28,6.31-.52,9.42-.3,1.17-.68,2.36-.26,3.63,.32-1.68,.63-3.36,.99-5.03,.08-.36,.31-.69,.47-1.03h0c-.23,1.63-.47,3.27-.7,4.91,1.66-2.85,2.84-5.84,3.33-9.29-.31,.14-.48,.18-.6,.28-.14,.12-.25,.28-.55,.64-.16-.73-.26-1.25-.4-1.76-.5-1.87-.97-3.75-1.56-5.59-.23-.71-.76-1.31-1.11-1.99-.25-.48-.42-1-.5-1.55,2.52,2.61,3.1,6.04,3.91,9.4l1.43-.3c-.05,.67-.05,1.2-.13,1.73-.43,2.75-1.45,5.31-2.62,7.81-.79,1.69-1.27,3.41-1.07,5.33,.1,.91,.35,1.64,.89,2.35,2.81,3.66,4.83,7.72,5.66,12.25,.43,2.34,.73,4.78,.54,7.13-.4,4.93-1.11,9.83-1.82,14.73-.34,2.32-1.07,4.57-2.27,6.63-.3,.52-.53,1.08-.89,1.83,.36-.1,.49-.1,.57-.16,7.05-6.2,15.34-9.99,24.25-12.59,.64-.19,1.26-.43,1.9-.57,.64-.14,1.14-.39,1.41-1.03,.09-.22,.3-.5,.5-.55,.98-.25,1.38-1.12,1.99-1.76-.21,.75-.43,1.49-.68,2.36,.75,0,1.29,0,1.83,0-.31,.44-.62,.89-.93,1.33,1.19,.7,2.24,.82,2.42,.25l-.84-.73,.76-.29v-.25l-1.44-.27,1.03-1.08h-1.61l.42-1.68-.68,.3c.21-.19,.46-.58,.61-.55,1.67,.38,2.8-.41,3.77-1.62,.15-.18,.43-.25,.65-.37l-1.73,2.24c.33,.7,.88,.77,1.53,.58l-1.55,.94,1.09,.37,.15,2.88c-1.57,.15-3.04,.34-4.52,.41-.38,.02-.77-.34-1.15-.52,.28,.06,.57,.12,.85,.18l.03-.37c-.51-.03-1.02-.05-1.52-.08,.5-.29,.99-.58,1.49-.86l-.14-.32c-.6,.19-1.19,.39-2.1,.68l.79,.48,.61,.31Zm-82.66-83.12l1.15,2.33-1.04,.23v1.51c1.96,2.2,4.8,1.66,7.15,2.68,.11-1.2-.99-1.25-1.58-1.93,1.04-.35,1.41,.39,1.8,.84,.43,.5,.67,1.15,1.1,1.94-.07-2.46-2.05-5.89-3.8-7.16l-2.28-.14-.19,.75-2.31-1.05Zm10.32,7.03c.24-.54,.83-.94,.37-1.56-.31-.42-.61-.85-1-1.39,1.2-.24,.96,1.18,1.75,1.2,.73-.74,1.42-2.41,1.82-4.42l-1.38,.71v-2.24c-.47,.41-.65,.88-.92,1.29-.18,.27-.45,.54-.74,.66-.91,.36-1.36,.97-1.15,1.82,.22,.89,.51,1.76,.75,2.64,.22,.8,.3,1.57-.73,2.07,.69,.26,1.28,.55,2.15,.38l-.91-1.15Zm-.15,8.28l.49,.04c.13-.67,.43-1.36,.36-2.01-.11-.95,.54-1.65,1.04-1.79,1.1-.3,2.15-1.28,3.44-.58,.09,.05,.26-.06,.39-.09l-.19-1.09c.33,.07,.52,.12,.72,.15,.13,.02,.27-.01,.4-.02-1.37-.62-2.67-1.44-4.22-.81-.54,.22-1.08,.34-1.52-.23-.03-.04-.26,.06-.42,.11l.42,.82-.83,.17c-.08,.94-.2,1.8-.21,2.66-.01,.89,.08,1.78,.13,2.67Zm9.19-11.62l-2.32,.91v-.79l-.98,.09,.14-.96h-.74c-.66,1.08-1.05,2.23-1.84,2.9-.89,.75-1.15,1.61-1.48,2.56,.76-.21,1.4-.44,2.05-.56,1-.19,1.78-.71,2.48-1.41,.84-.86,1.69-1.72,2.69-2.74Zm-14.28,3.53l-6.3-1.16,.9,1.14-.48,.56c1.16,.89,2.29,1.52,3.73,1.83,1.09,.23,1.78,.03,2.56-.36,.06-.83-1.09-1.24-.41-2.02Zm2.32,.47c0,1.26,1.09,1.43,1.94,1.92l-2.5,.87c.61,.52,1.23,.67,1.79,.39,.46-.23,.85-.68,1.13-1.13,.1-.17-.14-.71-.38-.88-.57-.43-1.23-.74-1.98-1.18Zm8.99,7.31c.65-.69,.78-1.27,.35-1.64-.36-.31-.75-.28-1.02,.14-.56,.86,.19,1.11,.67,1.5Zm68.24,64.8l1.61-.33c-.6-.36-1.3-1.09-1.61,.33Zm-71.17-64.46l-.26,.24,.52,1.02,.72-.87-.99-.39Zm-1.6-9.08q-.6,.82,0,1.4v-1.4Zm70.56,74.31c-.71,.26-1.15,.53-1.05,1.5,.5-.52,1.36-.39,1.05-1.5Zm3.44,.1q.8,.74,1.53,0h-1.53Zm-71.28-66.86c-1.04-.12-1.09,.24-.76,1.05l.76-1.05Zm-.91-1.23q.45,.64,1.51,.67l-1.51-.67Z"/><path class="cls-5" d="M35.71,205.9c.67,1.13,1.75,1.55,2.96,1.89,5.27,1.49,10.39,3.36,15.21,5.98,3.33,1.81,6.45,3.93,9.34,6.38,.26,.22,.54,.42,1.11,.87-.27-.7-.36-1.08-.56-1.41-1.84-3.1-2.63-6.52-3.08-10.03-.5-3.9-.88-7.81-1.38-11.71-.32-2.48,.1-4.91,.53-7.29,.79-4.37,2.59-8.41,5.38-11.89,1.43-1.78,1.41-3.63,1.04-5.6-.17-.94-.61-1.83-1-2.72-1.13-2.58-2.19-5.17-2.57-7.99-.05-.39-.05-.78-.09-1.31l1.46,.18c.75-3.34,1.39-6.71,3.8-9.34-.09,.81-.25,1.53-.85,2.22-.57,.66-.89,1.61-1.14,2.48-.48,1.67-.83,3.37-1.23,5.05-.07,.28-.14,.57-.24,1l-1.15-.99c.37,3.72,1.77,6.75,3.37,9.74l-.88-5.71,.27-.05,1.34,6.83,.35-.06c-.18-1.11-.28-2.25-.57-3.34-1.22-4.66-.93-9.29,.19-13.91-.12,1.91-.35,3.82-.34,5.73,0,2.08,.17,4.17,.38,6.24,.13,1.26,.59,2.49,.72,3.75,.13,1.24,.03,2.51,.03,3.93,.39-.39,.72-.68,1-1.01,3.65-4.28,7.7-8.17,11.8-12.02,3.83-3.61,7.49-7.39,11.25-11.06,1.76-1.71,3.51-3.42,4.83-5.51,.77-1.21,1.56-2.39,1.76-3.86,.06-.42,.37-.82,.59-1.21,.1-.17,.35-.3,.36-.46,.17-2.18,1.81-2.38,3.45-2.6,.03,0,.05-.06,.08-.1-.19-.68-.69-.45-1.12-.37-.7,.12-1.36,.39-1.74-.62-.11-.3-.85-.37-1.48-.61,1.14-1.06,2.52-1.12,3.8-1.7-1.42-.63-2.52-1.53-3.41-2.73-.38-.51-1.05-.79-1.57-1.2-.57-.45-1.11-.93-1.67-1.4l.2-.37,2.48,.69,.06-.99,1.48,.55,.08-1.32,1.11,.59,.61-.9c.77,1.79,.6,3.85,2.78,4.76-.3-2.18-1.13-4.03-2.12-6.22l1.94,.55,.25-2.3c1.27,.45,1.26,1.61,1.8,2.22,.45,.1,.86,.13,1.21,.29,.34,.16,.62,.44,1.13,.82l-.57,2.51,.19,.14c.34-.41,.68-.81,1.01-1.22,.63-.8,1.21-1.64,1.89-2.4,.33-.36,1.03-.9,1.22-.78,1.05,.62,1.69-.28,2.55-.6l.35,1.05,2.44-1.33c0,1.25-.8,1.88-1.09,2.84l.95,.34-.33,1.19,.84,.36c-.79,1.12-2.12,1.55-2.98,2.67l4.18-1.18-.99,1.71,.93,.51c-.38,.31-.69,.58-1.01,.84-.29,.24-.81,.26-.7,.86,.02,.12-.2,.37-.35,.41-1.83,.5-3.58,1.7-5.59,.62-.15-.08-.36-.04-.61-.06,1.24,1.86,2.9,2.48,5.91,2.41l-1.85,1.22,1.72,1.03-.06,.29-2.15-.11,1.04,1.65c-1.81-.06-3.05-1.12-4.9-1.36l2.78,2.63c-1.11,.04-1.6-.76-2.27-1.15-.74-.44-1.51-.89-2.12-1.49-.6-.59-1-1.38-1.6-2.23-.31,1.9-.4,3.71-1.31,5.52-.8-1.01,.18-2.57-1.32-3.17-.17,.14-.52,.27-.6,.5-.54,1.62-1.95,2.1-3.32,2.67-.45,.19-.91,.46-1.23,.82-2.22,2.46-4.4,4.96-6.59,7.44-.05,.06-.05,.17-.14,.5,.85-.42,1.57-.74,2.26-1.11,.41-.22,.72-.47,1.21-.03,.2,.18,.75,.02,1.14-.04,1.07-.15,2.15-.33,3.38-.52-.2,.31-.23,.44-.3,.47-2.24,.69-4.48,1.37-6.72,2.04-.09,.03-.2-.02-.3-.04l.02,.03,3.02-1.42c-1.86-.03-3.4,.8-4.91,1.73l.07-.05h-1.21c.47-.45,.77-.71,1.05-1,1.75-1.84,3.52-3.68,5.25-5.54,1.18-1.26,2.31-2.56,3.47-3.84,1.59-.28,1.72-.39,1.63-1.61l-1.59,1.66-.99-.46c1.58-.64,2.2-1.27,2.56-2.68-1.28,.46-1.86,1.55-2.56,2.5l.33-1.91-.39-.12c-.17,.32-.5,.65-.48,.97,.07,1.55-.83,2.69-1.57,3.89-1.38,2.24-3.22,4.07-5.1,5.89-4.03,3.91-7.95,7.94-12.04,11.78-4.7,4.41-9.17,9.02-13.27,13.99-3.3,4-5.79,8.43-6.79,13.55-.46,2.39-.84,4.82-.56,7.29,.45,3.9,.86,7.81,1.36,11.71,.44,3.46,1.26,6.81,3.01,9.89,.59,1.03,.88,2.23,1.3,3.35-.44,.03-.66-.07-.81-.22-3.42-3.43-7.37-6.13-11.62-8.41-4.56-2.45-9.38-4.24-14.36-5.64l-1.74-.27c-.72,.07-1.44,.14-2.15,.2,0,0-.03-.25-.05-.39l-.04,.04,.83-.14-.5-.82-.02,.03h.83l-.31-1.21Zm75.78-71.7v-1.09l-.85,1.04h.9c.46,.95,1.38,1,2.21,.93,.78-.06,1.54-.38,2.31-.61,.22-.07,.44-.19,.63-.32,.44-.31,.87-.64,1.29-.97,.07-.06,.11-.15,.18-.25l-.6-.38,.74-1.2-6.13,1.14c.63,.88-.32,1.17-.67,1.7Zm-2.79-1.05c.41-1.2,.82-2.42,2.02-3.1,.17-.1,.45,.01,.95,.04-.76,.68-1.81,.76-1.69,1.84,1.09-.24,2.1-.52,3.13-.66,1.57-.21,2.92-.85,4.04-1.89l-.09-1.51-.97-.31,1.12-2.28-2.23,1.07-.28-.85c-.53,.12-1.13,.44-1.36,.27-.79-.58-1.09,.07-1.5,.44-1.71,1.57-2.4,3.73-3.26,5.79-.13,.32,.07,.78,.12,1.17l-1.51-.67c.1-.57,.17-1.16,.31-1.73,.2-.84,.47-1.66,.66-2.5,.13-.58-.39-1.69-.86-1.66-.88,.05-.97-.56-1.24-1.08-.17-.33-.38-.63-.73-1.19v2.53c-.33-.16-.55-.26-.76-.36-.19-.09-.38-.19-.58-.28l-.26,.22c1.3,1.14,.58,3.18,2.1,4.24q1.1-1.3,1.67-1.06c-.76,.8-1.78,1.56-.59,2.68l-1,1.35,2.78-.47Zm-.53,3.7c.45,1.34,.94,2.7,2.27,3.63l.15-.97c1.35,.47,2.6,.91,3.85,1.35l.26-.38-1.42-.88,.18-.25,1.68,.13-.4-1.34-3.62-1.94-2.96,.66Zm-1.25-1.63l-.8-.1,.37-.87c-.66-.37-.82,.62-1.55,.24-1.3-.68-2.66-.26-3.99,.38,.22,.15,.4,.29,.59,.42l-.22,.95c.27,0,.43,.04,.57,0,1.56-.48,2.76,.26,3.87,1.19,.22,.19,.43,.58,.4,.86-.11,.95,.15,1.77,.69,2.61,.71-1.91,.23-3.77,.07-5.68Zm-6.82-5.37l-2.16-.81c.98,1.01,1.89,1.95,2.81,2.87,.67,.66,1.45,1.09,2.4,1.24,.6,.09,1.18,.31,1.93,.52-.43-.68-.13-1.58-1-2.08-1.1-.62-1.59-1.68-1.91-2.84-.05-.19-.16-.36-.26-.59l-.79,.13-.1,.88-.81-.08-.13,.75Zm7.84,5.05c1.53-.56,2-1.07,1.62-1.86-.41,.3-.8,.66-1.25,.9-1.08,.57-1.17,1.07-.28,1.9,.63,.59,1.28,.55,2.21-.13l-2.3-.81Zm-7.13,5.38c.99-.85,1.12-1.14,.62-1.55-.2-.17-.67-.22-.89-.1-.5,.28-.39,.88,.27,1.65Zm3.14,.53l-.27-.2-.91,.49,.84,.78,.34-1.07Zm-1.73-2.31l.13,.28,1.38-.6-.16-.36-1.35,.68Zm3.17-5.33c.82-.79,.54-1.23,0-1.99v1.99Zm-1.89,7.03q-.03-1.07-.75-.97l.75,.97Z"/><path class="cls-5" d="M37.12,208.19l1.74,.27c.37,.24,.71,.54,1.11,.7,1.89,.76,3.8,1.48,5.71,2.2,7.81,2.97,14.59,7.47,20.31,13.59,2.26,2.43,4.56,4.82,6.93,7.15,1.9,1.87,3.74,3.79,5.92,5.38,6.49,4.76,13.52,8.57,20.86,11.82,8.32,3.68,17.02,6.3,25.72,8.87,1.34,.4,2.72,.7,4.07,1.04-.27-.33-.59-.48-.93-.58-2.58-.81-5.14-1.67-7.74-2.4-2.58-.72-5.05-1.75-7.61-2.54-3.46-1.06-6.87-2.28-10.28-3.47-.55-.19-1.04-.57-1.56-.86,2.77,.88,5.53,1.77,8.3,2.64,.96,.3,1.92,.57,3.13,.93-1.61-3.62-3.2-6.9-5.75-9.62-.77-.82-1.54-1.64-2.27-2.5-.42-.49-.89-.94-.68-1.74,.07-.26-.34-.66-.56-.97-.8-1.18-1.67-2.31-2.37-3.54-.24-.41-.1-1.05-.11-1.59,0-.4,.04-.8,.07-1.2,.11-1.32,.2-2.64,.35-3.96,.04-.32,.25-.62,.64-.92,.08,.36,.2,.71,.24,1.07,.09,.91,.13,1.83,.22,2.75,.03,.29,.08,.74,.26,.82,.96,.46,1.05,1.45,1.48,2.23,.4,.71,.73,1.47,1.21,2.12,.3,.41,.84,.65,1.3,.99-.48,.72-.69,.82-1.14,.17-.78-1.13-1.45-2.33-2.1-3.54-.28-.52-.31-1.12-1.08-1.32-.3-.08-.47-.71-.69-1.06-.1,.67-.24,1.38-.31,2.11-.03,.34-.01,.73,.14,1.02,.45,.85,.96,1.68,1.47,2.49,.65,1.04,1.88,1.74,1.75,3.22-.02,.22,.34,.49,.54,.71,.75,.84,1.53,1.65,2.26,2.5,1.57,1.82,3.03,3.72,3.97,5.97,.12,.28,.29,.54,.45,.8,.05,.08,.16,.11,.48,.32l-1.01-3.44,.26-.08c.52,1.41,1.03,2.83,1.55,4.24,.2-2.3-.51-4.39-1.51-6.36-.98-1.93-2.15-3.77-3.16-5.7,1.7,1.82,3.05,3.87,4.04,6.16,.82,1.89,1.37,3.85,1.47,5.91,.08,1.73,.89,2.79,2.61,3.32,4.78,1.47,9.54,3.01,14.28,4.58,2.58,.85,5.02,2.01,7.28,3.53,1.84,1.24,3.46,2.7,4.76,4.5,.89,1.23,1.51,2.57,1.54,4.1,.04,1.99,.11,3.99-.12,5.96-.11,.93-.74,1.89-1.35,2.66-.66,.83-1.68,.86-2.68,.54-1.87-.6-3.4-1.71-4.44-3.35-1.33-2.11-2.26-4.42-3.1-6.76l.3-.15c.57,1.15,1.1,2.32,1.72,3.44,.61,1.11,1.16,2.31,2,3.23,.8,.87,1.9,1.53,2.97,2.08,.91,.48,1.39,.19,1.81-.75,.78-1.73,.88-3.55,.58-5.4-.1-.6-.25-1.2-.34-1.81-.49-3.35-2.59-5.35-5.59-6.5-2.69-1.04-5.53-1.39-8.39-1.64-.59-.05-1.19-.08-1.77-.33h3.33c-3.19-.29-6.38-.43-9.64,.2-.06,.34-.12,.67-.19,1.01-.15,.8-.57,1.26-1.44,1.31-.37,.02-.79,.18-1.08,.41-.73,.57-1.37,.59-1.92-.15q-1.99,.95-2.47-.24c-.26,.06-.54,.14-.82,.18-1.24,.19-1.46-.09-1.14-1.44-.74-.2-1.48-.41-2.23-.61l-.03-.39,2.47-1.27c-.24-.57-.11-1.05,.7-1.15,1.08-.13,2.13-.14,3.18-.76,.93-.55,2.11-.1,3.02,.55,.75,.53,1.44,1.14,2.3,1.82,4.7-.84,9.51-.35,14.39,.29-.54-.28-1.05-.63-1.62-.82-2.27-.77-4.54-1.54-6.84-2.22-6.27-1.83-12.53-3.68-18.67-5.92-8.43-3.08-16.4-7.07-24.08-11.66-1.79-1.07-3.49-2.32-5.16-3.58-.76-.57-1.49-.81-2.41-.67-1.62,.24-3.23,.54-4.86,.65-2.29,.15-4.59,.14-6.88,.19-.82,.02-1.63,.01-2.45,.04-.7,.02-1.39,.19-1.88-.63-.16-.26-.83-.27-1.27-.3-3.19-.18-6.32,.12-9.38,1.11-.29,.09-.59,.18-.88,.25-.08,.02-.19-.04-.37-.09,0-.75,.62-.95,1.11-1.2,1.88-.96,3.88-1.57,5.97-1.86,1.51-.21,3.04-.28,4.59-.42l.2-.85c5.12,1.67,10.4,1.81,15.85,1.77-.32-.34-.57-.62-.84-.89-3.51-3.57-7.02-7.14-10.53-10.7-4.09-4.14-8.62-7.69-13.96-10.08-3.95-1.78-7.97-3.41-11.96-5.13-.47-.2-.88-.54-1.32-.81Zm75.95,54.67v-1.21c-1.11,.04-2.14,.24-3.15,.94,1.28,.37,1.95,.41,3.19,.23-.68,.35-1.34,.72-1.76,1.82l3.16-1.1-.51,1.5c.54-.26,.85-.44,1.17-.57,.36-.15,.73-.25,1.09-.38l.35,.88c.7-.64,1.38-1.05,1.79-1.98-1.92,.4-3.63,.33-5.32-.13Zm24.4,.3c-1.41-.22-2.69-.42-3.98-.62,1.38,.64,2.81,1.02,4.16,1.58,2.04,.86,3.71,2.28,4.45,4.38,.87,2.45,1.31,5.02,.97,7.66-.2,1.55-.9,2.73-2.36,3.47,1.57,.31,2.29-.02,2.83-1.33,.21-.51,.39-1.07,.42-1.62,.08-1.83,.12-3.66,.1-5.49-.02-1.47-.61-2.77-1.46-3.95-1.37-1.88-3.08-3.39-5.04-4.61-.21-.13-.47-.19-.91-.36l.82,.89Zm-86.45-26.03c1.21-.17,2.41-.48,3.62-.48,2.23-.02,4.57-.76,6.6,.83,.07,.05,.2,.03,.3,.03,2.96-.03,5.92-.05,8.88-.12,.52-.01,1.04-.22,1.57-.33-2.18-.23-4.38,.06-6.49-.72l.72-.23c-1.79-.48-3.53-.96-5.34-1.44l-.23,.98c-3.34-.26-6.6,.08-9.63,1.5Zm61.36,23.4l-.1,.43c.61,.22,1.23,.65,1.84,.63,1.47-.05,2.94-.31,4.48-.5-.94-.9-1.92-1.57-3.32-1.21l.18,.79c-1.1-.05-2.09-.09-3.08-.14Zm6.62,1.64c-1.88-.67-3.72-.5-4.68,.33,1.52,.43,2.98,.3,4.68-.33Zm-45.8-25.69v-.16h-5.41v.16h5.41Z"/><path class="cls-5" d="M239.98,234.87c.37-.14,.74-.27,1.19-.44l.27,.82c6.69,.4,10.54,1.51,11.74,3.58-.58-.13-1-.19-1.4-.32-3.06-.97-6.19-1.27-9.38-1.1-.6,.03-1.21,0-1.6,.66-.11,.19-.53,.3-.8,.29-3.52-.08-7.04-.14-10.55-.31-1.37-.06-2.73-.36-4.09-.57-1.06-.17-1.94,.07-2.82,.76-4.04,3.16-8.46,5.7-13.06,7.95-3.71,1.81-7.39,3.72-11.22,5.25-4.83,1.93-9.76,3.61-14.7,5.23-4.07,1.33-8.23,2.38-12.33,3.62-1.69,.51-3.38,1.1-5.19,2.22,1.96-.24,3.57-.44,5.18-.63,2.75-.33,5.5-.42,8.24,.04,.91,.15,1.63,.03,2.32-.7,.55-.58,1.27-1.07,2.01-1.36,.68-.26,1.66-.5,2.2-.2,1.08,.61,2.2,.63,3.33,.8,.74,.11,.73,.17,.67,1.16,.8,.4,1.6,.79,2.49,1.24-.63,.98-1.61,.58-2.26,.96,.24,1.62,.08,1.73-2.02,1.34-.43,1.18-.49,1.18-2.4,.2-.66,.77-1.4,.74-2.14,0-.11-.11-.26-.26-.37-.25-1.67,.15-2.08-.93-2.17-2.32-3.27-.7-6.53-.51-9.78-.26h3.28v.15c-2.02,.27-4.06,.47-6.07,.82-1.35,.24-2.71,.57-3.98,1.06-2.99,1.17-5.02,3.19-5.55,6.53-.31,1.93-.59,3.83-.25,5.77,.32,1.79,1.5,2.46,3.22,1.76,1.09-.44,1.86-1.25,2.4-2.27,.67-1.26,1.29-2.55,1.96-3.81,.62-1.17,1.23-2.35,1.92-3.48,.27-.44,.73-.77,1.1-1.15l.29,.18c-.16,.38-.27,.79-.48,1.15-1.71,2.96-3.38,5.94-5.17,8.85-.63,1.02-1.46,1.98-2.38,2.76-1.54,1.31-3.26,.98-4.23-.8-.47-.87-.81-1.9-.91-2.88-.17-1.82-.18-3.67-.14-5.5,.04-1.67,.66-3.18,1.67-4.53,1.74-2.34,3.97-4.09,6.5-5.5,3.1-1.73,6.45-2.81,9.81-3.86,3.31-1.03,6.6-2.16,9.93-3.13,1.81-.53,2.57-1.7,2.67-3.45,.25-4.31,2.18-7.91,4.75-11.24,.08-.1,.22-.16,.44-.19-2.06,3.54-4.42,6.96-4.33,11.34l1.36-3.71,.27,.09c-.31,1.05-.62,2.09-.93,3.14l.21,.1c.2-.3,.45-.59,.59-.91,1.25-2.97,3.28-5.39,5.41-7.75,.71-.79,1.72-1.39,1.62-2.74-.03-.39,.53-.84,.84-1.24,.47-.61,.99-1.17,1.42-1.8,.89-1.31,1.45-2.69,.65-4.21-1.36,.42-1.64,1.67-2.18,2.77-.44,.91-1.05,1.75-1.67,2.55-.42,.54-.5,.49-1.41-.4,1.14,.21,1.5-.55,1.89-1.2,.37-.61,.67-1.26,.99-1.9,.23-.46,.31-1.12,.67-1.35,1.31-.81,.99-2.09,1.11-3.25,.07-.69,.17-1.39,.54-2.13,.14,.28,.36,.55,.4,.84,.16,1.26,.26,2.53,.39,3.8,.06,.6,.17,1.19,.18,1.78,0,.44,0,.96-.21,1.32-.74,1.21-1.58,2.36-2.39,3.53-.27,.39-.65,.62-.55,1.29,.07,.47-.43,1.09-.8,1.54-1.3,1.58-2.69,3.07-3.97,4.66-1.72,2.12-2.59,4.7-4,7.29,.6-.13,.94-.18,1.26-.29,2.82-.9,5.63-1.82,8.45-2.72,.33-.11,.69-.15,1.03-.22-.43,.23-.83,.53-1.28,.69-2.21,.79-4.44,1.51-6.63,2.34-2.21,.84-4.53,1.33-6.74,2.2-2.55,1-5.24,1.68-7.86,2.51-.83,.26-1.65,.54-2.47,.81-.77,.25-1.53,.5-2.3,.75,.21,.18,.37,.21,.5,.17,8.36-2.31,16.64-4.85,24.75-7.96,6.06-2.32,11.83-5.26,17.45-8.49,1.9-1.1,3.75-2.29,5.55-3.54,1.81-1.26,3.68-2.45,5.23-4.07,1.37-1.44,2.86-2.77,4.26-4.19,2.66-2.69,5.26-5.42,7.94-8.09,2.8-2.78,5.88-5.22,9.3-7.2,4.7-2.72,9.74-4.69,14.82-6.54,.33-.12,.7-.11,1.05-.16-.35,.19-.68,.42-1.04,.57-3.19,1.37-6.4,2.68-9.57,4.08-5.24,2.31-9.91,5.48-13.96,9.53-3.07,3.07-6.09,6.18-9.11,9.3-1.09,1.13-2.1,2.33-3.13,3.47-.08-.06-.01,.04,.06,.04,2.04-.05,4.09-.01,6.11-.19,1.98-.17,3.93-.54,5.9-.82,.55-.08,1.11-.14,1.66-.21-1.47,.49-2.93,.98-4.37,1.46l.5,.21c-2.09,.74-4.23,.49-6.34,.63,.57,.22,1.14,.41,1.72,.42,2.85,.06,5.7,.07,8.55,.09,.23,0,.59-.06,.68-.21,.43-.71,1.16-.64,1.77-.65,1.67-.05,3.36-.01,5.03,.08,1.05,.06,2.1,.28,3.14,.42l.06-.31c-1.57-.37-3.12-.85-4.71-1.07-1.65-.22-3.33-.18-4.96-.25l-.5-.93Zm-52.56,27.21l1.35-.98-.06-.28-3.25,.21,.41-.87c-1.54-.29-2.56,.3-3.32,1.21,1.62,.22,3.26,.44,4.9,.67l.76,.84c-1.83,1.01-3.64,.62-5.76,.53l2.24,2.09-.08-1.26c.83,.36,1.6,.69,2.55,1.1l-.6-1.45,2.94,.91,.13-.28-1.04-1.2,2.43-.25v-.35c-1.15-.47-2.3-.95-3.61-.64Zm-24.17,1.05c-1.86,1.13-3.4,2.59-4.71,4.32-.99,1.3-1.59,2.77-1.59,4.39,.01,2.19,.12,4.38,.32,6.56,.06,.66,.49,1.34,.9,1.9,.59,.81,1.58,1.02,2.46,.58,.72-.36,1.37-.84,1.81-1.73-.42,.07-.72,.14-1.01,.17-2.01,.26-3.01-.54-3.41-2.54-.42-2.13,.06-4.16,.42-6.22,.54-3.05,2.4-5.01,5.13-6.19,1.34-.58,2.77-.93,4.16-1.38-1.12,0-2.21,.16-3.29,.38-.48,.1-.9,.16-1.23-.27,.67,.21,1.04-.22,1.33-.79l-1.3,.82Zm18.68-.69c1.8,.64,3.28,.83,4.8,.19-1.45-.52-2.92-.85-4.8-.19Zm51.26-25.65v-.16h-5.23v.16h5.23Zm-51.17,26.64l-.23,.14,.49,.88,.28-.16-.54-.86Z"/><path class="cls-5" d="M98.83,248.18c-.44-.11-.91-.14-1.31-.33-7.47-3.5-14.51-7.7-20.68-13.22-5.96-5.34-10.57-11.64-12.99-19.34-2.27-7.24-3-14.67-2.3-22.24,.14-1.49,.69-2.76,1.8-3.77,.55-.5,1.12-.99,1.58-1.6-1.19-.02-1.69,1.01-2.68,1.63,.06-.46,.08-.78,.15-1.08,.83-3.48,2.43-6.6,4.48-9.49,3.4-4.81,7.44-9.07,11.66-13.16,3.52-3.41,7.08-6.77,10.65-10.13,.35-.33,.82-.52,1.24-.78-1.13,1.17-2.26,2.35-3.41,3.5-4.65,4.66-9.41,9.23-13.94,14.01-2.34,2.47-4.43,5.22-6.36,8.03-1.28,1.87-2.09,4.07-3.09,6.13-.14,.3-.15,.66-.27,1.2,.61-.37,1.04-.63,1.46-.89,3.28-2.01,6.76-3.58,10.39-4.83,2.06-.71,4.16-.98,6.33-.88,1.43,.07,2.86,.12,4.29,.13,1.32,0,2.58-.09,3.84-.75,.82-.43,1.95-.28,3.02-.4v1l1.22,.13c.18,1.61,.56,3.18-1.24,4.32-1.67-.41-3.29-1.22-4.35-2.8-.33-.49-.63-.76-1.13-.83-1.11-.15-2.22-.28-3.33-.38-7.45-.65-13.44,2.54-18.93,7.13-1.94,1.62-2.79,3.54-2.91,6.08-.31,6.59,.27,13.07,2.08,19.41,2.4,8.42,7.35,15.2,13.89,20.87,5.78,5.02,12.26,8.98,19.09,12.4,.59,.3,1.16,.63,1.74,.94Zm-8-64.77c.41,0,.83,0,1.24-.02,.12,0,.23-.12,.42-.23l-1.09-.72,.8-.88-1.37,.28c0,.64,0,1.12,0,1.59-.32-.26-.55-.75-1.12-.41,.19,.67,.54,.84,1.12,.4Zm-1.67-2.23l.06,.36,1.2,.36v-1.44l-1.26,.72Zm2.48,2.78l-.18,.28,.78,.41c.03-.07,.1-.19,.09-.19-.22-.17-.46-.33-.69-.49Z"/><path class="cls-5" d="M210.2,154.66c.39,.21,.86,.35,1.17,.65,5.9,5.72,12.17,11.08,17.57,17.3,2.2,2.54,4.24,5.23,6.21,7.96,1.68,2.34,2.75,5,3.47,7.8,.08,.33,.09,.68,.15,1.17l-2.73-2.06-.2,.23c.58,.58,1.13,1.19,1.74,1.74,1.25,1.12,1.92,2.53,1.95,4.18,.07,3.06,.2,6.13,.04,9.18-.22,4.19-.95,8.32-2.2,12.34-2.54,8.13-7.35,14.76-13.72,20.29-6.76,5.87-14.42,10.32-22.64,13.83,.39-.29,.75-.64,1.18-.84,6.46-3.1,12.6-6.74,18.28-11.13,4.89-3.79,9.05-8.23,12.31-13.52,3.03-4.91,4.71-10.28,5.58-15.94,.76-4.97,.99-9.95,.44-14.97-.11-1.03-.52-1.83-1.2-2.57-2.54-2.73-5.49-4.9-8.91-6.37-1.86-.8-3.79-1.56-5.76-1.99-3.01-.66-6.08-.45-9.12,.1-.55,.1-.79,.44-1.12,.88-1.11,1.54-2.7,2.38-4.51,2.77-.32-.41-.54-.75-.82-1.02-.45-.44-.62-.91-.38-1.52,.09-.23,.12-.5,.13-.75,.05-1.18,.04-1.18,1.21-1.08,.02-.32-.06-.7,.09-.93,.09-.14,.54-.09,.82-.07,1.1,.07,2.16,.12,3.19,.75,.59,.36,1.49,.29,2.25,.3,1.38,.02,2.76,.01,4.13-.09,2.7-.21,5.29,.17,7.82,1.11,3.5,1.3,6.89,2.83,10.05,4.85,.25,.16,.5,.32,.99,.63-.12-.6-.15-.97-.26-1.31-.93-2.73-2.34-5.21-4.02-7.55-2.83-3.96-6.12-7.53-9.56-10.96-4.52-4.49-9.08-8.94-13.62-13.4Zm.48,27.79l-1.47-.6-.12,.21,.51,.7-.98,.73c.86,.2,1.62,.29,1.67-.84,0-.08,.24-.16,.35-.25l1.44-.83-1.58-.85c.08,.76,.12,1.24,.17,1.72Zm-1.1,2.07l-.17-.24-.67,.48,.17,.23,.68-.46Zm1.83-1.07c-.67-.24-1.02-.14-.77,.61l.77-.61Z"/><path class="cls-5" d="M132.64,245.9c.33-.65,.64-1.32,.99-1.96,3.03-5.55,6.11-11.08,9.11-16.66,2.84-5.27,4.93-10.87,7.11-16.42,.22-.56,.47-1.12,.78-1.64-3.8,13.08-10.46,24.82-17.2,36.52-.09,.16-.37,.22-.56,.33l-.23-.17Z"/><path class="cls-5" d="M34.92,208l-1.41,.25,.47,.52h-4.99v-3.15l1.06-.24-.79-.88,.9-.68-.77-1.33-.03,.03c.67,.32,1.34,.64,2.01,.95,.18,.08,.43,.25,.56,.2,1.48-.67,1.9,.45,2.53,1.36,.29,.41,.86,.62,1.31,.93-.37,.02-.73,.04-1.31,.06l.74,1.1,.02-.03h-1.71l1.38,.96,.04-.04Zm-1.93-3.08l.31,.57h-1.57l.58,.9-1.24,.51,.86,.5-1.12,.57,.33,.37c.85,.13,1.65,.07,2.41-.46l-.81-1.26,1.54-.16c0-1.15-.36-1.98-1.49-2.74,.1,.58,.15,.9,.2,1.22l-.93-.82-1.07,.42c.61,.84,1.35,.32,2,.4Zm-1.41,1.03h-1.95c.66,.62,1.13,.78,1.95,0Z"/><path class="cls-5" d="M272.43,204.65l2.49-.95c.26,.2,.5,.47,.79,.6,.4,.18,.84,.25,1.43,.41l-.59,1.34c.4,.15,.85,.27,1.24,.49,.8,.45,.83,1.16,.09,1.69-.28,.2-.65,.28-.98,.41-.19,.07-.5,.07-.56,.2-.7,1.62-1.85,.86-2.9,.49l1.99,.1,.06-.28-.62-.39c.96-.64,2.53,.09,3.16-1.39-.8-1.15-2.02-.77-3.27-.96l2.19-1.39c-1.75-.58-3.14-.46-4.54-.35Z"/><path class="cls-5" d="M208.71,154.05c-.2,0-.42,.03-.6-.02-2.67-.84-5.34-1.69-8.01-2.54-.07-.02-.11-.15-.17-.23,1.49-.24,2.56,.14,4.15,.92,1.26,.62,2.69,.88,4.04,1.3l-.06-.04,.63,.65,.02-.04Z"/><path class="cls-5" d="M24.35,204.22c.09,1.13,1.09,1.3,2.08,1.83-1.29,.25-2.61-.18-3.41,.94q.53,.73,3.08,1.39l-.61,.53,.75,.46-.07,.19c-.41-.15-1.12-.24-1.17-.47-.13-.61-.48-.68-.95-.77-.68-.14-1.34-.45-1.38-1.2-.04-.83,.76-.96,1.37-1.18,.14-.05,.29-.08,.47-.13,0-.52-1.01-.96-.14-1.54,0,0-.03-.03-.03-.03Z"/><path class="cls-5" d="M274.88,203.76l.39-1.27q-.96-.06-1.89,.34l1.03-1.56-1.05,.17c.78-.74,.89-.71,1.39,.08,.23,.37,.66,.61,1.13,1.04l-1,1.2Z"/><path class="cls-5" d="M29.39,202.49c-.34-.28-.65-.58-1.01-.82-.43-.29-.9-.54-1.57-.59l.63,1.26-1.78-.48,.03,.02c.19-.15,.44-.26,.56-.45,.56-.9,.76-1.03,1.51-.61,.7,.39,1.43,.79,1.59,1.69l.03-.03Z"/><path class="cls-5" d="M25.66,201.86c.27,1.2,.88,2.09,2.29,2.37-1.29,0-2.44,0-3.6,0,0,0,.03,.03,.02,.02,.51-.14,1.02-.28,1.66-.45-.21-.41-.45-.72-.52-1.07-.05-.26,.11-.56,.18-.85l-.03-.02Z"/><path class="cls-5" d="M134.21,247.55c-1.14,.5-1.47-.41-2.37-.63,.56-.09,1.37,.17,2.37,.63Z"/><path class="cls-5" d="M91.59,154.24l.66-.82-.07,.05c.63-.1,1.26-.21,1.88-.31l-.02-.03c-.82,.37-1.64,.74-2.46,1.1Z"/><path class="cls-5" d="M101.45,249.42c-.87-.1-1.68-.32-2.2-1.11l2.2,1.11Z"/><path class="cls-5" d="M205.64,151.91c-.43-.1-1.13,.31-1.24-.68,.61,.04,1.04,.14,1.22,.71l.03-.03Z"/><path class="cls-5" d="M235.21,166.55c-.04-.65-.08-1.3-.12-1.95h.12c0,.64,0,1.29,0,1.94h0Z"/><path class="cls-5" d="M200.49,249.38c-.55,.22-1.09,.43-1.64,.65l1.64-.65Z"/><path class="cls-5" d="M161.86,149.97l.33-.71,.16,.08-.33,.71-.16-.08Z"/><path class="cls-5" d="M209.59,154.04l.68,.66-1.56-.65-.02,.04h.97l-.06-.05Z"/><path class="cls-5" d="M174.37,164.82l.48-1.01,.29,.19c-.27,.26-.53,.52-.8,.79l.03,.03Z"/><path class="cls-5" d="M170.51,158.82l.09-1.15,.25,.05c-.13,.35-.25,.7-.37,1.06l.03,.04Z"/><path class="cls-5" d="M171.6,164.5l.56-.92,.22,.2c-.27,.23-.54,.46-.81,.69l.03,.03Z"/><path class="cls-5" d="M167.24,160.75v-1.29h.22c-.08,.42-.17,.84-.24,1.27,0,0,.02,.02,.02,.02Z"/><path class="cls-5" d="M26.01,209.36c1.3,.28,2.44-.12,3.51-.86"/><path class="cls-5" d="M191.55,240.31c1.45-2.13,2.49-2.99,2.8-3.13"/><path class="cls-5" d="M109.44,240.01c-1.45-2.13-2.49-2.99-2.8-3.13"/><line class="cls-5" x1="274.15" y1="209.45" x2="271.52" y2="208.42"/><path class="cls-5" d="M134.98,246.12c-.06,.07-.16,.06-.22,.14-.03,.04-.04,.1-.07,.14-.02,.03-.05,.06-.08,.09-.06,.08-.12,.17-.18,.26s-.07,.17-.14,.24c-.08,.09-.14,.18-.25,.24-.08,.04-.15,.08-.24,.1-.1,.02-.19,.03-.3,.03-.05,0-.1,0-.15,0-.07,0-.14-.04-.21-.05-.18-.04-.38-.07-.54-.14-.06-.02-.1-.06-.16-.07-.04-.01-.09-.01-.13-.05-.04-.05-.04-.15-.03-.21,.01-.1,.08-.17,.14-.25,.04-.05,.07-.09,.12-.13,.05-.04,.11-.07,.16-.12,.09-.09,.21-.18,.28-.29,.24-.38,.42-.79,.6-1.2"/><path class="cls-5" d="M132.28,246.9c-.06,0-.14-.08-.18-.11-.05-.04-.09-.08-.12-.14-.07-.11-.13-.22-.21-.32-.1-.13-.19-.28-.3-.41s-.25-.19-.33-.34c-.05-.09-.1-.16-.17-.24-.06-.07-.08-.16-.13-.23-.05-.07-.09-.14-.12-.21-.02-.04-.05-.07-.06-.11-.01-.03,0-.07-.02-.11-.04-.13-.07-.27-.09-.4-.01-.08-.02-.16-.03-.24-.03-.17-.07-.35-.1-.52"/></g></g></svg>