<?xml version="1.0" encoding="UTF-8"?><svg id="Calque_2" xmlns="http://www.w3.org/2000/svg" viewBox="0 0 192.9 245.12"><defs><style>.cls-1{fill:#fff;}.cls-2{fill:#d75661;}.cls-3{fill:#87a249;}</style></defs><g id="Calque_1-2"><g><path class="cls-3" d="M116.98,33.45c2.61-1.23,4.78-3.74,5.31-6.61,.5-2.66-.66-6.14-3.65-6.66-1.43-.25-2.84,.26-4.14,.8s-2.78,1.42-4.22,1.18-2.07-1.56-2.16-2.89c-.11-1.71,.64-2.88,1.47-4.29,2.25-3.79,3.62-7.98,4.83-12.19l-.61,.61c5.61-1.64,11.49-2,17.29-1.36,1.4,.16,2.78,.48,4.17,.65,.58,.07,.78,0,.93,.6,.32,1.29-.09,2.81-.04,4.13,.05,1.39,.35,2.83,1.46,3.78,.66,.57,1.24,.74,2.09,.62,1.24-.18,2.48-.36,3.73-.46,2.54-.2,4.69-.04,6.58,1.79,.99,.96,1.9,2,2.89,2.96,.65,.64,1.33,1.25,2.03,1.84s1.56,1.49,2.48,1.76c1.48,.44,3.06,.6,4.56,.98,1.64,.41,3.26,.9,4.82,1.56,2.79,1.17,5.77,3.04,6.53,6.17,.32,1.31,.47,4.36-.88,5.1s-2.68-.36-3.9-.87-2.5-.91-3.8-1.2c-11.39-2.5-22.75,2.88-34.19,1.35-.32-.04-.59,.2-.76,.43-1.45,1.98-2.38,4.71-4.54,6.07-.58,.36-1.22,.58-1.9,.63-.82,.07-1.33-.17-2.05,.27-1.51,.9-2.92,2-4.34,3.04-5.71,4.2-11.5,8.66-18.89,8.93-1.12,.04-1.13,1.79,0,1.75,7.81-.29,13.87-4.84,19.92-9.28,.76-.56,1.53-1.12,2.3-1.66,.7-.49,1.44-1.17,2.27-1.3,.72-.12,1.43,0,2.15-.23,.63-.19,1.22-.48,1.75-.86,2.26-1.6,3.25-4.31,4.84-6.47l-.76,.43c8.26,1.11,16.43-1.31,24.63-1.88,4.09-.28,8.27-.09,12.15,1.37,1.83,.69,3.43,2,5.46,1.24,1.65-.62,2.04-1.87,2.31-3.49,.93-5.54-2.98-9.2-7.72-11.18-2.43-1.01-4.98-1.67-7.55-2.2-.57-.12-1.18-.18-1.73-.34-.86-.26-1.63-1.09-2.31-1.68-1.03-.89-2-1.84-2.95-2.83-1.37-1.43-2.7-2.98-4.65-3.62-2.94-.96-6.44-.2-9.39,.26l.67,.09c-3.66-1.57,.54-7.31-2.7-9.05-.35-.19-.7-.21-1.08-.26-.87-.12-1.73-.29-2.59-.42-1.71-.25-3.43-.43-5.16-.51-3.56-.17-7.14,.05-10.64,.71-.89,.17-1.78,.36-2.65,.59-.6,.16-1.44,.22-1.83,.77s-.5,1.62-.7,2.29c-.28,.94-.58,1.87-.9,2.79-.51,1.47-1.09,2.93-1.77,4.33-.74,1.53-1.85,2.93-2.5,4.49-.8,1.91-.9,4.39,.32,6.16,1.34,1.94,3.68,2.04,5.71,1.3,1.41-.51,2.77-1.34,4.28-1.58,1.73-.27,2.89,.88,3.28,2.49,.77,3.16-1.75,6.26-4.45,7.54-1.02,.48-.13,1.99,.88,1.51h0Z"/><path class="cls-3" d="M101.17,48.78c2.14-1.99,5.05-3.03,7.53-4.51,2.36-1.4,4.74-3.34,4.78-6.32,.01-1.13-1.74-1.13-1.75,0-.03,2.54-2.57,4.06-4.53,5.17-2.45,1.38-5.17,2.48-7.26,4.42-.83,.77,.41,2,1.24,1.24h0Z"/><path class="cls-3" d="M63.18,93.8c-1.9,1.28-3.91,2.22-6.23,2.26l.84,.64c-1.32-3.51-3.17-7.31-3.3-11.12s2.45-5.74,5.61-7.02c5.18-2.09,11-1.98,16.07-4.36,1.24-.58,2.4-1.35,3.43-2.26s.96-1.97,1.37-3.2c.76-2.28,2.17-4.26,3.87-5.94,3.88-3.85,8.95-6.22,13.59-9,.96-.58,.09-2.09-.88-1.51-4.28,2.57-8.82,4.8-12.64,8.08-1.86,1.59-3.53,3.47-4.66,5.65-.53,1.01-.95,2.09-1.23,3.2-.16,.61-.18,1.02-.64,1.49-.66,.67-1.57,1.2-2.39,1.64-2.66,1.42-5.71,1.91-8.64,2.47s-5.57,1.15-8.19,2.26c-3.22,1.36-6.01,3.62-6.36,7.3-.41,4.34,1.84,8.84,3.33,12.78,.14,.36,.43,.65,.84,.64,2.63-.05,4.96-1.05,7.11-2.5,.93-.63,.05-2.14-.88-1.51h0Z"/><path class="cls-3" d="M101.82,52.98c.99,3.51-2.99,7.08-1.07,10.46,.19,.33,.62,.51,.99,.4,3.79-1.14,7.09-4.23,11.13-4.48,3.46-.21,9.63,1.91,8.86,6.32-.34,1.93-.8,3.96-1.73,5.7-.44,.82-1,1.58-1.7,2.2-.87,.77-1.86,.51-2.96,.6-3.62,.28-6.99,1.7-9.99,3.71s-5.78,4.63-8.53,7.1c-1.46,1.32-2.94,2.62-4.52,3.81-.9,.68-2.1,1.82-3.23,1.91-1.02,.08-1.69-.92-2.28-1.87-.77-1.24-1.44-2.57-2.5-3.6-4.54-4.43-11.44,1.47-14.93,4.42-.86,.73,.38,1.96,1.24,1.24,2.94-2.48,9.47-8.33,13.05-3.76,1.61,2.06,2.74,6,6.11,5.23,1.45-.33,2.76-1.54,3.92-2.42,1.56-1.21,3.05-2.51,4.51-3.83,2.95-2.65,5.85-5.43,9.27-7.49,1.67-1,3.45-1.8,5.35-2.27,.94-.23,1.91-.39,2.88-.44,1.16-.07,2.16,.19,3.14-.51,1.58-1.14,2.63-2.76,3.34-4.55s1.33-3.85,1.45-5.71c.28-4.63-5.35-7.03-9.1-7.46-5-.57-8.72,3.14-13.23,4.49l.99,.4c-.81-1.42,.3-3.47,.76-4.86,.56-1.68,.98-3.43,.48-5.18-.31-1.08-2-.62-1.69,.47h0Z"/><path class="cls-3" d="M56.45,96.04c-2.67,1.18-5.95,3.09-5.49,6.49,.23,1.72,2.19,4.08,1.34,5.79-.34,.68-1.01,1.04-1.64,1.42-1.17,.71-2.32,1.45-3.45,2.22-2.13,1.45-4.18,3-6.2,4.6-3.74,2.97-7.14,6.58-11.33,8.9-3.51,1.95-7.36,3.37-10.41,6.05-1.81,1.59-5.16,4.76-2.38,6.96,.82,.65,2.38,1.21,2.6,2.37,.3,1.55-1.09,3.2-2.04,4.24-1.1,1.21-2.31,2.32-3.28,3.66-1.05,1.45-1.57,3.25-1.95,4.98-.77,3.5,.23,6.63,2.82,9.08,2.74,2.59,6.17,4.32,8.9,6.94,.81,.78,2.05-.46,1.24-1.24-2.35-2.26-5.16-3.89-7.7-5.91-2.33-1.85-4.06-4.11-3.76-7.23,.16-1.73,.71-3.8,1.64-5.27,.85-1.34,2.06-2.41,3.13-3.57,1.74-1.88,4.02-5.11,1.94-7.54-.74-.87-1.92-1.22-2.66-2.04-.87-.98,1.2-2.68,1.83-3.33,2.8-2.9,6.67-4.37,10.16-6.21,3.9-2.06,6.98-5.1,10.36-7.89,1.99-1.64,4.02-3.23,6.11-4.74s4.18-2.64,6.19-4.07c2.35-1.67,1.89-3.98,.94-6.29-.41-.99-.93-2.13-.62-3.22,.53-1.9,2.97-2.92,4.59-3.63,1.03-.45,.14-1.96-.88-1.51h0Z"/><path class="cls-3" d="M23.33,169.25c.96,1.29-1.7,2.51-2.42,3.42-.91,1.15-1.18,3.47-.38,4.77,.72,1.17,2.11,1.14,3.15,.44,.77-.51,1.28-1.29,1.77-2.05,.6-.94,1.54-1.52,2.44-2.16,1.72-1.22,2.85-2.43,3.51-4.45,.27-.82,.43-2.28,1-2.88,.87-.91,2.42-1.05,3.37-1.87,1.31-1.12,1.9-3.17,2.51-4.71,.35-.88,.72-1.77,1.26-2.55,.24-.35,.52-.68,.84-.96,.6-.53,1-.47,1.78-.51,2.09-.11,4.17-.44,6.18-1.03,3.23-.95,6.14-2.58,8.99-4.33,2.57-1.57,5.18-3.19,8.2-3.72,1.67-.29,3.36-.17,5.02,.13,1.16,.21,2.35,.18,3.52,.39s2.32,.51,3.45,.88c4.68,1.52,8.9,4.13,13.41,6.04,2.05,.87,4.14,1.75,6.26,2.41s4.19,1.11,6.11,2.08c1.5,.76,3.85,2.24,3.79,4.19-.07,2.32-3.71,1.92-5.3,1.97-5.24,.18-10.45-.57-15.65-1.14-5.09-.56-10.23-.98-15.32-.25-2.42,.35-5.03,.89-7.18,2.09-2.03,1.13-3.96,2.44-6,3.57s-4.33,2.15-6.72,2.33c-2.27,.17-4.29-.8-6.37-1.6-1.8-.69-4.13-2.01-6.14-1.55s-3.13,2.51-4.2,3.97c-1.19,1.62-2.55,3.19-3.64,4.88-.61,.94-1.14,1.78-1.93,2.59s-1.64,1.63-2.35,2.55c-1.34,1.72-1.9,3.5-2.4,5.58-.21,.88-.61,2.22-1.65,2.47-.44,.11-.27,.21-.48-.13-.53-.84,0-2.79,.15-3.69,.2-1.13,.63-2.29,.64-3.44,0-2.28,.15-4.01,1.84-5.71,.8-.8-.44-2.04-1.24-1.24-1.46,1.47-2.23,3.14-2.34,5.21-.05,.84,.06,1.66-.11,2.48-.12,.6-.27,1.19-.39,1.79-.31,1.65-1.31,5.99,1.17,6.54,1.43,.32,2.92-.99,3.52-2.14,.5-.96,.64-2.01,.88-3.05,.27-1.14,.83-2.19,1.48-3.16,1.29-1.93,3.26-3.27,4.47-5.28,1.11-1.84,2.55-3.53,3.83-5.27,.94-1.28,2.13-3.47,3.89-3.26,1.03,.12,2.05,.59,3.01,.96,1.79,.69,3.58,1.47,5.42,2.03,4.54,1.38,9.55-1.67,13.24-3.93,2.27-1.39,4.38-2.63,6.99-3.29s5.37-.92,8.09-.94c5.47-.04,10.89,.82,16.32,1.37,2.7,.27,5.41,.47,8.12,.45,1.26-.01,2.53-.08,3.78-.21,.98-.1,2-.12,2.85-.69,1.32-.88,1.73-2.61,1.3-4.09-.53-1.81-2.3-3.23-3.87-4.13-1.95-1.12-4.15-1.69-6.29-2.32-2.25-.67-4.45-1.56-6.62-2.46-4.63-1.93-8.94-4.6-13.72-6.19-2.43-.81-4.81-1-7.32-1.36-1.79-.26-3.5-.43-5.3-.17-3.1,.44-5.83,1.97-8.47,3.57-3.04,1.85-6.07,3.67-9.53,4.64-.96,.27-1.93,.48-2.92,.63-1.26,.19-2.63,.05-3.86,.29-1.74,.35-2.96,2.42-3.63,3.9-.73,1.63-1.22,4.3-2.79,5.34-1.04,.69-2.41,.97-3.29,1.91-.7,.75-.86,1.93-1.15,2.87-.31,1.02-.59,2.01-1.33,2.81s-1.78,1.41-2.69,2.09c-.79,.58-1.46,1.18-1.98,2.01-.26,.41-1.15,1.98-1.85,1.67-.57-.26-.15-2.08,0-2.43,.33-.85,1.22-1.34,1.89-1.92,1.2-1.05,1.95-2.46,.87-3.89-.67-.89-2.19-.02-1.51,.88h0Z"/><path class="cls-3" d="M117.59,76.09c.52,1.83-.79,3.43-2.01,4.64-1.72,1.69-3.77,3.04-5.76,4.39-1.85,1.24-3.76,2.45-5.42,3.94-1.79,1.6-3.33,3.51-5.03,5.2-3.52,3.5-7.27,6.43-12.14,7.72-1.35,.36-2.72,.61-4.1,.79-.75,.1-1.59,.07-2.32,.24-.58,.14-1.05,.48-1.6,.71s-2.19,.9-2.77,.42c-.71-.59,.57-2.18,1.1-2.5,1.34-.79,3.02-1.21,4.45-1.83s2.95-1.35,4.32-2.21c2.71-1.7,4.91-3.98,6.18-6.94,.44-1.02-1.07-1.92-1.51-.88-1.32,3.1-3.67,5.3-6.58,6.92-1.46,.82-3,1.49-4.54,2.13-1.17,.48-3.08,.87-3.95,1.8-1.38,1.48-2.34,4.69,.37,5.28,1.07,.23,2.25-.07,3.25-.44,.56-.21,1.1-.59,1.68-.74,.84-.22,1.83-.19,2.7-.32,5.5-.79,10.18-2.96,14.32-6.66,2.24-2,4.41-4.17,6.39-6.43,1.53-1.75,3.57-3,5.48-4.29,2.42-1.63,4.96-3.24,7-5.35,1.58-1.63,2.86-3.74,2.19-6.07-.31-1.08-2-.62-1.69,.47h0Z"/><path class="cls-3" d="M89.16,102.03c-1.29,3.18,2.49,4.1,4.76,4.68,.95,.24,2.7,.47,3.25,1.42,.46,.79,.29,2.01-.48,2.51-.87,.56-2.1,.6-3.09,.67-1.27,.09-2.54,.1-3.8,.27-2.3,.32-4.4,1.74-3.66,4.38,.53,1.89,2.48,1.67,3.92,1.06,.81-.34,1.52-.7,2.4-.66,1.33,.07,2.66,.12,3.99,.02s2.79-.28,3.8-1.18c.69-.61,.96-1.45,1.19-2.31,.29-1.06,.64-1.99,1.43-2.8,.47-.48,1.07-1.01,1.51-1.13,.58-.15,1.07-.22,1.58-.56,2-1.32,2.51-4.14,2.62-6.35,.15-2.8-.26-6.09-1.82-8.49s-3.94-2.54-5.98-.67c-.83,.76,.41,2,1.24,1.24,3.81-3.5,4.9,5.45,4.83,7.66-.06,1.65-.32,4.35-1.98,5.24-.38,.2-.73,.14-1.12,.25-.67,.2-1.4,.89-1.91,1.37-.83,.78-1.44,1.74-1.82,2.82-.24,.69-.31,1.56-.7,2.14-.5,.75-1.65,.9-2.51,.99-.98,.11-1.97,.1-2.95,.09s-1.94-.22-2.93,.1c-.7,.22-1.34,.59-2.04,.82-.75,.25-1.18,.18-1.16-.69,.05-1.84,2.99-1.7,4.27-1.77,1.96-.1,4.57,.02,6.11-1.43,.92-.87,1.09-2.11,.89-3.31-.23-1.38-1.08-2.15-2.34-2.67-1.36-.56-2.83-.79-4.23-1.23-1.11-.35-2.15-.72-1.62-2.02,.42-1.04-1.27-1.5-1.69-.47h0Z"/><path class="cls-3" d="M107.94,91.04c-.39-.24-.33-.24-.02-.64,.42-.55,1.14-.93,1.74-1.24,.87-.45,2.58-1.36,3.45-.59,1.45,1.27,1.23,4.02,1.94,5.71,.6,1.43,1.46,2.53,2.82,3.31,1.16,.67,2.69,1.17,4,.66,1.7-.67,1.5-2.36,1.9-3.83,.22-.8,.7-1.2,1.38-1.63,.9-.57,1.16-1.25,1.3-2.31s-.02-2.31,.66-3.26c.47-.66,1.05-1.2,1.41-1.95,1.1-2.26-.92-2.9-2.74-3.09-.86-.09-1.98-.12-2.68-.69-.33-.27-.5-.63-.57-1.05-.03-.17-.12-.69,0-.83,.12-.14,1.53-.27,1.75-.29,2.33-.24,4.73,.06,6.93-.91,1.03-.46,2.03-.95,3.1-1.35,1.3-.49,2.63-.92,3.99-1.21,.76-.16,2.29-.59,3.02-.13,.89,.56-.51,2.44-.96,2.93-1.07,1.15-2.45,2.27-2.55,3.98-.06,1.08,.5,1.93,.79,2.93,.49,1.72-.56,3.36-1.52,4.71-.23,.32-.11,.79,.14,1.06,1.11,1.21,2.54,.89,3.95,.45,1.71-.54,3.54-.29,5.32-.32,1.97-.04,4.01-.12,5.92,.42,1.01,.29,1.56,.48,1.91,1.48,.24,.67,.55,1.48,.47,2.2-.11,1-1.19,1.63-1.89,2.23-.48,.41-1.28,.93-1.57,1.5-.37,.73,.23,1.69,.35,2.43,.17,1.03-.48,1.61-1.04,2.37-.48,.66-.9,1.36-1.24,2.1-.67,1.44-1.1,3-1.18,4.59-.13,2.84,1.21,6.18,4.06,7.21,2.67,.96,4.57,3.46,4.51,6.35-.03,1.34-.53,2.64-1.45,3.62-.99,1.05-2.53,1.32-3.41,2.45s-1.01,2.59-1.23,3.94c-.28,1.65-.73,2.8-1.99,3.94-2.92,2.63-6.9,3.66-10.49,5.01s-6.81,2.98-9.09,6.05l.76-.43c-2.67,.29-5.82,.12-8.33,1.25s-4.49,3.9-6.31,5.97l.62-.26c-2.2,.09-2.6-1.79-3.32-3.49-1.11-2.63-2.97-4.45-5.79-5.18-2.37-.61-4.76-.43-7.18-.28-1.33,.09-2.77-.36-3.49-1.57-.14-.23-.08-.68-.33-.37-.06,.07,.6-.36,.1-.05,.18-.11,.47-.12,.68-.14,2.83-.32,6.9,.8,8.53-2.37,.34-.66,.76-1.92,.3-2.58s-1.67-1.11-2.39-1.44c-1.55-.71-3.22-1.15-4.73-1.95s-2.44-1.98-2.69-3.71c-.19-1.34-.42-6.07,1.64-6.04,1.63,.02,3.62,1.64,5.19,.59,1.36-.9,.66-2.9,.33-4.14-.14-.55-.64-1.72-.35-2.29,.14-.27,.81-.46,1.14-.65,.52-.3,1.01-.64,1.48-1.01,1.5-1.19,2.45-2.76,2.9-4.62,.28-1.13,.4-2.3,.56-3.46,.1-.7,.09-1.58,.44-2.21,.31-.56,.95-1.07,1.34-1.59,1.42-1.92,2.16-4.2,3.69-6.09,1.33-1.64,2.29-3.22,1.11-5.28-.76-1.32-1.98-2.64-3.31-3.38-1.21-.67-2.59-.77-3.75-1.55-.93-.63-1.81,.88-.88,1.51,1.21,.82,2.68,.9,3.9,1.64,1.08,.66,2.86,2.29,2.88,3.69,.01,.97-.97,1.85-1.53,2.55-.81,1.02-1.52,2.1-2.09,3.27-.5,1.02-.95,2.02-1.66,2.92-.45,.58-1.22,1.11-1.47,1.79s-.25,1.56-.34,2.25c-.29,2.16-.44,4.58-1.94,6.3-1,1.15-2.33,1.55-3.5,2.43-.69,.52-.78,1.44-.71,2.24,.09,1.02,.44,1.99,.67,2.98,.2,.89,.45,1.38-.56,1.18-1.87-.35-4.2-1.74-5.74,.11-.84,1.01-.99,2.45-1.14,3.71-.16,1.36-.19,2.76,.12,4.11,1.12,4.88,6.77,5,10.27,7.41l-.43-.76c-.28,4.1-5.84,2.02-8.39,2.87-2.24,.74-1.13,3.12,.23,4.23,2.29,1.87,5.18,.93,7.87,1.04,1.87,.08,3.91,.41,5.41,1.62,.96,.78,1.56,1.86,2.04,2.98,.88,2.1,1.63,4.34,4.27,4.52,1.26,.08,1.73-.81,2.5-1.68s1.6-1.82,2.47-2.66c1.05-1.02,2.12-1.7,3.57-1.98,.85-.16,1.71-.22,2.57-.3,.59-.05,1.18-.1,1.76-.16,.65-.06,1.63,.03,2.21-.3,.49-.28,.84-1,1.24-1.41,.47-.49,.98-.94,1.53-1.34,1.13-.83,2.38-1.48,3.66-2.04,4.8-2.1,10.76-3.07,14.28-7.33,1.6-1.94,.94-4.56,2.08-6.64,.52-.95,1.82-1.23,2.65-1.87,.89-.69,1.62-1.57,2.1-2.6,.99-2.14,.85-4.62-.17-6.72-.53-1.09-1.3-2.06-2.24-2.82-1.07-.87-2.5-1.12-3.53-1.97-2.37-1.98-2.29-5.43-1.28-8.08,.56-1.47,1.51-2.49,2.34-3.77,.94-1.44,.27-2.95-.05-4.46l-.23,.85c1.18-1.2,3.15-2.24,3.69-3.92,.26-.84,.14-1.74-.07-2.57-.18-.69-.41-1.51-.76-2.14-.3-.53-.76-.77-1.31-1.03-2.52-1.18-5.43-1.03-8.14-.98-1.33,.03-2.78-.2-4.08,.02-1.01,.17-2.73,1.27-3.56,.36l.14,1.06c1.01-1.44,2-3.14,1.88-4.97-.07-1.07-.65-1.91-.87-2.92-.3-1.42,1.09-2.5,1.99-3.38,.96-.94,1.91-2.66,1.73-4.07-.36-2.71-4.12-1.98-5.9-1.56-1.41,.34-2.8,.8-4.15,1.34-1.46,.57-2.87,1.44-4.43,1.7-2.36,.39-5.02-.17-7.24,.92-1.32,.65-.92,2.93-.21,3.97,1.34,1.95,3.79,1.35,5.73,1.99,.04,.01,.06,.07,.04,.02-.07-.24-.05,.03-.11,.14-.44,.78-1.04,1.38-1.52,2.13-.55,.86-.65,1.86-.72,2.86-.03,.55,.02,1.28-.3,1.75-.28,.4-.86,.62-1.24,.96-.56,.51-.95,1.11-1.15,1.84s-.03,2.16-.69,2.69c-1.08,.87-3.32-.7-3.99-1.51-1.45-1.76-1.2-4.3-2.12-6.3-.84-1.8-2.21-2.46-4.08-2.02-1.99,.47-7.84,3.56-4.16,5.85,.96,.6,1.84-.92,.88-1.51h0Z"/><path class="cls-3" d="M122.32,78.07c-.15-.08-.3-.16-.44-.25-.07-.04-.13-.09-.2-.14-.03-.02-.06-.05-.1-.07-.14-.1,.16,.13,.03,.02-.25-.21-.49-.43-.73-.66-.47-.47-.92-.96-1.43-1.38-.18-.15-.37-.26-.62-.26-.21,0-.47,.1-.62,.26-.3,.32-.38,.92,0,1.24,1.09,.91,1.93,2.11,3.22,2.75,.41,.2,.97,.12,1.2-.31,.21-.4,.12-.98-.31-1.2h0Z"/><path class="cls-3" d="M143.16,141.9c-.89,4.42-1.65,8.96-3.5,13.1-.2,.44-.59,.96-.68,1.44-.06,.34,.08,.61,.08,.94,0,.55-.25,1.04-.55,1.49-.64,.97-1.57,1.71-2.18,2.69-.51,.82-.65,1.71-.09,2.55,.18,.27,.7,.56,.71,.89,0,.17-.35,.53-.44,.65-.41,.6-.72,1.12-.69,1.86,.03,.82,.45,1.31,.92,1.93,.81,1.05,.92,2.3,.97,3.59,.04,1.12,1.79,1.13,1.75,0-.07-1.92-.42-3.41-1.57-4.93-.92-1.21,.99-2.01,.79-3.37-.1-.73-1.08-1.25-1.07-1.86s1.01-1.39,1.36-1.79c1.16-1.33,2.16-2.8,1.69-4.64l-.09,.67c2.32-4.64,3.25-9.7,4.26-14.74,.22-1.1-1.47-1.57-1.69-.47h0Z"/><path class="cls-3" d="M138.36,173.87c2.3,.47,4.42,.47,5.08-2.16,.2-.81,.19-1.14,1.03-1.57,.75-.38,1.61-.53,2.43-.64,.47-.06,1.43-.32,1.73-.04s.24,1.38,.41,1.81c.5,1.22,2.01,1.4,3.21,1.39,1.44-.02,2.82-.51,4.1-1.14,2.78-1.35,5.22-3.68,8.31-4.34l-.85-.23c1.01,.9,1.65,1.06,2.91,.7,.83-.24,1.75,.24,2.58,.46,.97,.25,1.96,.47,2.95,.64,1.95,.33,3.93,.52,5.91,.45,.64-.02,1.36-.22,1.99-.18,.11,0-.07-.26-.05-.03,.12,1.73-.95,3.7-1.39,5.34-.49,1.87-.85,3.88,.06,5.67,1.2,2.37,2.91,4.27,4.63,6.26,1.9,2.2,3.15,4.46,3.28,7.41,.07,1.56,.98,3.24,1.51,4.72,.46,1.29,.93,2.59,1.36,3.89,.64,1.92,1.28,3.9,1.53,5.91,.42,3.44-1.02,6.09-3.3,8.56-1.74,1.89-3.68,3.6-5.61,5.29-1.27,1.11-2.58,2.06-3.44,3.52-.59,1-1.28,2.13-2.33,2.72-1.42,.81-3.33,.57-4.87,1.13s-2.51,1.44-3.69,2.52c-1.25,1.14-2.54,2.26-3.9,3.27-2.48,1.83-5.25,3.49-8.35,2.35-2.42-.9-4.43-1.7-7.06-1-.93,.25-1.83,.63-2.69,1.05-1.11,.55-2.06,1.36-3.28,1.53-2.24,.33-3.98,1.57-5.67,3-.51,.43-1.13,1.08-1.81,1.2-.81,.14-1.48-.6-1.97-1.14-.4-.44-.64-.87-1.23-1.05-.49-.16-1.03-.17-1.53-.1-.95,.13-1.8,.6-2.62,1.07-.75,.43-1.62,1.06-2.52,1.03-1.49-.05-2.49-1.93-2.82-3.14-.95-3.54-2.21-6.9-3.81-10.21s-3.42-6.51-5.12-9.78c-.82-1.58-1.54-3.19-2.31-4.79-.36-.76-.93-1.29-1.7-1.62-1.7-.74-3.59-.4-5.37-.65-.56-.08-1.2-.18-1.35-.8-.18-.76,.65-1.5,.99-2.12,1.03-1.85,1.11-3.86-.81-5.1-1.68-1.08-3.77-1.36-5.57-2.19-2.11-.97-3.34-2.51-3.11-4.92,.2-2,1.08-3.93,2-5.69,.65-1.24,1.44-2.37,1.86-3.71,.35-1.12,.58-2.28,.68-3.46,.29-3.76-1.26-7.1-3.49-10.02-1.03-1.34-3.92-3.92-2.99-5.73,.7-1.38,2.63-2.17,3.94-2.78l-.67,.09c1.18,.19,2.33-.04,3.51-.09,.44-.02,1.17-.12,1.56,.15,.55,.38,.23,1.23,.17,1.78-.22,1.99-.2,4.6,1.95,5.51,1.39,.59,3.14,.09,4.43,.88,.85,.52,.95,1.53,1.4,2.33,.58,1.04,1.04,2.12,1.44,3.24,1.59,4.38,2.59,10.44,6.7,13.27,2.21,1.52,4.52,1.14,6.96,.55,.98-.24,1.94-.3,2.94-.27,.61,.02,1.26,.06,1.81-.26,.74-.43,1.05-1.3,1.29-2.07s.41-1.5,.58-2.25c.14-.59,.09-.56,.63-.84,.32-.16,.64-.32,.96-.46,1.01-.46,2.09-.83,2.8-1.73,.92-1.16,1.03-2.79,1.16-4.2l-.26,.62c1.19-.98,1.89-1.9,1.62-3.46-.37-2.19,.99-4.09,2.18-5.82,.64-.93-.88-1.81-1.51-.88-1.07,1.56-2.24,3.31-2.49,5.24-.1,.76,.25,1.74,.18,2.3-.02,.15-.19,.4-.4,.64s-.51,.42-.72,.66c-.41,.45-.35,.85-.43,1.45-.18,1.47-.46,2.49-1.83,3.14-.63,.3-1.27,.55-1.9,.86-1.19,.59-1.42,.88-1.73,2.18-.18,.79-.44,2.7-1.03,3.11-.03,.02-.36,.04-.67,.03-.53,0-1.05-.04-1.57,0-1.67,.11-3.24,.86-4.91,.84-3.09-.03-4.81-2.84-5.92-5.36-1.34-3.03-2.09-6.29-3.37-9.34-.27-.65-.58-1.28-.9-1.9s-.48-1.25-.83-1.83c-.59-.98-1.54-1.57-2.65-1.82-.94-.21-1.93-.11-2.87-.34-1.09-.27-1.34-1.12-1.39-2.18-.07-1.53,.81-3.6-.48-4.82-1.07-1.01-2.82-.74-4.14-.63-.68,.06-1.39-.03-2.05,.03-.76,.07-1.63,.68-2.28,1.06-.96,.56-1.95,1.25-2.57,2.2-1,1.53-.54,3.18,.4,4.61,1.21,1.85,2.78,3.43,3.93,5.33,1.5,2.48,2.13,5.29,1.6,8.16-.66,3.54-3.19,6.36-4.07,9.87-.49,1.94-.55,4.12,.63,5.83,.94,1.37,2.42,2.17,3.94,2.77,1.35,.54,2.87,.87,4.13,1.5,.51,.25,.93,.55,1.11,.83,.21,.33,.22,.72,.03,1.29-.32,.97-1.12,1.66-1.48,2.57-.44,1.11-.1,2.57,.9,3.24s2.33,.67,3.48,.71,2.81-.12,3.7,.69c.6,.54,.86,1.67,1.2,2.37,.61,1.28,1.26,2.55,1.92,3.8,1.25,2.38,2.55,4.73,3.78,7.13s2.42,4.95,3.35,7.55c.85,2.4,1.05,5.07,2.79,7.02,1.03,1.16,2.44,1.8,3.98,1.4,1.4-.37,2.49-1.43,3.86-1.87,.28-.09,.61-.19,.91-.14,.5,.08,.52,.29,.87,.68,.51,.56,1.09,1.09,1.79,1.4,1.07,.48,2.15,.25,3.1-.38,1.12-.74,2.02-1.74,3.15-2.47,.67-.43,1.38-.77,2.15-.98,.52-.14,1.04-.12,1.55-.23,.48-.1,.84-.38,1.26-.64,2.07-1.27,4.59-2.57,7.1-2.06,1.52,.31,2.85,1.19,4.37,1.5,2.22,.45,4.35-.31,6.26-1.41,1.76-1.01,3.37-2.29,4.91-3.61,1.84-1.58,3.31-3.31,5.77-3.84,1.13-.24,2.32-.21,3.41-.65,1.46-.59,2.46-1.86,3.27-3.16,.71-1.13,1.47-1.92,2.48-2.8,.89-.77,1.77-1.55,2.65-2.34,1.36-1.22,2.7-2.46,3.94-3.81,1.66-1.8,3.21-3.87,3.7-6.32s-.03-5.04-.72-7.44c-.5-1.75-1.11-3.47-1.71-5.19-.38-1.06-.76-2.12-1.14-3.18-.2-.55-.45-1.1-.6-1.66-.18-.66-.13-1.4-.23-2.07-.56-4.02-3.4-6.6-5.83-9.59-.98-1.21-2.33-2.87-2.51-4.48-.16-1.49,.36-3.08,.78-4.49s2.37-5.62-.12-6.26c-.76-.19-1.71,.1-2.47,.13-1.66,.06-3.33-.05-4.98-.31-1.37-.21-2.74-.52-4.08-.89-.58-.16-1.25-.49-1.84-.54-.55-.04-.97,.42-1.48,.44-.42,.02-.62-.47-1.01-.61s-.76-.02-1.14,.09c-.98,.27-1.92,.73-2.81,1.23-1.9,1.06-3.65,2.4-5.64,3.3-.96,.44-2.01,.78-3.07,.75-.34,0-1.19,0-1.47-.26,.23,.21-.03-.2-.05-.32-.04-.27-.09-.54-.14-.81-.15-.73-.44-1.53-1.19-1.84s-2.1,.03-2.92,.15c-1.55,.23-4.02,.83-4.42,2.61-.12,.53-.13,1.45-.61,1.82-.59,.45-1.87,.05-2.48-.07-1.1-.22-1.57,1.46-.47,1.69h0Z"/><path class="cls-3" d="M5.16,198.43c-.58,.21-2.67,1.18-3.28,.56-.34-.35,0-1.35,.09-1.73,.59-2.33,1.43-4.95,3.19-6.66,2-1.95,4.81-2.84,7.5-3.34,.66-.12,1.32-.23,1.98-.31s1.38-.01,1.91-.39c.84-.6,1.37-1.79,1.57-2.77,.23-1.14,.08-2.3,.25-3.44,.25-1.7,1.42-2.68,2.88-3.45,1-.53,.11-2.04-.88-1.51-1.99,1.06-3.45,2.55-3.73,4.85-.23,1.85,.17,3.66-1.32,5.08l.62-.26c-5.64,.54-12.21,2.1-14.4,8.03-.66,1.77-1.92,4.21-1.42,6.15,.65,2.49,3.87,1.47,5.51,.87,1.05-.39,.59-2.08-.47-1.69h0Z"/><path class="cls-3" d="M28.16,180.53c.02,1.39,.33,2.78,1.49,3.66,.95,.72,2.15,.87,3.3,1,1.09,.12,2.51,.09,3.4,.82,2.27,1.87-.98,4.52-2.33,5.63-3.16,2.6-6.78,4.66-10.79,5.55-2.91,.64-5.88,.58-8.84,.48-3.11-.11-6.23-.18-9.23,.77-1.07,.34-.61,2.03,.47,1.69,2.82-.88,5.72-.82,8.64-.71,3.11,.12,6.22,.15,9.29-.5,4.07-.87,7.75-2.91,11-5.46,1.72-1.35,3.76-2.81,4.16-5.1,.28-1.62-.35-3.23-1.81-4.05-1.3-.74-2.86-.69-4.29-.89-1.8-.25-2.68-.96-2.7-2.87-.01-1.13-1.76-1.13-1.75,0h0Z"/><path class="cls-3" d="M100.14,47.4c-1.02,.68-1.48,1.74-1.82,2.88-.07,.25-.14,.49-.22,.74-.06,.2-.11,.51-.24,.68,.11-.15,.03-.07,0,0-.02,.05-.05,.1-.08,.16-.05,.1-.11,.2-.18,.29-.12,.18,0,.01,0,0,0,0-.1,.11-.11,.13-.05,.05-.1,.09-.14,.14-.16,.15,.11-.08-.03,.02-.37,.27-.59,.77-.31,1.2,.24,.37,.8,.6,1.2,.31,.97-.7,1.37-1.75,1.7-2.86,.07-.25,.14-.5,.22-.74,.04-.12,.08-.23,.12-.35,.02-.05,.03-.13,.07-.17-.11,.15-.03,.06,0-.01,.05-.11,.1-.21,.16-.32,.04-.07,.12-.26,.19-.3-.08,.1-.09,.11-.03,.04l.04-.04s.08-.09,.12-.13c.05-.05,.11-.09,.16-.14,.05-.04,.03-.03-.06,.04,.03-.02,.07-.05,.1-.07,.38-.25,.58-.78,.31-1.2-.24-.38-.79-.59-1.2-.31h0Z"/><path class="cls-3" d="M117.43,75.37c.01,.1,.02,.21,.05,.3,.03,.09,.07,.18,.11,.27,.02,.05,.05,.1,.08,.14,.1,.15,.22,.29,.34,.43l-.14-.18c.05,.07,.1,.13,.13,.21l-.09-.21s.02,.05,.02,.07c.03,.11,.08,.21,.16,.3,.06,.1,.14,.17,.25,.23,.1,.06,.21,.1,.33,.1,.12,.03,.23,.02,.35-.02l.21-.09c.13-.08,.24-.18,.31-.31l.09-.21c.04-.16,.04-.31,0-.47-.04-.16-.12-.31-.21-.45s-.21-.26-.31-.4l.14,.18c-.05-.07-.1-.14-.13-.22l.09,.21s-.03-.08-.03-.12l.03,.23h0c0-.13-.02-.24-.08-.35-.04-.11-.1-.2-.18-.28-.08-.09-.17-.15-.28-.18-.1-.05-.22-.08-.34-.08l-.23,.03c-.15,.04-.28,.12-.39,.23l-.14,.18c-.08,.14-.12,.28-.12,.44h0Z"/><path class="cls-3" d="M69.39,89.65c-1.87,1.63-4.17,2.71-6.19,4.16-.38,.28-.57,.76-.31,1.2,.22,.38,.81,.59,1.2,.31,2.14-1.54,4.54-2.69,6.54-4.43,.36-.31,.32-.92,0-1.24-.35-.35-.88-.31-1.24,0h0Z"/><path class="cls-3" d="M113.48,37.95c-.02-.48-.03-.96-.01-1.44,0-.17,.01-.34,.03-.51,0-.08,.01-.16,.02-.25,0-.04,.01-.08,.01-.12,0-.11-.03,.2,0,.04,.05-.26,.1-.52,.19-.77,.06-.19-.07,.11-.01,.03,.03-.04,.04-.09,.07-.13s.05-.08,.07-.12c.09-.16-.12,.13-.04,.04,.06-.06,.12-.13,.18-.19,.12-.12,.03,.02-.05,.04,.04,0,.1-.07,.14-.09,.08-.05,.16-.09,.24-.13,.04-.02,.09-.03,.13-.06,0,0-.23,.09-.11,.05,.03-.01,.06-.02,.09-.03,.46-.18,.95-.31,1.42-.47,.82-.28,1.61-.63,2.37-1.06,.41-.23,.55-.79,.31-1.2s-.78-.55-1.2-.31c-.36,.2-.74,.39-1.12,.56-.04,.02-.08,.03-.12,.05-.12,.05,.2-.08,0,0-.07,.03-.15,.06-.22,.09-.16,.06-.32,.12-.47,.17-.49,.17-.99,.31-1.48,.5s-.96,.41-1.31,.81c-.39,.44-.63,.99-.74,1.57-.18,.97-.17,1.97-.14,2.95,.02,.47,.39,.88,.88,.88s.89-.4,.88-.88h0Z"/></g><g><circle class="cls-2" cx="16.1" cy="175.94" r="7.25"/><path class="cls-2" d="M10.02,179.88c2.37,3.62,4.28,7.63,5.51,12.05,.16,.58,.97,.57,1.13,0,1.17-4.31,3.03-8.2,5.36-11.8"/></g><g><circle class="cls-2" cx="75.27" cy="126.37" r="7.25"/><path class="cls-2" d="M69.19,130.31c2.37,3.62,4.28,7.63,5.51,12.05,.16,.58,.97,.57,1.13,0,1.17-4.31,3.03-8.2,5.36-11.8"/></g><g><circle class="cls-2" cx="63.65" cy="92.21" r="7.25"/><path class="cls-2" d="M57.57,96.15c2.37,3.62,4.28,7.63,5.51,12.05,.16,.58,.97,.57,1.13,0,1.17-4.31,3.03-8.2,5.36-11.8"/></g><g><circle class="cls-2" cx="115.24" cy="161.02" r="7.25"/><path class="cls-2" d="M109.16,164.96c2.37,3.62,4.28,7.63,5.51,12.05,.16,.58,.97,.57,1.13,0,1.17-4.31,3.03-8.2,5.36-11.8"/></g><path class="cls-1" d="M64.67,89.32c0-.53-.29-1.12-1.01-1.12-.63,0-1.02,.44-1.02,1.07,0,.35,.15,.54,.15,.83,0,.47-.43,.66-.78,.66-.56,0-.95-.41-.95-1.1,0-1.13,1.07-1.92,2.68-1.92,1.49,0,2.59,.66,2.59,1.9,0,2.13-3.39,2.29-4.55,3.91h2.49c1.08,0,1.54-.17,1.73-.76h.43l-.2,.99c-.12,.69,0,.89,.05,.97h-5.32c0-2.73,3.72-3.56,3.72-5.41Z"/><path class="cls-1" d="M15.42,177.64v-4.08c0-.37-.1-.45-.42-.43l-.52,.03v-.42l1.9-.85c.25-.11,.52,.01,.52,.18v5.57c0,.5,.22,.66,.97,.7v.43h-3.44v-.43c.77-.04,.99-.21,.99-.7Z"/><path class="cls-1" d="M72.45,127.38c0-.59,.33-.82,.76-.82,.66,0,.62,.59,.8,1.18,.13,.37,.45,1.07,1.28,1.07,.95,0,1.36-.96,1.36-1.78s-.46-1.41-1.13-1.41c-.2,0-.47,.04-.75,.21l-.14-.4c1.23-.43,1.58-.81,1.58-1.59s-.34-1.25-1.08-1.25-.96,.56-.96,1.18c0,.44-.22,.75-.7,.75s-.68-.38-.68-.77c0-.68,.64-1.59,2.49-1.59,1.57,0,2.35,.68,2.35,1.56,0,.79-.64,1.21-1.19,1.36,.72-.03,1.77,.51,1.77,1.79,0,1.44-1.36,2.4-3.06,2.4-1.42,0-2.71-.68-2.71-1.87Z"/><path class="cls-1" d="M115.1,162.83v-.7h-2.95l-.22-.78,3.2-4.39,1.45,.18v3.88h1.14v1.11h-1.14v.7c0,.5,.22,.66,.86,.7v.43h-3.22v-.43c.66-.04,.88-.21,.88-.7Zm-1.94-1.82h1.94v-3.28l-2.12,2.92c-.14,.2-.06,.36,.19,.36Z"/></g></svg>