<?xml version="1.0" encoding="UTF-8"?><svg id="Calque_2" xmlns="http://www.w3.org/2000/svg" xmlns:xlink="http://www.w3.org/1999/xlink" viewBox="0 0 298.64 412.02"><defs><style>.cls-1,.cls-2,.cls-3,.cls-4{fill:none;}.cls-5{font-family:FreightSansProLight-Italic, 'FreightSans Pro';font-size:12.56px;opacity:.5;}.cls-5,.cls-6,.cls-7,.cls-8{fill:#ce5062;}.cls-6{font-family:QuincyCF-Text, 'Quincy CF';font-size:23.56px;}.cls-9{clip-path:url(#clippath);}.cls-10{letter-spacing:-.08em;}.cls-11{fill:#39a236;}.cls-12{letter-spacing:-.12em;}.cls-13{letter-spacing:-.03em;}.cls-14{clip-path:url(#clippath-1);}.cls-15{clip-path:url(#clippath-3);}.cls-16{clip-path:url(#clippath-2);}.cls-8{font-family:QuincyCF-Bold, 'Quincy CF';font-size:23.7px;}.cls-2{stroke-width:.2px;}.cls-2,.cls-3,.cls-4{stroke:#ce5062;stroke-miterlimit:10;}.cls-3{stroke-width:.15px;}.cls-17{letter-spacing:-.01em;}</style><clipPath id="clippath"><rect class="cls-1" x="257.21" y="364.13" width="24.6" height="34.98"/></clipPath><clipPath id="clippath-1"><rect class="cls-1" x="242.83" y="353.88" width="80.86" height="55.69"/></clipPath><clipPath id="clippath-2"><rect class="cls-1" x="242.83" y="353.88" width="80.86" height="55.69"/></clipPath><clipPath id="clippath-3"><rect class="cls-1" x="20.86" y="125.89" width="267.24" height="158.48"/></clipPath></defs><g id="Calque_1-2"><path class="cls-4" d="M298.14,65.69V404.78c0,3.72-3.06,6.74-6.84,6.74H66.59C30.09,411.52,.5,382.34,.5,346.33V7.24C.5,3.52,3.56,.5,7.34,.5H232.05c10.41,0,20.25,2.37,29.01,6.6,4.36-3.36,10.08-5.07,16.2-4.21,9.72,1.36,17.35,9.41,18.15,19.06,.45,5.46-1.21,10.53-4.27,14.5,4.48,8.79,7,18.73,7,29.25Z"/><text class="cls-6" transform="translate(107.72 327.64)"><tspan x="0" y="0">Fabacées</tspan></text><text class="cls-5" transform="translate(46.92 347.57)"><tspan x="0" y="0">Haricot à rames Borlotto – Phaseolus vulgaris </tspan></text><g><path class="cls-7" d="M197.44,63.68H103.66c-.82,0-1.48-.66-1.48-1.48s.66-1.48,1.48-1.48h93.78c.82,0,1.48,.66,1.48,1.48s-.66,1.48-1.48,1.48Z"/><text class="cls-8" transform="translate(90.83 53.37)"><tspan x="0" y="0">SEME</tspan><tspan class="cls-17" x="62.14" y="0">N</tspan><tspan x="78.37" y="0">CES</tspan></text><text class="cls-8" transform="translate(105.22 84.32)"><tspan class="cls-17" x="0" y="0">D</tspan><tspan x="16.14" y="0">E </tspan><tspan class="cls-10" x="34.77" y="0">P</tspan><tspan class="cls-12" x="47.83" y="0">A</tspan><tspan class="cls-13" x="62.16" y="0">Y</tspan><tspan x="77.47" y="0">S</tspan></text></g><g class="cls-9"><g class="cls-14"><g class="cls-16"><path d="M298.59,387.33c-5.66,0-10.42-4.61-10.32-10.54,.1-5.57,4.67-10.24,10.55-10.13,5.57,.1,10.23,4.68,10.11,10.56-.11,5.59-4.68,10.11-10.34,10.1m4.67-8.27c.39-1.49,.46-2.98,.15-4.49-.34-1.66-1.1-3.13-2.16-4.44-.65-.8-1.38-1.53-2.25-2.1-.16-.11-.29-.11-.46,0-1.52,1.07-2.78,2.38-3.68,4.03-.93,1.7-1.26,3.51-.98,5.42,.19,1.33,.66,2.56,1.31,3.73,.15,.27,.3,.53,.45,.79l-.04,.04c-.28-.22-.57-.42-.84-.65-1.56-1.37-2.46-3.11-2.89-5.11-.05-.22-.07-.45-.13-.67-.03-.11-.13-.19-.2-.29-.08,.07-.18,.13-.25,.21-.04,.05-.06,.13-.08,.2-.55,1.66-.65,3.35-.23,5.05,.56,2.24,1.83,3.94,3.95,4.94,1.64,.77,3.38,.94,5.16,.67,2.58-.39,4.39-1.8,5.4-4.2,.64-1.52,.77-3.11,.54-4.74-.23-1.6-.8-3.06-1.72-4.38-.05-.07-.1-.14-.16-.2-.04-.03-.12-.07-.15-.05-.04,.02-.06,.1-.06,.15,0,.08,.03,.15,.05,.23,.06,.37,.13,.74,.18,1.11,.07,.63,.02,1.27-.08,1.89-.15,1-.43,1.95-.85,2.87"/><path class="cls-11" d="M269.36,387.33c-5.66,0-10.42-4.61-10.32-10.54,.1-5.57,4.67-10.24,10.55-10.13,5.57,.1,10.23,4.68,10.11,10.56-.11,5.59-4.68,10.11-10.34,10.1m4.67-8.27c.39-1.49,.46-2.98,.15-4.49-.34-1.66-1.1-3.13-2.16-4.44-.65-.8-1.38-1.53-2.25-2.1-.16-.11-.29-.11-.46,0-1.52,1.07-2.78,2.38-3.68,4.03-.93,1.7-1.26,3.51-.98,5.42,.19,1.33,.66,2.56,1.31,3.73,.15,.27,.3,.53,.45,.79l-.04,.04c-.28-.22-.57-.42-.84-.65-1.56-1.37-2.46-3.11-2.89-5.11-.05-.22-.07-.45-.13-.67-.03-.11-.13-.19-.2-.29-.08,.07-.18,.13-.25,.21-.04,.05-.06,.13-.08,.2-.55,1.66-.65,3.35-.23,5.05,.56,2.24,1.83,3.94,3.95,4.94,1.64,.77,3.38,.94,5.16,.67,2.58-.39,4.39-1.8,5.4-4.2,.64-1.52,.77-3.11,.54-4.74-.23-1.6-.8-3.06-1.72-4.38-.05-.07-.1-.14-.16-.2-.04-.03-.12-.07-.15-.05-.04,.02-.06,.1-.06,.15,0,.08,.03,.15,.05,.23,.06,.37,.13,.74,.18,1.11,.07,.63,.02,1.27-.08,1.89-.15,1-.43,1.95-.85,2.87"/><path class="cls-11" d="M264.8,390.25c.32,0,.61,.03,.88,.08,.26,.05,.49,.14,.68,.26,.19,.12,.34,.28,.44,.49,.1,.2,.16,.45,.16,.75,0,.32-.08,.59-.23,.81-.15,.21-.38,.39-.69,.53,.42,.11,.73,.31,.93,.59,.2,.28,.31,.62,.31,1.02,0,.32-.07,.6-.2,.84-.13,.24-.31,.43-.53,.58-.22,.15-.48,.26-.77,.33-.29,.07-.58,.11-.88,.11h-3.27v-6.39h3.18Zm-.19,2.59c.26,0,.48-.06,.65-.18,.17-.12,.26-.31,.26-.58,0-.15-.03-.27-.08-.37-.06-.1-.13-.17-.23-.22-.09-.05-.2-.09-.33-.11-.12-.02-.25-.03-.38-.03h-1.39v1.49h1.5Zm.09,2.71c.14,0,.28-.01,.42-.04,.13-.03,.25-.07,.35-.13,.1-.06,.18-.15,.24-.25,.06-.11,.09-.24,.09-.41,0-.33-.1-.56-.29-.7-.2-.14-.45-.21-.78-.21h-1.62v1.75h1.59Z"/><rect class="cls-11" x="268.28" y="390.25" width="1.48" height="6.39"/><path class="cls-11" d="M271,392.14c.15-.41,.37-.76,.65-1.07,.28-.3,.63-.54,1.05-.72,.41-.17,.88-.26,1.4-.26s.99,.09,1.4,.26c.41,.17,.76,.41,1.04,.72,.28,.3,.5,.66,.65,1.07,.15,.41,.23,.85,.23,1.33s-.08,.9-.23,1.3c-.15,.4-.37,.75-.65,1.05-.28,.3-.63,.53-1.04,.7-.41,.17-.88,.25-1.4,.25s-.98-.08-1.4-.25c-.41-.17-.76-.4-1.05-.7-.28-.3-.5-.65-.65-1.05-.15-.4-.23-.84-.23-1.3s.08-.92,.23-1.33m1.36,2.11c.07,.25,.17,.48,.32,.68,.14,.2,.33,.37,.57,.49,.23,.12,.52,.18,.85,.18s.62-.06,.85-.18c.23-.12,.42-.28,.57-.49,.14-.2,.25-.43,.32-.68,.07-.25,.1-.51,.1-.78s-.03-.55-.1-.81c-.07-.26-.17-.5-.32-.7-.15-.21-.33-.37-.57-.49-.23-.12-.52-.18-.85-.18s-.62,.06-.85,.18c-.23,.12-.42,.29-.57,.49-.15,.21-.25,.44-.32,.7-.07,.26-.1,.53-.1,.81s.03,.53,.1,.78"/><path d="M294.03,390.25c.32,0,.61,.03,.88,.08,.26,.05,.49,.14,.68,.26,.19,.12,.34,.28,.44,.49,.1,.2,.16,.45,.16,.75,0,.32-.08,.59-.23,.81-.15,.21-.38,.39-.69,.53,.42,.11,.73,.31,.93,.59,.2,.28,.31,.62,.31,1.02,0,.32-.07,.6-.2,.84-.13,.24-.31,.43-.53,.58-.22,.15-.48,.26-.77,.33-.29,.07-.58,.11-.88,.11h-3.27v-6.39h3.18Zm-.19,2.59c.26,0,.48-.06,.65-.18,.17-.12,.26-.31,.26-.58,0-.15-.03-.27-.09-.37-.06-.1-.13-.17-.23-.22-.09-.05-.2-.09-.33-.11-.12-.02-.25-.03-.38-.03h-1.39v1.49h1.5Zm.09,2.71c.14,0,.28-.01,.42-.04,.13-.03,.25-.07,.35-.13,.1-.06,.18-.15,.24-.25,.06-.11,.09-.24,.09-.41,0-.33-.1-.56-.29-.7-.2-.14-.45-.21-.78-.21h-1.62v1.75h1.59Z"/><rect x="297.51" y="390.25" width="1.48" height="6.39"/></g></g></g><g class="cls-15"><g><g><path class="cls-7" d="M265.15,211.05c2.23,6,2.23,12.09,.55,18.21-1.59,5.78-4.39,11.06-7.13,16.33-.14,.27-.41,.49-.63,.74-1.22-3.7-2.39-7.33-3.57-10.94-1.12-3.39-2.9-6.43-4.96-9.33-1.41-2.02-2.82-4.08-4.02-6.21-2-3.57-2.45-7.33-.69-11.15,1.59-3.47,5.29-5.19,8.96-4.1,.74,.24,1.33,.22,2.06-.18,2.43-1.35,5.17-.78,6.8,1.57,1.06,1.57,1.96,3.29,2.63,5.06Zm-1.98,23.01c2.25-5.47,3.53-11.13,2.61-17.11-.55-3.65-1.57-7.13-3.7-10.19-1.84-2.63-4.47-2.92-6.96-.78,.76,1.08,1.45,2.23,2.33,3.21,.86,.98,1.94,1.76,2.9,2.65l-.12,.24c-.35-.08-.73-.16-1.18-.25,.25,.96,.53,1.76,.69,2.59,.25,1.31,.41,2.63,1.39,3.67,.22,.24,.2,.67,.33,1.16-.45-.22-.71-.35-1.06-.53-.04,3.8,.18,7.49-.55,11.11-.24-3.08,.04-6.19-.65-9.29-.39,.94-.78,1.9-1.18,2.86l-.35-.12c.33-1.29,.55-2.63,1.06-3.84,.74-1.78,.57-3.49,.1-5.25-.45-1.65-1-3.2-2.43-4.67-.96,2.88-1.86,5.57-2.76,8.25,.02-2.35,.53-4.63,1.47-6.7,.9-1.96,.49-3.41-.94-4.78-.12-.12-.16-.33-.29-.41-.43-.24-.84-.57-1.31-.67-2.8-.49-5.74,1.06-6.98,3.63-1.76,3.65-1.37,7.23,.55,10.64,1.12,2.02,2.51,3.86,3.72,5.82,1.35,2.14,2.84,4.21,3.9,6.49,1.84,3.9,3.29,8,4,12.29,.04,.22,.14,.41,.31,.94,.25-.43,.39-.61,.49-.8,1.55-3.37,3.21-6.7,4.61-10.13Z"/><path class="cls-7" d="M231.36,186.47c-.06-.06-.12-.12-.18-.2-.14-.18-.29-.39-.51-.67-.37,1.16-.67,2.14-1.04,3.29v-1.27c-.8,.59-1,1.23-1,2.04,.02,.98,.06,1.98-.82,2.8,.06-.59,.12-1.2,.18-1.88-.27,.16-.45,.27-.61,.35l.18-.59c.06-.14,.1-.27,.16-.43l.2-.69v-.06c.29-.94,.59-1.88,.84-2.82,.16-.55,.27-1.14,.39-1.72,.06-.29,.14-.61,.2-.92-.39-.35-.73-.69-1.23-1.16,.45-.18,.73-.27,1.16-.45-.59-2.41-1.2-4.82-2.21-7.12-.16-.33-.45-.63-.74-.9-3.18-2.92-6.57-5.59-10.21-7.94-.16-.12-.37-.18-.92-.39,.88,1.72,.69,3.61,2.37,4.68,.12,.69,.25,1.55,.39,2.41l-.04-.06v.06h-.12l-.02-.02c-.25-.02-.53-.1-.65,.02-.33,.33-.53,.78-.8,1.2-.37-.71,.02-1.16,.43-1.65,.41-.53,.45-1.06-.24-1.57-.22,.37-.41,.67-.59,.96-.02,.02-.02,.04-.04,.06-.04-.06-.06-.12-.1-.18-.22-.37-.45-.76-.69-1.2,.1-.02,.33-.1,.67-.22,0-1.88-1.1-3.43-1.69-5.12-.06-.2-.29-.35-.49-.43-2.7-1.14-5.43-2.23-8.13-3.35l.02-.04s-.1,0-.14-.02c-.31-.16-.63-.29-.92-.45-.04,.12-.08,.24-.1,.33,.35,.06,.67,.1,1.02,.12l.12,.06c-.16,.39-.33,.76-.49,1.16h-.02l-.63-.25-.45,.25v.02l-.04,.47-.74,7.29v.04h-.16c.02-1.14-.02-2.27,.08-3.39,.08-.88,.35-1.76,.45-2.65,.12-.82,.18-1.69-1.1-2,.45-.25,.69-.37,1-.55-.1-.51-.2-1.04-.27-1.51,.45-.71,1-.51,1.53-.29,2.41,.96,4.88,1.8,7.25,2.88,1.22,.55,2.39,1.14,3.53,1.84,5.06,3.12,9.76,6.66,13.86,10.94,1.94,2.02,3.61,4.31,5.37,6.49,.31,.39,.61,.8,.96,1.29-.35-7.84-11.55-23.6-19.76-27.91-1.29,1.69-2.14,3.59-2.41,6.1-.33-.39-.55-.57-.67-.73-.04-.06-.08-.1-.1-.16-.65-1.78-1.29-3.59-1.88-5.39-.29-.9-.51-1.84-.69-2.78-.12-.57-.29-1.02-.86-1.33-3.9-2.16-7.94-3.98-12.33-4.86-2.69-.53-5.45-.76-8.17-1.08-5.31-.65-10.57-1.55-15.64-3.29-.2-.06-.43-.1-.57-.14-.88,1.82-1.76,3.61-2.76,5.65-2-2.45-2.55-4.96-2.25-7.84-1.02-.73-2.12-1.49-3.31-2.33-.86,.57-1.67,1.12-2.63,1.76,.27,.31,.41,.53,.59,.69,1.04,.96,1.06,2.12,.45,3.23-.49,.92-1.18,1.76-1.84,2.59-.43,.53-.98,.94-1.47,1.39-1.06,.94-1.71,2.08-1.82,3.49-.04,.53-.18,1.04-.35,1.92-.37-.51-.59-.65-.61-.8-.37-2.51-.78-5-1.02-7.53-.1-1.02,.04-2.14,.35-3.14,.92-2.96,2.63-3.67,5.45-2.35,.65-.57,1.31-1.14,2.04-1.76-1.2-1.47-2.37-2.88-3.49-4.33-1.2-1.59-2.16-3.31-2.41-5.31-.14-.9-.02-1.84,.12-2.78,0,5.21,3.14,8.49,6.8,11.47,.49,.39,.98,.8,1.65,.29,.12-.1,.35-.12,.49-.06,1.74,.57,3.57,1.1,4.82,2.47,.59,.63,1.16,1,1.9,1.18,3.29,.71,6.59,1.43,9.9,2.08,7,1.37,13.98,2.84,20.56,5.76,1.08,.47,2.14,.94,3.47,1.53-.1-.65-.16-1.1-.24-1.55-.2-1.22-.08-2.35,.65-3.39,.86-1.2,1.9-1.31,3-.35,.33,.29,.63,.65,.88,1.02,.27,.35,.49,.74,.69,1.08,.12,.04,.18,.08,.24,.08,4.08-.51,5.12,2.23,4.76,5.45-.12,.98-.51,1.94-.82,3.1,15.11,11.06,22.86,25.87,21.89,45.24,.43-.59,.67-.92,.92-1.25,.82-1.04,1.59-2.18,2.55-3.1,1.69-1.61,3.69-1.76,5.78-.84,3.43,1.49,6.19,5.19,6.78,9.15-.33-.76-.59-1.43-.88-2.08-1.31-2.78-3.21-4.98-6.08-6.29-2.04-.94-3.82-.61-5.39,.96-1.98,1.94-3.23,4.29-3.7,7.04-.43,2.49-.84,5-1.29,7.47-1.39,7.37-5.43,13.09-11,17.9-4.63,4-10.13,6.43-15.9,8.21-3.69,1.14-7.47,2.02-11.39,3.06,3.21,2.37,6.66,4.19,10.96,5.1-.84,.98-1.39,1.74-2.06,2.39-4.49,4.21-9.78,6.47-16.01,6.37-1.88-.02-3.72-.31-5.41-1.12-1.76-.82-3.51-1.76-5.14-2.86-2.33-1.55-4.29-3.45-4.59-6.63-1.71,.16-3.33,.29-4.94,.47-2.45,.29-4.94,.35-7.25,1.35-1.49,.63-3,1.29-4.35,2.16-3.45,2.21-4.43,6.21-2.55,9.88,1.04,2,2.53,3.55,4.37,4.82,1.12,.76,2.18,1.59,3.23,2.43,.73,.61,1.2,1.37,.8,2.37-.39,.96-1.23,1.39-2.47,1.27-1.94-.18-3.59-.98-4.86-2.43-2.55-2.9-4.12-6.25-4.57-10.11-.27-2.29,.31-4.33,1.67-6.19,2.45-3.33,5.76-5.33,9.74-6.17,1.74-.37,3.04-1.12,4.29-2.37,2.43-2.43,5.35-4.08,8.92-4.53,.1-1.71,.92-2.96,2.47-3.69,1.71-.8,3.41-1.04,5.21-.29,2.78,1.16,5.19,2.9,7.61,4.65,3.49,2.53,2.2,2.27,6.59,1.39,8.51-1.72,16.29-5.12,22.99-10.7,8.39-6.96,12.88-15.98,13.94-26.78,.37-3.7,.33-7.41-.14-11.11-.18-1.41-.49-2.74-1.2-4-1.8-3.2-3.98-6.12-6.55-8.74-.1-.1-.27-.16-.61-.33,.53,1.88,1,3.61,1.47,5.27,.41,.18,.76,.29,1.14,.43-.94,1.63,.25,3,.27,4.47-.06-.06-.12-.14-.18-.22l-.02-.02v-.02Zm-1.82,0c.82-1.1,1.23-2.02,.43-3.49-.51,1.27-.96,2.21-.43,3.49Zm-13.51,47.04c10.64-3.78,18.68-14.86,19.23-20.86-1.96,4.43-4.45,8.53-7.78,12.07s-7.25,6.33-11.45,8.78Zm-1.23-78.17c.84-1.76,1.72-3.53,1.47-5.61-.25-2.2-.88-2.8-3.27-2.98-.08,1.53,1.74,1.82,1.98,3.31-.47-.22-.86-.39-1.39-.63v2.18c-.65-.51-1.08-.8-.94-1.69,.18-1-.14-2.06-.86-2.92-1.82,2.29-1.16,7.55,1.37,11.27,.55-1,1.16-1.94,1.65-2.94Zm-5.08-4.84c.27-1.86,.43-3.41,1.71-4.59-.45-.49-.78-.94-1.2-1.31-1.02-.88-1.84-.73-2.29,.57-.57,1.57-.27,3.1,.59,4.47,.22,.33,.69,.51,1.2,.86Zm-2.31,95.77c.18-.16,.24-.45,.37-.74-2.72-.76-5.16-1.9-7.45-3.35-3.18-2-6.37-3.98-9.41-6.23-1.69-1.25-3.65-2.2-5.57-3.08-1.88-.84-3.63-.12-5.17,1.06-.25,.2-.45,.51-.61,.8-.41,.76-.29,1.53,.18,2.21,.45,.65,1,.88,1.88,.74,2.33-.37,4.59,.1,6.76,.98-2.1,.06-4.19-.45-6.37,.12,1.08,.78,2.14,1.57,3.23,2.31,.94,.65,1.92,1,3.14,.92,1.18-.08,2.41,.04,3.78,.98h-3.29c2.39,1.49,4.7,2.08,6.94,2.96-1.29-.04-2.55-.25-3.78-.47-.06,0-.14,.08-.24,.14,.27,.33,.55,.63,.8,.92-.08,.1-.16,.22-.24,.31-3.16-2.2-6.21-4.59-9.86-6.12,1.23,2.16,2.49,4.29,3.72,6.45-1.84-1.71-3.45-3.67-4.21-6-.53-1.63-1.53-2.47-2.74-3.33-2.67,2.55-2.98,6.31-.55,8.94,2.98,3.21,6.63,5.49,11.02,6.02,6.94,.82,12.78-1.65,17.66-6.55Zm-36.05-106.06c3.06,1.88,16.19,4.7,19.5,4.06-6.7-1.39-13.09-2.72-19.5-4.06Zm7.35,96.69c-2.41-.51-7.43,2.53-8.49,5.17,2.06-.29,4.04-.57,5.76-.82,.98-1.57,1.84-2.96,2.72-4.35Zm-7.13-95.14c-.71-.98-1.39-.71-2.12-.43-.12-.63-.24-1.2-1.14-1.02-.25,1.88,.2,3.61,1.25,5.68,.8-1.69,1.43-3.02,2-4.23Zm-4.68-4.76q.71,.73,1.65,.61c-.71-.25-1.18-.43-1.65-.61Zm-2.1,129.45c.45-.88-.31-1.33-.86-1.76-1.06-.84-2.16-1.59-3.23-2.41-3.2-2.41-5.39-5.35-5.17-9.6,.04-.67,.16-1.31,.25-2.18-1.29,1.57-1.43,3.21-1.22,4.9,.45,3.61,1.9,6.76,4.27,9.51,1.02,1.18,2.33,1.9,3.88,2.18,.8,.14,1.63,.25,2.08-.63Zm-3.16-123.43c.69-1.1,.8-2.23-.84-3.21-.96,1.27-1.88,2.47-2.8,3.69-.06-.04-.1-.06-.16-.08,.24-.71,.49-1.41,.73-2.12-.29-.14-.49-.25-1.02-.53,.76-.33,1.23-.47,1.65-.71,.37-.24,.71-.55,1.06-.86-.27-.24-.33-.35-.43-.37-1.57-.29-2.51,.35-3.21,2.21-.88,2.39-.06,4.67,.29,6.74,1.06-.9,2.14-1.72,3.1-2.67,.63-.61,1.18-1.35,1.65-2.1Z"/><path d="M231.79,190.17s-.04-.04-.06-.04l-.27-2.76c0-.22,.02-.43,.1-.63,.08,1.06,.14,2.12,.24,3.43Z"/><path class="cls-7" d="M231.46,187.37l.27,2.76c-.24-.2-.35-.29-.53-.43-.12,.53-.25,1.04-.35,1.55-.27,1.8-.67,3.55-2.35,4.7,.59-1.53,.53-3.23,1.51-4.67,.41-.61,.47-1.43,.71-2.27,.92-.2,.74-.94,.74-1.65Z"/><path d="M231.66,196.19v2.35s-.1-.04-.14-.04c.12-1.12,.12-1.74,.12-2.12v-.2h.02Z"/><path d="M231.64,196.19v.2c0,.37,0,1-.12,2.12t-.04-.02v-2.29h.16Z"/><polygon points="231.36 186.49 231.38 186.51 231.36 186.51 231.36 186.49"/><path class="cls-7" d="M230.19,203.83c-.06,1.25-.45,3.25-.96,5-.02,.04-.04,.08-.04,.1-.31,.86-.69,1.76-.96,2.43-.04,.1-.1,.22-.16,.31,.14-.9,.22-1.63,.33-2.33-.08-.02-.14-.04-.22-.06-.22,.51-.45,1.02-.82,1.86-.02-1.82,.82-4.02,1.51-4.92,.55-.74,.92-1.65,1.31-2.39Z"/><path d="M228.23,211.36c.27-.67,.65-1.57,.96-2.43-.33,1.2-.74,2.27-1.14,2.9,0-.06,.02-.12,.02-.16,.06-.1,.12-.22,.16-.31Z"/><path d="M227.91,189.23l-.2,.69c-.06,.16-.1,.29-.16,.43l.35-1.12Z"/><path class="cls-7" d="M227.74,213.22c-.61,.51-1.23,1.02-1.84,1.51l.67-.69c.27-.33,.57-.73,.82-1.14,.12,.1,.24,.22,.35,.31Z"/><path d="M227.38,190.94s-.02,.06-.02,.08l-.02-.02v-.04s.02,0,.04-.02Z"/><path d="M224.89,215.48c.82-.86,1.67-1.72,2.49-2.57-.25,.41-.55,.8-.82,1.14l-.67,.69c-.31,.27-.63,.53-.94,.78-.02-.02-.04-.04-.06-.04Z"/><path d="M227.36,191.01s-.04,.06-.06,.08v-.04s.02-.04,.04-.06l.02,.02Z"/><path d="M227.34,190.96v.04l-.02-.02s.02,0,.02-.02Z"/><path d="M227.34,190.99s-.02,.04-.04,.06c.02-.02,.02-.06,.02-.08l.02,.02Z"/><path d="M227.28,191.11s.02,0,.02-.02c-.16,.84-.29,1.71-.45,2.55-.06-.27-.1-.57-.1-.84,.12-.51,.27-1.02,.47-1.51l.06-.18Z"/><path d="M227.28,191.11l-.06,.18c-.2,.49-.35,1-.47,1.51-.02-.61,.12-1.18,.53-1.69Z"/><path class="cls-7" d="M227.21,195.54c.2,.12,0,1.22-.24,1.76-.35,.76-.82,1.47-1.37,2.37,.18-.71,.31-1.45,.43-2.18l.27-2.08,.04-.16c.02-.22,.06-.41,.1-.63,.06-.35,.27-.63,.41-.96-.12,.65-.61,1.29,.35,1.86Z"/><path class="cls-7" d="M226.36,201.58q.39,1.1-.41,2.1c.16-.84,.25-1.35,.41-2.1Z"/><path d="M226.3,195.42l-.27,2.08c-.12,.73-.25,1.47-.43,2.18-.1,.16-.22,.31-.31,.49,.24-.73,.41-1.16,.49-1.61,.2-1.06,.35-2.1,.53-3.14Z"/><path class="cls-7" d="M225.38,210.77c-.12,.37-.22,.73-.33,1.1-.12-.04-.24-.08-.35-.1l.29-1.12c.14,.04,.25,.08,.39,.12Z"/><path class="cls-7" d="M225.21,205.77c.35,1.1,.12,2.06-.84,2.78,.27-.94,.55-1.86,.84-2.78Z"/><path class="cls-7" d="M225.17,201.34v2.35c-.06-.02-.12-.02-.16-.02,.04-.71,.1-1.41,.16-2.33Z"/><path class="cls-7" d="M223.74,205.83c-.02,.14-.04,.29-.06,.43-.14,.47-.24,.94-.33,1.43l-.02,.08c.04-.67,.08-1.31,.12-1.98,.1,.02,.2,.02,.29,.04Z"/><path d="M223.68,206.26c-.04,.22-.06,.43-.08,.65-.14,.9-.25,1.8-.37,2.7,.04-.61,.06-1.23,.1-1.84l.02-.08c.1-.49,.2-.96,.33-1.43Z"/><path class="cls-7" d="M221.89,216.3c.1,.2,.18,.37,.29,.67,.35-.92,.63-1.65,.9-2.37,.1,.02,.18,.04,.25,.06-.16,.9-.33,1.78-.51,2.76,.22-.12,.37-.18,.51-.24,.1-.04,.2-.1,.31-.16,0,.08,.04,.2,0,.24l-2.18,2.94c-.47,.65-.94,1.29-1.43,1.96-.12-.08-.25-.16-.39-.24,.2-.39,.31-.88,.61-1.18,1.1-1.06,1.33-2.41,1.37-3.82,.02-.27,.04-.53,.08-.98,.06,.14,.12,.24,.18,.33v.02Z"/><path d="M223.6,206.91c-.16,.98-.27,1.96-.39,2.94,0-.08,.02-.16,.02-.24,.12-.9,.24-1.8,.37-2.7Z"/><path d="M223.17,209.95s.02-.04,.04-.06c-.04,.12-.1,.24-.16,.35l.12-.29Z"/><path class="cls-7" d="M223.17,209.95l-.12,.29c-.06,.2-.14,.37-.12,.53,.14,1.35-.24,2.57-.82,3.76,.12-.8,.29-1.8,.51-2.94l.25-1.35,.29-.29Z"/><path d="M222.87,210.24l-.25,1.35c-.22,1.14-.39,2.14-.51,2.94-.06,.08-.1,.18-.14,.25,.22-1.39,.41-2.78,.69-4.18,.02-.12,.12-.25,.22-.37Z"/><path class="cls-7" d="M217.99,173.78c.27,1.25,.37,2.55,.29,3.84l-.06,.9c-.02,.29-.04,.59-.1,.9,.16-1.41,.22-2.84-.1-4.31-.88,1.33-.96,3.25-3.04,3.82,.59-1.06,.67-2.2,1.63-2.92,.65-.49,.55-1.45,1.29-1.94,.06-.04,.08-.16,.08-.29Z"/><path class="cls-7" d="M218.29,177.63c.08-1.29-.02-2.59-.29-3.84v-.06c0-.25-.08-.61-.1-.88h.02c.88,2.86,.98,5.74-.02,8.6,.08-.61,.16-1.22,.22-1.82,.02-.08,.02-.14,.02-.2,.06-.31,.08-.61,.1-.9l.06-.9Z"/><path d="M217.9,172.78l.04,.06h-.02s-.02-.04-.02-.06Z"/><path d="M217.9,172.78s.02,.04,.02,.06h-.02v-.06Z"/><path class="cls-7" d="M216.92,183.43c-.04,.24-.1,.47-.14,.69l-.02,.08-.33,.92c-.39,1-.82,1.9-1.27,2.72-.16,.27-.33,.53-.51,.78,.08-.39,.2-.86,.35-1.49-.49,.55-.76,.84-1.02,1.14,.31-1.12,.37-2.29,1.57-3,.61-.35,.92-1.22,1.37-1.84Z"/><path d="M216.43,185.11l.33-.92c-.41,1.78-1.04,3.49-2.23,4.92,.04-.16,.08-.31,.12-.49,.18-.25,.35-.51,.51-.78,.45-.82,.88-1.72,1.27-2.72Z"/><path class="cls-7" d="M215.92,171.79c.16,1.8-.88,3.29-1.1,5.21-.76-.57,.02-1.45-.61-1.74l.53-.86,.59-1.55c.18-.33,.37-.67,.55-1,.02-.02,.02-.04,.04-.06Z"/><path d="M215.33,172.84l-.59,1.55-.53,.86c-.06-.02-.12-.04-.2-.06,.43-.78,.88-1.57,1.31-2.35Z"/><path class="cls-7" d="M213.76,178.7c.06,.02,.02,.73-.18,.96-.41,.51-.94,.9-1.43,1.35,.08-.29,.16-.57,.22-.86l.02-.06,.27-.86c.08-.27,.16-.69,.24-1.12,.1-.33,.2-.69,.27-1.04,.02-.02,.02-.04,.02-.06,.14,.57-.37,1.35,.57,1.69Z"/><path d="M212.39,180.1c.18-.65,.35-1.31,.51-1.98-.08,.43-.16,.84-.24,1.12l-.27,.86Z"/><path class="cls-7" d="M211.68,185.02c.25,1.08,.27,1.08-.86,1.76,.27-.55,.55-1.12,.86-1.76Z"/><path class="cls-7" d="M209.7,190.62l-.41,2.06-.88,.59-.27-.76,.18-.76c.08,.1,.16,.22,.27,.37,.35-.59,.65-1.08,.94-1.55l.18,.06Z"/><path class="cls-7" d="M208.41,193.27l.88-.59v.04c-.98,.94-1.96,1.86-2.94,2.78l-.24-.18c.02-.14,0-.35,.08-.41,1.23-.8,1.76-2,1.94-3.39,.06,.06,.1,.14,.18,.22l-.18,.76,.27,.76Z"/><path class="cls-7" d="M209.17,187.9c.24,1,.24,1.92-.59,2.59l.59-2.59Z"/><path class="cls-7" d="M209.15,187.8s.02,.06,.02,.1l-.59,2.59c-.1,.08-.2,.16-.31,.24,.29-.98,.59-1.94,.88-2.92Z"/><path d="M206.68,170.73v5.57h-.14v-.61l.04-4.96h.1Z"/><path d="M206.59,170.73l-.04,4.96v-4.96h.04Z"/><path class="cls-7" d="M206.31,166.9v2.31h-.16c.06-.76,.1-1.55,.16-2.31Z"/><path d="M206.27,166.73s.02,.06,.04,.08l-.02,.02s0-.06-.02-.1Z"/><path class="cls-7" d="M206.27,166.73s.02,.06,.02,.1c-.78,.71-.8,1.71-.78,2.63,.02,1.55-.78,2.69-1.78,3.8,.29-1.27,.57-2.55,.92-3.8,.35-1.18,.8-2.31,1.23-3.53,.14,.29,.27,.55,.39,.8Z"/><path d="M206.15,179.12c-.35,2.27-.71,4.57-1.06,6.84-.06-.02-.1-.02-.16,0v-.02c.06-.14,.1-.27,.14-.41,0-.02-.02-.04-.02-.06,.02,.02,.04,0,.06-.02l1.04-6.33Z"/><path class="cls-7" d="M206.15,179.12l-1.04,6.33s-.04,.04-.06,.02c-.1-.24-.14,.1,0,0,0,.02,.02,.04,.02,.06-.04,.14-.08,.27-.14,.41h-.14c-.02-.59-.04-1.18-.1-2.1-.27,.82-.45,1.33-.65,1.84-.33-2.55,1.35-4.39,2.1-6.57Z"/><path d="M205.47,161.32l-.02,.04-.12-.06s.1,.02,.14,.02Z"/><path class="cls-7" d="M205.27,163.38l.08,.2c-.43,1.27-.82,2.39-1.16,3.41-.35-.92-.1-1.8,.22-2.69,.22-.55,.43-1.1,.55-1.69,.14,.27,.24,.55,.31,.76Z"/><rect x="204.96" y="162.51" width=".02" height=".02"/><path d="M204.98,162.53s0,.02-.02,.04v-.04h.02Z"/><path d="M204.96,162.53v.02h-.02v-.02h.02Z"/><path d="M204.96,162.55v.02l-.02-.02h.02Z"/><path d="M204.94,162.51h-1.08l.45-.25,.63,.25Z"/><path class="cls-7" d="M203.86,162.53c-.02,.16-.02,.31-.04,.47l.04-.47Z"/><path class="cls-7" d="M203.82,163c-.14,2.45-.29,4.88-.45,7.35-.1-.02-.2-.02-.29-.02v-.04l.74-7.29Z"/><path class="cls-7" d="M202.8,178.51c-.08,.47-.18,.94-.27,1.41-.14-.04-.29-.06-.43-.1,.12-.47,.24-.94,.33-1.41,.14,.04,.25,.06,.37,.1Z"/><path class="cls-7" d="M202.59,173.2c.63,1.04-.27,1.72-.86,2.49,.12-.73,.22-1.43,.31-2.16,.02-.12,.06-.25,.1-.37,.16,0,.31,.02,.45,.04Z"/><path class="cls-7" d="M202.16,186.09c-.06,.33-.1,.65-.16,.98-.1-.02-.2-.02-.29-.04,.04-.31,.08-.65,.1-.98,.12,.02,.24,.02,.35,.04Z"/><path d="M202.14,173.16c-.04,.12-.08,.25-.1,.37,.02-.12,.04-.25,.06-.37h.04Z"/><path class="cls-7" d="M201.74,181.64q.27,1.53-.67,2.78c.2-.82,.39-1.67,.67-2.78Z"/><path class="cls-7" d="M200.71,192.15s.04,.06,.06,.08c0,.04-.12,.18-.18,.27-.74,1.35-1.49,2.7-2.37,4.33-.33-1.08,.22-1.57,.53-2.06,.41-.65,.59-1.27,.61-2.04,.06-1.39,.14-2.8,.24-4.19,.06-.78,.12-1.55,.18-2.33,.08-.16,.18-.31,.25-.47-.14,1.59-.27,3.2-.37,4.78-.02,.29,.04,.59,.25,.9,.2-.59,.39-1.2,.61-1.86,.59,.9-.51,1.8,.2,2.59Z"/><path d="M200.23,183.53v1.74c-.06-.8-.12-1.61-.2-2.41,.08,0,.14-.02,.2-.02v.69Z"/><path d="M200.08,185.55c-.04,.06-.06,.1-.06,.16v.04c-.08,.16-.18,.31-.25,.47,.02-.22,.18-.45,.31-.67Z"/><path class="cls-7" d="M176.67,189.54c.12,8.66-1.98,16.88-6.45,24.27-4.55,7.55-11.58,11.74-20.21,13.29-1.59,.29-3.21,.39-4.84,.59-4-.02-7.68-.94-10.88-3.47-1.94-1.57-3.16-3.53-3.9-5.94-1.12-3.57-1.23-7.29-1.9-10.94-.51-2.78,0-5.61,.47-8.37,.86-5.1,2.25-10.08,4.25-14.86,1.98-4.76,5.08-8.72,8.94-12.09,.76-.65,1.67-1.14,2.51-1.69,1.04-.67,2.2-1.22,3.1-2,3.49-3.06,7.43-3.33,11.49-1.72,5.76,2.29,10.58,5.92,14.11,11.07,2.43,3.55,3.25,7.64,3.31,11.86Zm-1.43,1.88c.22-6.63-1.49-12.58-6.66-17.15-.27-.24-.57-.41-.86-.61-.02,.43,.08,.74,.27,.98,.61,.73,1.39,1.35,1.86,2.16,.51,.84,.86,1.8,1.04,2.76,.06,.37-.45,1.04-.86,1.23-.25,.14-.92-.25-1.22-.59-1.86-2.16-2.82-4.82-3.76-7.45-.25-.73-.57-1.14-1.2-1.45-1.08-.51-2.04-1.14-2.76-2.14-.29-.39-.86-.57-1.16-.74-.69,1.27-1.22,2.37-1.86,3.39-1,1.53-1.2,3.08-.63,4.82,.47,1.49,.82,3.02,1.18,4.55,.55,2.43-1,5.57-3.23,6.64-.16,.08-.31,.14-.49,.18-1.2,.31-2.02-.45-1.74-1.67,.1-.43,.35-.82,.57-1.22,.53-.86,1.06-1.72,1.63-2.55,.69-1,.8-1.9-.08-2.9-.96-1.08-1.23-2.41-.86-3.78,.41-1.51,.92-3,1.41-4.49,.67-2.12,.41-2.74-1.78-3.96-.57,1.16-1.14,2.29-1.71,3.45-.41,.8-.69,1.72-2,2.04,.59-1.61,1.45-2.92,.94-4.67-.47,.47-.84,.78-1.16,1.16-2.43,2.92-4.21,6.23-5.27,9.9-.67,2.27-.88,4.61-.43,7,.57,2.94-.14,4.25-2.78,5.8-.47,.29-.98,.61-1.29,1.04-.76,1.02-1.47,2.1-2.12,3.21-.31,.57-.61,1.25-.59,1.88,.16,3.55-1.22,6.82-1.8,10.25-.1,.55-.22,1.25-1.1,1.29-.51-.76-.43-1.59-.29-2.43,.24-1.39,.49-2.76,.69-4.16,.1-.76-.12-1.47-.63-2.16-.8,1.96-1.45,3.92-2.02,5.9-.86,2.94-1.12,5.98-.92,9.02,.14,2.16,.67,4.19,2.39,5.82,.35-.29,.65-.53,.92-.8,.35-.35,.65-.78,1.02-1.12,.43-.41,.94-1.1,1.55-.63,.39,.29,.55,1.06,.59,1.61s-.16,1.12-.33,1.63c-.67,1.72-.18,2.55,1.59,2.65,.63-.39,.63-1.51,1.61-1.69,.1,.37,.18,.67,.35,1.31,.82-1.08,1.47-1.9,2.23-2.9,.69,2.02-.74,2.8-1.9,4.02,1,.1,1.72,.18,2.37,.24,.16-.27,.24-.37,.25-.47,1.86-5.7,5.29-9.88,11.07-12.07,4.68-1.78,7.45-5.49,8.98-10.13,.8-2.41,1-4.94,.88-7.49-.08-1.29-.14-2.59,.04-3.86,.2-1.45,1.08-2.06,2.51-1.82,2.65,.43,3.65,1.53,3.37,4.08-.1,.76-.37,1.53-.59,2.27-.24,.86-.57,1.71-.74,2.59-.8,3.84-2.16,7.39-4.49,10.62-2.51,3.47-4.45,7.27-5.74,11.39-.08,.27-.12,.57-.18,.98,2.72-1.31,4.76-3.02,5.63-5.88,.2-.63,.63-1.2,1.02-1.72,.16-.22,.51-.27,1.04-.53-.39,1.02-.67,1.72-.94,2.43,1.76-1.33,2.94-3.1,3.9-5.02,3.14-6.31,5.06-12.98,5.29-20.05Zm-31.66-16.01c.82-.76,2.02-2.9,2.2-3.98-1.63,.69-3.02,1.67-4.06,2.98-.84,1.08-1.65,2.35-1.88,3.65-.25,1.27-.61,2.33-1.41,3.33-.67,.82-1.23,1.72-1.88,2.59-.82,1.12-1.25,2.35-1.31,3.74-.08,1.61-.63,3.06-1.39,4.45-.98,1.78-2.04,3.51-2.78,5.39-1.39,3.57-1.61,7.29-.88,11.07,.02,.08,.12,.16,.24,.29,.08-.25,.18-.45,.22-.67,1.16-5.16,3.04-9.96,6.31-14.19,.39-.51,.59-1.39,.49-2.04-.25-1.59,.18-2.98,.71-4.41,.78-2.1,2.14-3.86,3.61-5.45,1.18-1.29,1.67-2.7,1.9-4.35-.43,.39-.8,.74-1.27,1.22-.18-2.04,.02-2.53,1.22-3.63Zm-2.12,15.15c1.29-.74,1.84-1.86,1.63-3.35-.16-1.14-.33-2.29-.53-3.67-3.1,3.45-4.27,6.49-3.29,8.21,.73-.39,1.47-.78,2.2-1.2Z"/><path class="cls-7" d="M173.3,184.35c.78,.88,.14,1.57-.18,2.45-.86-1.33-.84-1.51,.18-2.45Z"/><path class="cls-7" d="M172.34,201.28c.35,.65-.04,.96-.63,1.41-.47-.76-.45-1.23,.2-1.53,.1-.04,.37,.02,.43,.12Z"/><path class="cls-7" d="M161.17,175.67c.14,1.39,1.08,2.63,0,4-1.06-1.06-1.06-2.69,0-4Z"/><path class="cls-7" d="M158.46,202.44c.33,1.57-.41,2.37-.94,3.25-.06,.12-.49,.2-.57,.12-.16-.16-.33-.49-.27-.67,.37-.9,.76-1.8,1.78-2.7Z"/><path class="cls-7" d="M157.82,187.37c.2,.04,.33,.33,.49,.51-.2,.16-.39,.43-.57,.43-.2,0-.37-.27-.69-.55,.35-.2,.59-.43,.76-.39Z"/><path class="cls-7" d="M155.86,190.94c.84,.22,.94,.96,.78,1.63-.25,1.14-.45,2.2-.27,3.41,.2,1.41-1.41,2.94-3.33,3.47,.08-.49,.06-.94,.24-1.27,.55-.92,.49-1.9,.55-2.9,.08-1.16,.33-2.31,.65-3.43,.16-.61,.65-1.1,1.39-.9Z"/><path class="cls-7" d="M150.9,210.16c.25-.55,.63-.74,1.18-.31-.02,.67-.35,.9-.96,.71-.1-.04-.25-.31-.22-.39Z"/><path class="cls-7" d="M145.57,192.43c.16,.06,.29,.1,.45,.16-.06,.39-.04,.8-.2,1.16-.37,.8-.8,1.57-1.25,2.31-.12,.2-.47,.39-.67,.33-.2-.04-.35-.35-.47-.59-.06-.12-.04-.35,.04-.47,.65-1.02,1.18-2.1,2.1-2.9Z"/><path class="cls-7" d="M92.94,163.96c-.02-.08-.06-.16-.08-.24,.06-.14,.27-.65,.53-1.22-.18-.31-.39-.69-.63-1.1-.18,.04-.33,.04-.49,.12-2.12,.86-4.23,1.78-6.37,2.63-1.23,.51-2.04,1.27-2.39,2.59-.33,1.18-.82,2.31-1.25,3.53,.45,.16,.73,.27,1.04,.37-.25,.29-.47,.55-.69,.8-.04,.02-.06,.06-.1,.08-.08-.04-.16-.08-.24-.1-.16-.08-.33-.16-.49-.18-.27-.08-.55-.04-.84,.2h-.02c0-.06-.04-.1-.06-.14-.14-.24-.27-.45-.41-.67,1.23-.55,1.8-1.67,2.29-4.82-1.98,1.39-3.82,2.63-5.57,3.98-1.61,1.22-3.08,2.59-4.65,3.84-1.02,.8-1.67,1.8-2,3.02-.55,1.86-1.12,3.72-1.67,5.61,.45,.16,.74,.25,1.06,.35-.08,.24-.1,.45-.2,.51-.2,.14-.41,.27-.59,.45-.16,.14-.25,.31-.29,.55,0,.08,0,.18,.02,.27h-.02v-.02c-.2-.31-.39-.67-.71-1.2-.69,1.45-.27,2.41,.71,3.67v-2.43h.02c.27,.92,.55,1.86,.82,2.78l.16,.59,.61,2.2c-.04,.86-.12,1.72-.2,2.76-.22-.35-.47-.57-.51-.82-.12-.71-.18-1.45-.18-2.18-.02-.82-.02-.8-1.14-1.57-.14-.1-.14-.37-.22-.55-.24-.55-.47-1.1-.76-1.8-.29,.47-.51,.8-.69,1.1,0-.14,.02-.25,.04-.39,.02-.08,.02-.14,.04-.22,.18-.74,.35-1.47,.45-2.21l.04-.25c.04-.41-.2-.9-.33-1.45,.8-.06,1.2-.61,1.37-1.45,.29-1.35,.73-2.69,.88-4.19-.71,.73-1.41,1.45-2.12,2.2-.2,.2-.37,.41-.55,.65-5.45,7.19-5.66,7.61-5.78,16.48-.12,9.39,2.45,17.99,8.21,25.5,4.27,5.57,9.84,9.51,16.09,12.53,4.84,2.33,9.94,3.8,15.23,4.76,1.12,.22,1.94-.22,2.78-.82,2.08-1.45,4.14-2.9,6.23-4.29,.84-.55,1.82-.9,2.7-1.35,1.59-.82,3.18-.63,4.74-.02,1.76,.67,2.92,1.84,3.02,3.92,3.02,.37,5.74,1.53,7.84,3.63,2.04,2.02,4.33,3.12,7.08,3.78,2.96,.73,5.37,2.51,7.37,4.82,2.18,2.47,2.84,5.29,2.16,8.47-.67,3.08-2,5.82-3.98,8.27-1.41,1.76-3.27,2.67-5.51,2.9-.94,.1-1.78-.37-2.18-1.22s-.18-1.61,.45-2.16c1.12-.94,2.25-1.86,3.45-2.69,1.84-1.27,3.37-2.8,4.41-4.78,1.02-1.94,1.2-3.98,.67-6.06-.37-1.47-1.25-2.63-2.49-3.51-2.67-1.9-5.59-3.1-8.82-3.51-2.72-.35-5.47-.63-8.19-.92-.14,.2-.27,.31-.29,.45-.18,1.98-1.22,3.49-2.65,4.74-6.31,5.63-13.39,6.96-21.27,3.78-3.08-1.23-5.66-3.18-7.94-5.57-.35-.39-.65-.84-1.14-1.51,4.12-.98,7.59-2.7,11-5.23-1.25-.27-2.27-.51-3.27-.73-5.9-1.25-11.64-3.02-17.03-5.74-7.27-3.67-12.74-9.13-16.27-16.48-1.37-2.88-1.88-6-2.45-9.09-.29-1.53-.47-3.12-.74-4.65-.47-2.63-1.69-4.88-3.57-6.76-1.76-1.76-3.43-2.02-5.68-.98-2.55,1.2-4.31,3.18-5.61,5.63-.25,.49-.47,.96-.82,1.67,0,.02,0,.04-.02,.06s-.04,.06-.06,.1c.61-4.08,4.53-8.21,8.15-8.84,1.29-.22,2.53,.04,3.49,.86,1.02,.86,1.9,1.9,2.78,2.9,.43,.51,.71,1.14,1.31,1.72,0-.57,0-1.14,.02-1.71,.1-3.14-.08-6.33,.41-9.41,.88-5.63,2.65-11.04,5.37-16.07,3.63-6.63,8.62-12.04,14.56-16.6,.53-.41,1.06-.82,1.59-1.22-.27-.9-.61-1.71-.71-2.53-.12-.98-.2-2.02-.02-2.98,.39-2.25,1.45-3.04,3.72-3.06h1.02c.49-.65,.94-1.37,1.51-1.98,1.25-1.27,2.53-1.04,3.41,.53,.53,.98,.59,2.02,.41,3.12-.08,.41-.14,.86-.22,1.41,.39-.14,.67-.22,.9-.33,6.53-3.16,13.47-5,20.54-6.39,4.18-.82,8.35-1.76,12.53-2.63,.78-.16,1.27-.71,1.88-1.18,1.63-1.22,3.29-2.67,5.65-2.23,.33,.06,.76-.08,1.04-.27,2.49-1.8,4.57-4,5.96-6.78,.74-1.49,.98-3.08,.9-4.78,.51,.96,.57,1.29,.39,2.47-.31,1.98-1.14,3.76-2.35,5.35-1.14,1.51-2.37,2.98-3.61,4.53,.63,.57,1.29,1.16,1.9,1.71,.18,0,.29,.04,.39,0,2.29-1.12,3.67-.69,4.82,1.55,.65,1.23,.9,2.55,.73,3.92-.29,2.57-.69,5.12-1.06,7.66-.02,.14-.16,.27-.27,.43-.69-.18-.59-.8-.61-1.23-.12-1.8-1.02-3.14-2.33-4.31-.8-.71-1.57-1.47-2.2-2.33-1.45-1.98-1.37-3.06,.27-5.06-.41-.33-.8-.69-1.23-1-1.25-.86-1.27-.86-2.51,.02-.35,.25-.73,.53-1.1,.78-.31,.22-.65,.43-.98,.65,.27,2.8-.25,5.35-2.21,7.86-1-1.96-2.23-3.55-2.57-5.63-.33,.06-.61,.1-.86,.18-6.27,2.14-12.76,3.1-19.31,3.7-6,.55-11.47,2.59-16.68,5.43-.63,.35-.82,.8-1,1.45-.35,1.41-.82,2.78-1.25,4.18-.37,1.18-.78,2.33-1.18,3.51-.12,.33-.29,.65-.76,.98-.29-.96-.49-1.98-.9-2.9-.39-.98-1-1.88-1.49-2.8-7.33,2.9-18.68,18.74-19.99,27.97,6.33-8.86,14.01-15.74,23.36-20.37,2.37-1.18,4.86-2.21,7.47-3.1,.49-.16,1.06-.14,1.8-.24-.14,.76-.22,1.29-.31,1.88,.24,.16,.49,.31,.74,.49-.04,.12-.04,.27-.1,.29-.61,.22-.9,.63-.78,1.29l.59,3.47c.1,.55,.51,1.1,.25,1.67-.06,.14-.18,.27-.33,.41s.08,.73,.14,1.16c-.57-.49-.53-.49-.61-2.49-.04-.88-.37-1.76-.33-2.63,.04-.94,.18-1.84-.2-2.9-.98,.59-.78,1.29-.47,1.92,.45,.88,.55,1.76,.25,2.53-.31-.84-.65-1.82-1.08-3.08Zm50.75,90.07c.02-1.2-.35-2.31-1.16-3.31,0,1.59,.22,3.12-.04,4.57-.59,3.21-2.65,5.49-5.23,7.33-1.14,.82-2.25,1.67-3.35,2.55-.43,.33-.84,.78-.51,1.43,.29,.59,.8,.73,1.41,.71,1.53-.06,2.9-.59,3.94-1.67,3.16-3.21,4.9-7.06,4.94-11.6Zm-1.74-109.69c.22-1.67-.14-3.23-1.18-4.59-.78-1.04-1.41-1.14-2.88-.39,.39,.31,.71,.59,1.06,.8,.39,.24,.82,.37,1.2,.59,.1,.06,.12,.27,.18,.41-.14,.06-.24,.08-.33,.12-.14,.04-.25,.06-.39,.1,.27,.8,.53,1.53,.78,2.25-1.06-1.25-1.82-2.61-3.1-3.55-1.33,1.12-1.51,1.59-.82,2.86,.41,.78,.96,1.53,1.59,2.14,1.02,1.02,2.16,1.92,3.29,2.9,.2-1.1,.45-2.37,.61-3.65Zm-10.23-7c-.04-.1-.08-.22-.14-.31-.59,.25-1.18,.49-1.78,.74,.06,.12,.12,.25,.18,.37,.59-.25,1.16-.53,1.74-.8Zm-3.14,8.64c1.31-2.18,1.63-4.02,.96-5.74-.37,.43-.65,.76-1,1.16-.61-.29-1.27-.37-1.9,.61,.59,1.2,1.23,2.53,1.94,3.98Zm-1.39-5.68c-6.72,1.39-13.45,2.8-20.15,4.19v.37c6.88-.78,13.72-1.78,20.15-4.57Zm-4.47,101.2c1.76,.27,3.53,.49,5.33,.73-1.16-2.69-6.23-5.72-8.47-5.12,.76,1.33,1.47,2.61,2.23,3.82,.18,.27,.57,.51,.9,.57Zm-4.02,6.35c1.78-1.61,2.45-3.59,2.33-5.9-.1-1.63-.92-2.9-2.12-3.98-.63,.49-1.18,.88-1.67,1.33-.27,.25-.59,.57-.67,.92-.55,2.43-2.16,4.27-3.57,6.21-.2,.27-.49,.47-.74,.71,.47-1.16,1.12-2.14,1.67-3.18s1.37-1.98,1.51-3.27c-2.31,1.35-4.47,2.84-6.66,4.27-.98,.65-1.98,1.25-2.98,1.86-.04,.02-.14-.1-.24-.16,.25-.27,.49-.55,.86-.96-1.45,.2-2.7,.35-3.96,.53l-.06-.35c2.35-.69,4.74-1.29,7.08-2.92h-2.86c.57-.41,1.18-.61,1.8-.67,.94-.1,2,.18,2.82-.16,1.84-.74,3.41-1.96,4.8-3.61-2,.1-4.02,.22-6.02,.33,2.12-.9,4.27-1.37,6.55-1.02,1.12,.16,1.71-.24,2.12-1.22,.41-1.02,.1-2.06-.94-2.78-1.61-1.1-3.37-1.55-5.25-.71-.98,.43-1.96,.84-2.86,1.41-3.43,2.23-6.82,4.53-10.23,6.8-2.59,1.71-5.23,3.25-8.25,4.1-.25,.08-.47,.22-.82,.39,.35,.41,.61,.78,.92,1.08,2.18,1.98,4.53,3.7,7.29,4.76,7.53,2.88,14.19,1.45,20.15-3.84Zm-30.23-97.34c1.8-.9,2.63-3.65,1.72-5.37-.59-1.14-1.23-1.27-2.21-.37-.43,.39-.76,.88-1.16,1.35,1.27,1.25,1.37,2.78,1.65,4.39Zm-1.86,4.84c.78-2.02,1.08-4.12,.76-6.27-.12-.71-.16-1.55-1.22-1.94-.24,.96-.55,1.8-.67,2.67s-.2,1.27-.78,1.96c-.06-.73-.1-1.41-.16-2.14-.51,.22-.86,.39-1.23,.55-.04-.08-.1-.16-.14-.24,.74-.92,1.49-1.84,2.45-3.02-2.67,.1-3.39,.69-3.65,2.69-.1,.76-.12,1.59,.06,2.33,.55,2.39,1.8,4.47,3.16,6.64,.53-1.18,1-2.2,1.41-3.23Zm-4.59,78.21c-1.61-1.02-3.25-2-4.8-3.1-1.55-1.12-3.06-2.31-4.45-3.61-1.43-1.33-2.8-2.78-4.02-4.31-1.2-1.47-2.25-3.08-3.23-4.72-.94-1.57-1.71-3.25-2.55-4.88,1.06,6.7,8.68,16.74,19.05,20.62Z"/><path class="cls-7" d="M139.16,206.85c.35-.8,.74-1.74,2.12-1.72-.18,1.47-.35,2.84-.55,4.21-.02,.16-.1,.39-.22,.45-1.57,.82-1.9,2.53-2.74,3.88-.31,.49-.65,.96-.96,1.45-.2-.08-.39-.16-.57-.24,.14-.61,.22-1.25,.43-1.82,.8-2.08,1.59-4.18,2.49-6.21Z"/><path class="cls-7" d="M98.9,194.37c.74,.53,1.08,1.31,1.18,2.23-.65-.59-1.23-1.2-1.27-2.16l.1-.08Z"/><path class="cls-7" d="M97.96,193.07s-.04-.06-.04-.08c-.24-.96-.27-1.96-.2-3.02,.2,.55,.39,1.12,.59,1.67,.1-.02,.18-.02,.25-.04l-.1-1.94c.14,.82,.39,3.51,.43,4.7l-.1,.08c-.29-.45-.71-.88-.84-1.37Z"/><path d="M98.45,189.54s.02,.06,.02,.1c-.02-.1-.04-.18-.06-.2,.02,.04,.04,.06,.04,.1Z"/><path d="M98.45,189.54s-.02-.06-.04-.1l.04-.04v.14Z"/><path d="M98.41,188.99c.02,.14,.02,.27,.04,.41l-.04,.04v-.45Z"/><path d="M98.41,188.54v.45c-.1-1.04-.22-2.08-.29-3.12,.06-.02,.1-.02,.16-.02l.14,2.69Z"/><path d="M98.41,185.86v2.69l-.14-2.69h.14Z"/><path d="M98.07,183.94v.57h-.1v-1.45s.02,.08,.02,.12l.08,.76Z"/><path d="M98.07,182.88v1.06l-.08-.76s0-.08-.02-.12v-.18h.1Z"/><path class="cls-7" d="M96.49,182c.22,.86,.43,1.72,.69,2.69-.92-.94-1-1.16-.69-2.69Z"/><path class="cls-7" d="M96.35,174.67c0,.37-.02,.76,.02,1.12-.65-.73-1.23-1.45-.78-2.63,.43,.29,.63,.65,.71,1.02v.04c.02,.14,.02,.29,.06,.45Z"/><path d="M96.35,174.67c-.04-.16-.04-.31-.06-.45,.04,.16,.06,.29,.06,.45Z"/><path class="cls-7" d="M95.78,178.68c.1,.41,.2,.82,.31,1.22l-.41,.12c-.1-.41-.22-.82-.31-1.23,.14-.02,.27-.06,.41-.1Z"/><path class="cls-7" d="M94.45,185.74c-.1,.04-.2,.08-.31,.1-.18-.49-.35-.98-.67-1.8v1.96c-.08,0-.16,0-.24,.02-.04-.06-.06-.1-.08-.16-.06-.16-.1-.31-.14-.47l-.59-3.65c-.02-.12-.02-.22-.04-.29l-.33-2.04c.57,1.02,1.22,1.92,1.59,2.94,.41,1.08,.55,2.25,.8,3.39Z"/><path d="M93.15,185.86c.02,.06,.04,.1,.08,.16-.04,0-.08,.02-.12,.02-.04-.22-.08-.43-.1-.65,.04,.16,.08,.31,.14,.47Z"/><path class="cls-7" d="M94.41,173.31c-1.06-.96-1.41-1.8-1.59-2.94-.2-1.04,.08-2.23-.82-3.08v-.06l.1-.49,.16-.67c1.02,2.45,1.8,4.74,2.16,7.23Z"/><path d="M92.25,166.08l-.16,.67c.04-.2,.1-.39,.16-.67Z"/><path class="cls-7" d="M91.98,167.57c.02,.65,.04,1.29,.08,1.92-.1,0-.18,.02-.25,.02,.06-.65,.1-1.31,.18-1.94Z"/><path class="cls-7" d="M92,167.24v.04h-.02v-.02l.02-.02Z"/><path class="cls-7" d="M92,167.28v.02c0,.1-.02,.18-.02,.27-.02-.04-.02-.1-.02-.16l.02-.14h.02Z"/><path d="M91.98,167.26v.02l-.02,.14v-.18l.02,.02Z"/><path class="cls-7" d="M91.68,171.12v5.45h-.14c-.02-.06-.02-.12-.02-.18v-5.37c.06,.04,.1,.06,.16,.1Z"/><path class="cls-7" d="M90.37,193.07c-.02,1.2,1.45,1.27,1.8,2.59-1.16-.57-1.76-1.39-2.51-2.04-.22-.2-.39-.41-.51-.65l.61,.39,.29-.78-.06-.29c.22,.2,.37,.43,.37,.78Z"/><path class="cls-7" d="M90,192.29l.06,.29-.29,.78-.61-.39c-.35-.65-.37-1.39-.49-2.12,.04,.82,.84,1.02,1.33,1.43Z"/><path class="cls-7" d="M86.65,188.27c.14,.24,.25,.49,.39,.74-.1,.06-.18,.1-.27,.14-.12-.25-.25-.51-.37-.74,.08-.06,.18-.1,.25-.14Z"/><path class="cls-7" d="M86.53,185.21c.27,.59,.57,1.2,1.02,2.1-1.02-.61-1.35-1.2-1.02-2.1Z"/><path class="cls-7" d="M86.59,182.68v.76h-.1v-1.02c.04,.08,.06,.18,.1,.25Z"/><path d="M86.59,182.41v.27c-.04-.08-.06-.18-.1-.25v-.02h.1Z"/><path class="cls-7" d="M85.23,182.7c.16,.31,.31,.61,.45,.92-.12,.08-.25,.16-.39,.22-.12-.33-.24-.69-.35-1.02l.29-.12Z"/><path class="cls-7" d="M85.33,178.84c.16,.67,.33,1.35,.49,2.06-1.53-1.31-1.59-1.35-.74-2.63,.08,.18,.18,.37,.25,.55v.02Z"/><path d="M85.16,178.14c.06,.22,.12,.45,.18,.69-.08-.18-.18-.37-.25-.55,.02-.04,.04-.08,.08-.14Z"/><path class="cls-7" d="M83.25,173.84c.43,.84,.67,1.71,.53,2.7l-.1-.12-.25-1.96-.18-.63Z"/><path class="cls-7" d="M83.76,189.01c.08,.18,.14,.33,.2,.47-.98-.74-1.8-2.27-2.2-4.27,.39,1,.82,1.9,1.27,2.72,.2,.37,.45,.74,.73,1.08Z"/><path class="cls-7" d="M83.78,176.55c-.02,.12-.06,.24-.08,.35-1.16-.59-.33-1.9-1.02-2.65-.78-.82-.25-1.76-.18-2.7,.18,.65,.24,1.35,.55,1.9,.08,.14,.14,.25,.2,.39l.18,.63,.25,1.96,.1,.12Z"/><path class="cls-7" d="M84.41,188.49c-.43-.41-.71-.67-.98-.94-.06,.04-.14,.06-.2,.1,.2,.49,.39,.96,.53,1.37-.27-.33-.53-.71-.73-1.08-.45-.82-.88-1.72-1.27-2.72l-.02-.04c-.04-.16-.06-.31-.08-.47,1.43,.76,2.35,1.92,2.74,3.78Z"/><path class="cls-7" d="M81.75,172.9c.16,.37,.24,.78,.24,1.23-.49-.55-.65-1.43-1.53-1.37l.33-1.2s.1-.06,.16-.08c.27,.47,.57,.92,.8,1.41Z"/><path class="cls-7" d="M81.43,176.04c.57,.98,1.23,1.92,2,3.12-2.31-.63-2.41-2.53-3.25-4.35-.18,.92-.25,1.78-.27,2.59-.06-1.23,.04-2.49,.31-3.7,.16,.88,.78,1.61,1.22,2.35Z"/><path d="M81.67,184.7s-.04-.02-.06-.04l.04-.04s0,.06,.02,.08Z"/><path d="M81.55,184.47c.04,.06,.06,.1,.1,.16l-.04,.04c-.02-.06-.04-.14-.06-.2Z"/><path d="M81.55,184.47c-.04-.08-.08-.16-.14-.24v-.04l-.27-.76s.08-.02,.14-.04c.1,.35,.2,.71,.27,1.08Z"/><path d="M81.14,183.43l.27,.76-.41-.71s.08-.04,.14-.06Z"/><path d="M80.94,171.45s.02,.02,.02,.04h-.02l-.02-.04h.02Z"/><path class="cls-7" d="M80.78,171.57l-.33,1.2c-.06-.02-.1,0-.16,.02,.04-.47,.02-.98,.49-1.22Z"/><path d="M80.29,172.78v.06l-.06-.06h.06Z"/><path d="M80.29,172.84c-.04,.14-.08,.25-.12,.39,0-.14,.02-.29,.06-.45l.06,.06Z"/><path class="cls-7" d="M80.22,173.67v.02c-.27,1.22-.37,2.47-.31,3.7-.02,.12,0,.22,0,.33v.22c.02,1.02,.12,1.98,.2,2.94-.53-2.53-.67-5.08,.08-7.59,0,.14,.02,.25,.04,.37Z"/><path class="cls-7" d="M75,217.59c.73-.94-.53-1.94,.1-2.96,.29,.8,.55,1.55,.82,2.27,.1-.04,.2-.06,.29-.1-.04-.29-.1-.57-.14-.86,.04,.06,.08,.12,.14,.2,.02,.02,.04,.06,.08,.1,.12,.16,.22,.31,.22,.47,.04,1.67,.35,3.21,1.59,4.45,.24,.24,.29,.67,.31,1.06-1.72-1.1-2.06-3.23-3.55-4.47,.06-.06,.1-.1,.14-.16Z"/><path class="cls-7" d="M76.12,214.85c0,.35,0,.73-.04,1.08-.14-.65-.29-1.27-.43-1.94-.14-.8-.41-1.63-.37-2.45,.04-1.08-.16-2.06-.59-3.04,.08,.08,.24,.12,.31,.2l.55,3c.25,1.25,.45,2.29,.57,3.14v.02Z"/><path d="M76.12,214.83c-.12-.84-.31-1.88-.57-3.14l-.55-3s.06,.04,.08,.08c.51,1.98,1.02,4,1.04,6.06Z"/><path d="M74.83,207.01c-.02,.16-.02,.31-.04,.49-.04-.14-.06-.27-.1-.41v-.1c.06,0,.1,0,.14,.02Z"/><path d="M74.69,207.09c.04,.14,.06,.27,.1,.41-.04,.31-.08,.65-.1,.98v-1.39Z"/><path d="M73.61,215.99c.16,.18,.31,.37,.47,.57l-.06,.06-.55-.55s.08-.06,.14-.08Z"/><path d="M74.02,216.61s-.04,.04-.06,.08c-.12-.12-.25-.2-.35-.31-.08-.08-.1-.22-.14-.31l.55,.55Z"/><path class="cls-7" d="M72.96,205.89c.29,.92,.61,1.86,.9,2.78-1.04-.67-1.16-1.67-1.22-2.69,.1-.04,.2-.08,.31-.1Z"/><path class="cls-7" d="M73.1,210.56c.22,.63,.33,1,.51,1.57q-.67-.61-.51-1.57Z"/><path class="cls-7" d="M73.08,201.83v1.18h-.06v-1.14s.04-.04,.06-.04Z"/><path class="cls-7" d="M71.83,201.97c.14,.49,.27,.98,.41,1.45-.18,.06-.35,.12-.53,.16-.1-.51-.2-1-.27-1.51,.14-.04,.25-.06,.39-.1Z"/><path class="cls-7" d="M71.75,195.31c.18,1.27,.41,2.53,.63,3.88-.45-.65-.9-1.2-1.22-1.82-.33-.65-.84-1.39,.2-2,.18-.1,.18-.61,.16-.9-.06-.53-.14-1.06-.08-1.59,.02,.16,.06,.29,.1,.45,.06,.67,.14,1.33,.22,1.98Z"/><path d="M71.53,193.33c-.04-.16-.08-.29-.1-.45-.02-.08,0-.18,.02-.25,.02,.24,.06,.47,.08,.71Z"/><path class="cls-7" d="M71.02,210.75c-.12,.06-.24,.1-.35,.14-.22-.47-.43-.96-.65-1.45-.14,.84-.08,1.51,.22,2.57-.12-.18-.2-.37-.27-.55-.31-.74-.73-1.74-1.04-2.67-.33-1.31-.57-2.67-.92-4.04,2.02,1.72,2.43,3.9,3.02,6Z"/><path d="M70.32,189.35c.06,.22,.16,.43,.14,.65l-.61-2.2c.16,.51,.31,1.04,.47,1.55Z"/><path d="M70.26,212.07c.08,.27,.18,.57,.29,.9-.82-1.29-1.27-2.7-1.63-4.18,.31,.92,.73,1.92,1.04,2.67,.08,.18,.16,.37,.27,.55-.02,.02,0,.04,.02,.06Z"/><path class="cls-7" d="M68.53,192.11c.65,1.22,.84,2.67,1.33,4.37-2.35-2.12-2.57-4.65-2.7-7.15v-.02c.14-.08,.27-.18,.61-.39-.22,1.27,.24,2.2,.76,3.2Z"/><polygon points="67.16 189.31 67.16 189.33 67.14 189.33 67.16 189.31"/><path class="cls-7" d="M66.71,187.39c.14,.65,.27,1.29,.43,1.94-.18,.24-.35,.51-.73,1.08l.04-.41,.25-2.61Z"/><path d="M66.81,186.54c-.02,.14-.04,.25-.04,.39-.04,.04-.06,.08-.06,.1,.02-.16,.06-.33,.1-.49Z"/><path d="M66.81,186.54c-.04,.16-.08,.33-.1,.49h-.02c.04-.16,.08-.33,.12-.49Z"/><path d="M66.69,196.44c.04,.71,.06,1.41,.1,2.12-.04,.02-.1,.02-.14,.02-.12-1.1-.12-1.74-.12-2.12,.06,0,.1,0,.16-.02Z"/><path d="M66.71,187.39l-.25,2.61c.08-1.1,.14-1.96,.22-2.8,.02,.06,.02,.14,.04,.2Z"/><path d="M66.69,187.05s-.02,.06-.02,.1t-.02-.04s.02-.04,.04-.06Z"/><path d="M66.65,198.58s-.08,.02-.12,.02v-2.14c0,.37,0,1.02,.12,2.12Z"/><path class="cls-7" d="M43.8,204.95c.2-.02,.39-.06,.63-.12,3.86-1.18,7.55,.55,9.15,4.21,1.65,3.72,1.18,7.35-.69,10.84-.84,1.59-1.78,3.14-2.88,4.55-4.08,5.29-6.66,11.27-8.33,17.68-.39,1.47-.86,2.9-1.35,4.57-.33-.41-.53-.61-.65-.86-2.74-5.21-5.47-10.43-7.1-16.13-1.69-5.94-1.8-11.86,.22-17.72,.63-1.84,1.59-3.59,2.51-5.31,.61-1.16,1.63-1.96,2.9-2.43,1.45-.55,2.84-.61,4.18,.29,.47,.31,.9,.45,1.41,.43Zm9.64,11c.67-2.72,.22-5.35-1.27-7.78-1.31-2.16-3.45-2.7-5.76-2.92-1.9-.16-2.49,1.45-3.45,2.57-.53,.61-.57,1.23-.31,2.02,.63,1.86,1.18,3.74,1.71,5.63,.22,.76,.27,1.57,.39,2.35-.06,.02-.14,.02-.22,.04-.9-2.67-1.78-5.33-2.74-8.21-.37,.41-.53,.55-.65,.74-1.76,2.98-2.98,6.02-1.57,9.55,.45,1.1,.63,2.27,.92,3.43-.12,.04-.24,.06-.35,.1-.39-.94-.78-1.88-1.18-2.84-.61,3.1-.39,6.19-.53,9.25h-.37c-.12-3.61-.24-7.23-.35-10.9-.31,.1-.57,.2-.84,.29-.12-.06-.24-.14-.35-.2,1.92-2.02,1.76-4.67,2.7-7.08-.61,.08-.94,.14-1.27,.18-.06-.1-.14-.2-.2-.29,2.41-1.33,3.82-3.55,5.39-5.76-2.31-2.14-4.27-1.65-6.14-.18-.51,.41-.88,1.02-1.25,1.57-1.57,2.39-2.41,5.08-3.02,7.82-1.47,6.82-.1,13.29,2.57,19.56,1.29,3,2.72,5.92,4.1,8.88,.18,.39,.39,.76,.61,1.16,.16-.14,.29-.2,.31-.27,.18-.71,.33-1.41,.51-2.14,1.39-6.02,3.55-11.68,7.25-16.72,1.31-1.8,2.59-3.69,3.69-5.65,.74-1.29,1.33-2.74,1.69-4.19Z"/></g><g><path class="cls-2" d="M92,167.3c0,.1-.02,.18-.02,.27-.08,.63-.12,1.29-.18,1.94"/><path class="cls-2" d="M92,167.24v.04"/><path class="cls-2" d="M204.25,162.51h-.39"/><polyline class="cls-2" points="92 167.3 92 167.28 91.98 167.28"/><path class="cls-2" d="M209.29,192.68v.04"/><path class="cls-2" d="M212.9,178.12c.1-.33,.2-.69,.27-1.04"/><path class="cls-2" d="M91.98,167.26l-.02-.02v.18"/><path class="cls-2" d="M96.29,174.22c.02,.14,.02,.29,.06,.45,.24,2.23,.84,5.02,1.55,7.96,.04,.14,.06,.27,.08,.43,.02,.04,.02,.08,.02,.12l.08,.76,.2,1.92"/><polyline class="cls-2" points="95.51 168.55 95.56 169.04 96.29 174.18"/><path class="cls-2" d="M91.98,167.28l-.02,.14-.16,2.1-.27,1.51c-.16,1.88-.16,3.63-.02,5.19,0,.06,.02,.12,.02,.18s0,.12,.02,.18c.02,.12,.02,.25,.06,.37l.45,2.47,.33,2.04c.02,.08,.02,.18,.04,.29,.06,.73,.14,2.14,.59,3.65,.04,.16,.08,.31,.14,.47,.02,.06,.04,.1,.08,.16,.92,2.14,2.74,4.68,4.72,7.06,.22,.27,.45,.55,.69,.82"/><line class="cls-2" x1="92" y1="167.24" x2="91.98" y2="167.26"/><polyline class="cls-2" points="93.02 163.73 92.94 163.96 92.25 166.08 92.09 166.75"/><polyline class="cls-2" points="98.46 189.66 98.56 191.6 98.58 192.01"/><polyline class="cls-2" points="98.27 185.86 98.41 188.54 98.45 189.41 98.45 189.45 98.46 189.54 98.46 189.64"/><path class="cls-3" d="M44.33,202.93c-.2,.65-.37,1.31-.53,2.02-.04,.1-.06,.2-.08,.29"/><path class="cls-3" d="M45.13,200.81c-.29,.65-.55,1.33-.78,2.06"/><line class="cls-3" x1="67.34" y1="183.86" x2="67.59" y2="182.59"/><path class="cls-3" d="M75.83,218.42l-.82-.82-.98-.98-.55-.55-1.86-1.94c-.49-.57-.98-1.31-1.35-2.06-.02-.02-.04-.04-.02-.06-.12-.18-.2-.37-.27-.55-.31-.74-.73-1.74-1.04-2.67-.27-.76-.51-1.49-.59-1.96-.33-1.88-1.35-5.61-1.69-8.25-.12-1.1-.12-1.74-.12-2.12l-.12-6.06,.04-.41,.25-2.61,.04-.35s0-.06,.02-.1c0-.14,.02-.25,.04-.39,.02-.08,.02-.14,.04-.22l.45-2.21"/><path class="cls-3" d="M76.12,214.85c.08,.55,.14,1,.18,1.37v.02c.04,.82,0,1.25-.18,1.31"/><path class="cls-3" d="M68.65,183.39l.2,.74,.02,.06,.82,3.02,.16,.59,.61,2.2c.18,.53,.35,.98,.51,1.39,.18,.49,.33,.98,.47,1.49,.02,.16,.06,.29,.1,.45,.06,.31,.12,.63,.16,.96l.47,3.31c.14,1.06,.37,2.1,.67,3.12l1.63,5.51c.08,.27,.16,.57,.24,.86,.04,.14,.06,.27,.1,.41l.06,.29,.16,.9,.55,3c.25,1.25,.45,2.29,.57,3.14"/><path class="cls-2" d="M85.33,178.82c-.08-.18-.18-.37-.25-.55-.16-.25-.31-.49-.49-.71l-.8-1.02-.1-.12-.25-1.96-.18-.63-.65-2.39-.18-.63"/><path class="cls-2" d="M86.49,182.41c-.04-.1-.06-.2-.1-.29l-.88-2.8c-.06-.16-.1-.31-.18-.47"/><path class="cls-2" d="M81.76,185.21c.39,1,.82,1.9,1.27,2.72,.2,.37,.45,.74,.73,1.08,.43,.53,.92,1,1.49,1.41l3.9,2.55,.61,.39,.29-.78-.06-.29-.39-1.69-.47-2.06-.31-1.43c-.04-.22-.12-.45-.22-.65-.1-.22-.22-.41-.33-.61l-.71-1.06c-.14-.2-.25-.41-.35-.63l-.63-1.49c-.04-.08-.06-.18-.1-.25"/><line class="cls-2" x1="81.41" y1="184.23" x2="81.75" y2="185.17"/><path class="cls-2" d="M81,170.82l-.14,.49-.08,.25-.33,1.2-.06,.18c-.06,.24-.14,.49-.18,.73v.02c-.27,1.22-.37,2.47-.31,3.7-.02,.12,0,.22,0,.33v.22l.04,.69c.08,1.12,.29,2.21,.67,3.27l.53,1.53,.27,.76"/><path class="cls-2" d="M231.36,186.47c-.02-.08-.02-.14-.04-.22l-.73-3.74"/><path class="cls-2" d="M222.36,218.34l1.29-1.31,1.06-1.06,1.18-1.23,.67-.69c.27-.33,.57-.73,.82-1.14,.27-.41,.51-.82,.69-1.23,.06-.1,.12-.22,.16-.31,.27-.67,.65-1.57,.96-2.43,0-.02,.02-.06,.04-.1,.29-.82,.53-1.61,.63-2.1,.33-1.86,1.33-5.59,1.67-8.23,.12-1.12,.12-1.74,.12-2.12v-.2l.12-5.86-.02-.2-.27-2.76-.04-.41c-.02-.16-.04-.29-.06-.45"/><path class="cls-2" d="M221.89,216.3c-.06,.73,0,1.1,.16,1.16"/><path class="cls-2" d="M227.91,189.23l-.2,.69c-.06,.16-.1,.29-.16,.43-.08,.22-.14,.43-.22,.61v.04s-.02,.04-.04,.06v.04s-.02,.02-.02,.02l-.06,.18c-.2,.49-.35,1-.47,1.51-.12,.47-.22,.92-.27,1.39l-.14,1.08-.04,.16-.27,2.08c-.12,.73-.25,1.47-.43,2.18-.08,.33-.16,.65-.25,.96l-1.63,5.49s-.02,.1-.04,.14c-.14,.47-.24,.94-.33,1.43l-.02,.08-.45,2.47-.25,1.35c-.22,1.14-.39,2.14-.51,2.94-.12,.73-.2,1.29-.22,1.74"/><polyline class="cls-2" points="229.52 183.29 229.15 184.62 227.91 189.17"/><path class="cls-2" d="M210,192.23l-.71,.45-.88,.59-.27-.76,.18-.76,.27-1.25,.59-2.59,.06-.25,.14-.63c.04-.24,.12-.43,.2-.65,.08-.18,.16-.33,.27-.49l.06-.12,.71-1.06c.1-.14,.2-.29,.25-.45,.04-.06,.08-.12,.1-.18l.63-1.49c.06-.14,.12-.29,.16-.45,.02-.04,.02-.06,.04-.1l.27-.9,.31-.98,.02-.06,.27-.86c.08-.27,.16-.69,.24-1.12,.08-.37,.16-.74,.27-1.04,.02-.02,.02-.04,.02-.06,.02-.06,.04-.1,.06-.14,.06-.1,.1-.18,.16-.24l.37-.65,.43-.74,.53-.86,.59-1.55,.45-1.18,.31-.84"/><path class="cls-2" d="M216.76,184.19l-.33,.92c-.39,1-.82,1.9-1.27,2.72-.16,.27-.33,.53-.51,.78-.27,.39-.59,.74-.94,1.06-.25,.24-.51,.45-.78,.65l-2.45,1.59"/><path class="cls-2" d="M217.78,172.84v.02c.08,.29,.16,.57,.22,.86v.06c.27,1.25,.37,2.55,.29,3.84l-.06,.9c-.02,.29-.04,.59-.1,.9,0,.06,0,.12-.02,.2-.12,.73-.29,1.47-.53,2.18l-.33,.96-.47,1.35"/><line class="cls-2" x1="217.19" y1="170.73" x2="217.76" y2="172.82"/><path class="cls-2" d="M203.86,162.53l-.04,.47-.74,7.29v.04c-.04,.45-.16,.9-.33,1.31l-.35,.84c-.1,.22-.18,.45-.25,.67-.04,.12-.08,.25-.1,.37-.04,.12-.06,.22-.08,.33l-.47,2.43-.37,2.47c-.02,.18-.06,.33-.08,.49l-.67,2.94c-.08,.43-.14,.88-.14,1.33v1.74c-.08,.14-.14,.29-.22,.47-.08,.16-.18,.31-.25,.47-.1,.78-.16,1.57-.18,2.33-.06,1.14,0,2.23,.18,3.29"/><path class="cls-2" d="M205.06,185.47s.04,0,.06-.02l1.04-6.33,.31-2.25c.06-.37,.08-.74,.08-1.12v-.06l.04-4.96,.02-1.25c0-.47-.02-.94-.1-1.39l-.14-.9c-.02-.1-.04-.18-.06-.27v-.02s0-.04-.02-.06c0-.04,0-.06-.02-.1l-.06-.29-.86-2.86-.08-.2-.29-.84h-.02v-.02h-.02l-.63-.25-.45,.25"/><path class="cls-2" d="M205.06,185.47c-.1-.24-.14,.1,0,0h0Z"/><path class="cls-2" d="M204.94,185.94c.06-.14,.1-.27,.14-.41,0-.02-.02-.04-.02-.06"/><path class="cls-2" d="M200.43,192.43c.1-.08,.18-.18,.27-.27,1.71-1.63,3.57-4.08,4.23-6.19"/></g></g></g></g></svg>