<?xml version="1.0" encoding="UTF-8"?><svg id="Calque_2" xmlns="http://www.w3.org/2000/svg" xmlns:xlink="http://www.w3.org/1999/xlink" viewBox="0 0 298.64 412.02"><defs><style>.cls-1,.cls-2{fill:none;}.cls-3{font-family:FreightSansProLight-Italic, 'FreightSans Pro';font-size:12.56px;opacity:.5;}.cls-3,.cls-4,.cls-5,.cls-6{fill:#d67a26;}.cls-4{font-family:QuincyCF-Text, 'Quincy CF';font-size:23.56px;}.cls-7{clip-path:url(#clippath);}.cls-8{letter-spacing:-.08em;}.cls-9{fill:#39a236;}.cls-10{letter-spacing:-.12em;}.cls-11{letter-spacing:-.03em;}.cls-12{clip-path:url(#clippath-1);}.cls-13{clip-path:url(#clippath-2);}.cls-6{font-family:QuincyCF-Bold, 'Quincy CF';font-size:23.7px;}.cls-2{stroke:#d67a26;stroke-miterlimit:10;}.cls-14{letter-spacing:-.01em;}</style><clipPath id="clippath"><rect class="cls-1" x="257.21" y="364.13" width="24.6" height="34.98"/></clipPath><clipPath id="clippath-1"><rect class="cls-1" x="242.83" y="353.88" width="80.86" height="55.69"/></clipPath><clipPath id="clippath-2"><rect class="cls-1" x="242.83" y="353.88" width="80.86" height="55.69"/></clipPath></defs><g id="Calque_1-2"><path class="cls-2" d="M298.14,65.69V404.78c0,3.72-3.06,6.74-6.84,6.74H66.59C30.09,411.52,.5,382.34,.5,346.33V7.24C.5,3.52,3.56,.5,7.34,.5H232.05c10.41,0,20.25,2.37,29.01,6.6,4.36-3.36,10.08-5.07,16.2-4.21,9.72,1.36,17.35,9.41,18.15,19.06,.45,5.46-1.21,10.53-4.27,14.5,4.48,8.79,7,18.73,7,29.25Z"/><text class="cls-4" transform="translate(74.84 327.64)"><tspan x="0" y="0">Cucurbitacées</tspan></text><g><g><path class="cls-5" d="M247.45,161.08c-.28,.33-.42,.63-.51,.98-1.02,3.35-1.7,6.79-2.28,10.26-.33,2-.77,3.98-1.14,5.98-.09,0-.21-.02-.3-.02-.09-.37-.21-.74-.28-1.12-.42-2.05-.7-4.12-1.3-6.09-.65-2.14-1.49-4.26-2.47-6.26-1.33-2.65-2.7-5.3-4.35-7.79-2.51-3.79-5.77-6.95-9.44-9.65-1.51-1.09-3.14-2.05-4.77-2.98-3.35-1.86-7.12-2.56-10.77-3.58-.86-.23-1.65,.07-2.47,.49,.3,.49,.63,.81,1.19,.79,1.95-.07,3.79,.51,5.63,1.07,4.14,1.23,7.95,3.09,11.33,5.86,4.86,4.05,8.51,9.07,11.61,14.56,3.09,5.47,4.65,11.37,5,17.61,.56,9.79-.91,19.37-3.81,28.7-1.21,3.88-2.84,7.56-5.33,10.81-.23,.3-.4,.65-.95,.42v-1.28c.05-.98,.07-1.95,.14-2.93,.21-3.47-1.12-6.44-2.88-9.3-.19-.33-.4-.53-.86-.16,.23,.44,.49,.91,.74,1.35,1.56,2.58,2.42,5.35,2.19,8.4-.16,2.09-.37,4.21-.72,6.3-.12,.7-.58,1.42-1.07,2-.63,.79-1.4,1.49-2.16,2.16-2.7,2.42-5.77,4.26-9.3,5.16-2.7,.7-5.44,.51-8.16,.28-5.51-.49-10.86-1.77-16.07-3.58-.42-.14-1.12-.09-1.07-.77,.05-.65,.74-.58,1.19-.63,2.79-.33,4.98-1.88,7.12-3.56,.81-.65,1.09-1.4,1.05-2.23-2.67,3.33-6.19,5.05-10.42,5.58,.3,.93,.63,1.86,.88,2.79,.14,.53,.42,.86,.93,1,1.26,.33,2.51,.7,3.79,.98,1.28,.26,2.58,.37,3.86,.63,4.49,.88,8.98,1.65,13.58,1.42,1.16-.07,2.35,.21,3.49,.42,1.07,.19,2.12,.49,3.19,.74,.02-.07,.05-.14,.09-.21-1-.56-1.98-1.09-3.09-1.72,.72-.3,1.33-.53,1.93-.79,2.14-.88,4.28-1.77,6.23-3.07,4.28-2.81,7.16-6.86,9.72-11.16,2.28-3.88,3.74-8.16,5-12.47,1.51-5.21,2.33-10.58,2.19-16.05-.05-2,.07-4,.23-5.98,.14-1.58,.49-3.14,.7-4.72,.81-6.02,1.6-12.02,2.91-17.98,.05-.21,.07-.42,.09-.65Zm10.07-22.89c2.95-.84,6.09,2.86,5.79,6-.09,1.05-1.19,1.51-2.12,.86-.6-.47-1.12-1.07-1.65-1.63-.28-.28-.51-.63-.77-.95-.91,.07-1.44,.63-1.79,1.33-.21,.4-.33,.84-.47,1.26-.4,1.23-.98,2.33-1.98,3.12,.23,.7,1.02,1.02,.79,1.86-.26-.07-.51-.12-.74-.19-.07,.07-.14,.14-.14,.21,.05,1.21-.47,2.21-1.28,3.07-.33,.35-.7,.67-1.07,1-.95,.81-1.6,1.81-1.93,3.05-.35,1.42-.74,2.81-1.63,4.05-.28,.37-.42,.88-.49,1.35-.81,4.74-1.63,9.49-2.4,14.23-.44,2.79-.84,5.58-1.14,8.37-.16,1.65-.19,3.33-.19,5,.02,3.12-.09,6.21-.65,9.26-.56,3.21-1.19,6.42-2.3,9.49-1.02,2.84-2,5.7-3.33,8.42-.93,1.93-1.98,3.74-3.23,5.47-2.14,2.84-4.23,5.72-7.3,7.65-1.3,.81-2.67,1.56-4.05,2.28-.93,.47-1.93,.84-3.02,1.3,.77,.7,1.65,.93,2.56,1.3,.4-1.95,1.79-2.28,3.44-2.19,.56,.02,1.14,.07,1.7,.05,1.28-.07,2.44-.4,3.4-1.42,1.33-1.44,2.88-1.63,4.65-.79,1.05,.49,1.44,1.05,1.3,2.21-.07,.72,.07,1.14,.79,1.42,1.14,.44,1.65,1.37,1.81,2.54,.19,1.14-.05,1.51-1.19,1.6-.56,.05-1.14-.02-1.7-.09s-1.12-.19-1.84-.33c.91,1.12,2.07,1.58,3.12,2.16,.16,.09,.37,.16,.56,.23,2.58,.81,3.37,3,4.09,5.23,.16,.56,0,1.07-.49,1.42-.44,.3-.84,.12-1.26-.12-.37-.19-.77-.33-1.4-.58,.02,.65,.07,1.02,.07,1.4-.02,.7,0,1.4-.12,2.07-.09,.53-.51,.95-1.09,1.02s-1-.3-1.23-.81c-.28-.63-.49-1.3-.79-1.93-.56-1.12-1.14-2.23-1.79-3.33-.23-.42-.67-.74-1.02-1.12-.07,.05-.16,.09-.23,.12,.05,.35,.07,.67,.16,1,.19,.77,.4,1.51,.6,2.26,.28,1.07,.12,2.12-.26,3.12-.28,.7-.79,1.14-1.58,1.16-.7,.05-1.14-.26-1.35-.95-.19-.63-.28-1.28-.47-1.88-.49-1.42-1.19-1.79-2.63-1.42-.14,.02-.26,.07-.37,.09-1.4,.35-2.09-.4-1.79-1.81,.16-.67,.3-1.35,.35-2.05,.21-2.21-.37-2.81-3-2.74-.56,0-1.12,.16-1.7,.19-.3,.02-.65-.02-.95-.16-.91-.35-1.12-1.33-.44-2.05,.28-.28,.56-.58,.88-.84,.28-.28,.6-.51,1-.79-.23-.16-.35-.28-.49-.33-2.19-.7-4.4-1.4-6.7-1.33-5.28,.21-10.4-.77-15.51-1.77-2.16-.42-4.3-.77-6.35-1.14-.21,1.88-.4,3.88-.7,5.84-.16,1.09-.47,2.14-.79,3.21-.28,.95-.81,1.77-1.6,2.4-.28,.23-.53,.49-.84,.74,2.28,.67,4.54,1.21,6.68,1.98,2.14,.77,4.19,1.77,6.51,2.77-.44,.4-.65,.65-.93,.81-1.95,1.19-4.09,1.86-6.35,2.07-1.44,.14-2.93,.14-4.37,.21-.37,0-.72,.02-1.19,.05,.53,2.6,.16,5-.77,7.3-.56,1.37-1.4,2.65-2.12,3.98-.16,.28-.42,.51-.65,.72-.98,.93-1.65,.95-2.44-.14-1.77-2.51-3.4-5.09-3.7-8.28,0-.07-.07-.14-.19-.37-.44,.19-.93,.35-1.4,.56-2.72,1.19-5.51,2.21-8.47,2.72-2.12,.37-4.23,.33-6.35,.07-1.05-.14-1.35-.81-.86-1.74,.14-.23,.3-.49,.49-.7,2.23-2.63,4.74-4.93,8-6.3,.21-.09,.42-.21,.63-.44-.33,.05-.65,.05-1,.09-2.74,.33-5.44,.26-8.07-.7-4.93-1.74-7.19-4.77-6.23-10.4,1.26-7.3,5.93-11.72,12.88-13.75,4.37-1.28,8.81-.98,13.21-.14,1.49,.28,2.95,.67,4.4,1.12,4.84,1.56,9.07,.33,12.86-2.79,.56-.47,1.02-1.07,1.44-1.67,.44-.65,.3-1.16-.26-1.44-.58-.3-1.35-.07-1.65,.51-.09,.19-.14,.37-.21,.56-.7-.33-.81-.58-.56-1.16,.37-.84,1.56-1.51,2.4-1.42,1.14,.16,2.02,.95,2.16,2.02,.23,1.86-.42,3.37-1.91,4.51-1.79,1.37-3.63,2.63-5.86,3.21-.14,.05-.28,.14-.51,.23,.26,.14,.42,.26,.6,.33,4.77,1.42,9.54,2.79,14.51,3.33,6.35,.65,11.86-1.14,16.61-5.33,.58-.51,1.12-1.09,1.7-1.58,1.12-.91,1.65-2.09,1.77-3.49,.14-2,.33-3.98,.44-5.98,.12-2.72-.95-5.09-2.3-7.35-.07-.09-.19-.16-.28-.21-.56,.77-1.09,1.51-1.63,2.28-.3,.47-.74,.56-1.28,.47-.91-.21-1.6-.67-1.88-1.56-.19-.65-.3-1.35-.33-2.05-.02-1.12-.47-2.07-1.05-2.95-.23-.4-.84-.72-1.3-.74-1.33-.09-2.7-.12-4,.07-1.91,.26-2.91-.67-2.51-2.58,.42-2.02-.02-3.05-1.86-4.02-.79-.44-1.67-.7-2.44-1.14-.49-.3-1-.74-1.28-1.23-.7-1.26-.05-2.51,1.37-2.72,1.26-.21,2.51-.09,3.7,.49,.84,.4,1.67,.84,2.51,1.26,.44,.21,.88,.4,1.42,.63,.12-.65-.26-.95-.51-1.26-1.33-1.54-2.79-2.86-4.49-3.95-.86-.53-1.72-1.09-2.56-1.7-.37-.28-.72-.65-.98-1.05-.6-.95-.21-1.86,.95-2.09,1.05-.23,2.09-.07,3.12,.3,.37,.12,.77,.23,1.09,.35,.56-.53,.44-1.05,.28-1.56-.12-.4-.33-.74-.47-1.14-.53-1.58,.81-3.23,2.49-2.93,.63,.12,1.3,.33,1.79,.72,1.54,1.21,2.63,2.72,2.81,4.79,.19,2.33,.72,4.61,1.95,6.63,.12,.21,.28,.42,.42,.6,.05,.05,.14,.05,.35,.12-.05-.44-.09-.81-.16-1.19-.28-1.63-.35-3.26,.07-4.86,.16-.63,.4-1.26,.7-1.81,.51-.91,1.44-1.02,2.35-.98,.84,.05,1.33,.6,1.58,1.35,.19,.49,.28,1.02,.4,1.54,.09,.42,.19,.84,.3,1.33,.95-.09,1.44-.79,2.09-1.14,.33-.19,.58-.47,.91-.63,.81-.35,1.74-.12,2.33,.58,1.07,1.28,1.42,2.72,.98,4.35-.47,1.77-1.44,3.28-2.49,4.72-1.26,1.72-1.4,3.51-.79,5.44,.19,.56,.42,1.07,.58,1.63,.63,1.93,.02,3.19-1.84,4l-.42,.21c.81,1.95,1.88,3.84,2.35,5.84s.35,4.12,.49,6.4c.3-.44,.53-.79,.74-1.14,2.12-3.93,3.72-8.07,4.81-12.4,1.84-7.19,2.88-14.49,2.81-21.91-.07-5.35-.84-10.58-2.93-15.54-3.09-7.33-7.51-13.72-13.65-18.84-4.16-3.49-9.07-5.42-14.3-6.54-.4-.09-.79-.12-1.28,.02,.26,.28,.53,.56,.81,.84,1.44,1.49,2.93,2.95,4.33,4.49,2.19,2.35,3.42,5.21,4.28,8.28,.4,1.44-.51,1.84-1.63,1.79-.74-.05-1.54-.23-2.26-.49-2.67-1-5.35-2-7.98-3.09-2.74-1.14-4.88-3.05-6.56-5.51-.12-.19-.28-.37-.53-.67-.16,.53-.28,.91-.37,1.28-1.02,3.98-2.88,7.51-5.65,10.56-1.26,1.37-2.65,2.54-4.3,3.4-1.23,.65-1.7,.47-2.28-.84-.53-1.21-.72-2.49-.84-3.79-.33-3.3-.21-6.61,.21-9.88,.21-1.56,.65-3.05,1.47-4.4,.14-.23,.23-.49,.4-.84-.35-.05-.58-.07-.81-.09-4.21-.12-8.07-1.44-11.65-3.63-1.35-.81-2.63-1.77-3.91-2.74-.7-.53-1.35-1.16-1.95-1.84-.74-.84-.65-1.3,.33-1.95,2.19-1.47,4.61-2.28,7.26-2.19,2.4,.09,4.79,.23,7.21,.42,1.33,.09,2.51,.6,3.54,1.49,.37,.33,.74,.6,1.26,1.02,.07-.49,.14-.79,.14-1.09,.07-4.63,1.35-8.93,3.3-13.07,.63-1.33,1.3-2.63,1.95-3.93,.12-.23,.21-.47,.35-.65,.53-.72,1.05-.7,1.54,.05,1.23,1.86,2.14,3.86,2.42,6.07,.35,2.56,.56,5.12,.79,7.65,.05,.44,.02,.88,.02,1.49,.4-.09,.56-.09,.7-.16,3.12-1.44,6.42-2.12,9.75-2.72,3.47-.63,6.93-1.14,10.44-1.16,.63,0,1.23,0,1.84,.12,.91,.21,1.19,.84,.77,1.65-.23,.44-.51,.84-.86,1.19-1,1.02-1.98,2.07-3.05,3-2.79,2.37-5.63,4.72-8.81,6.58-.09,.07-.19,.16-.37,.33,.26,.12,.44,.23,.65,.3,1.21,.35,2.42,.72,3.65,1.02,5.44,1.35,10.07,4.14,14.12,7.93,1.42,1.35,2.81,2.72,4.14,4.16,3,3.26,4.98,7.16,6.84,11.09,1.02,2.16,1.81,4.47,2.63,6.72,.37,1.02,.51,2.14,.81,3.47,.16-.47,.28-.7,.3-.95,.51-4.21,1.37-8.35,2.6-12.42,.16-.58,.3-1.23,.21-1.79-.35-1.84-.05-3.58,.53-5.3,.33-.95,.4-1.88,.3-2.88-.09-1.12-.12-2.26-.16-3.42-.26,0-.58,.02-.93,.05-.02-.07-.07-.14-.09-.21,.28-.23,.58-.47,.95-.77-.81-1.02-.6-2.26-.49-3.3-.51-.53-.91-.95-1.33-1.37-.3-.33-.6-.65-.93-.95-.84-.79-1.26-2.33-.79-3.37,.14-.3,.56-.63,.91-.67,1.3-.26,2.65-.42,3.98-.56,.42-.02,.95,.05,1.28,.3,1.02,.77,2.14,.67,3.26,.42,.42-.12,.79-.21,1.16,.09,1.02,.79,2.26,.91,3.37,.6Zm4.35,6.23c.09-.53,.79-.74,.53-1.4-.26-.6-.37-1.26-.65-1.84-.84-1.7-2.7-2.51-4.54-1.91,.14,.19,.21,.33,.3,.37,1.21,.44,1.72,1.49,2.23,2.56,.44,.93,1.14,1.65,2.12,2.21Zm-4.28-2.49c.19-.12,.35-.28,.63-.49-.37-.35-.67-.65-1.02-.98-.88,.7-1.6,1.47-2.72,1.19-.26,.63-.47,1.16-.67,1.7-.07-.02-.16-.07-.23-.09,.14-.56,.26-1.12,.42-1.79-1.72-.19-3.16-.67-4.19-2.3,0,.95,.02,1.63-.02,2.33-.07,1.44,.28,2.81,.77,4.16,.12,.3,.26,.6,.47,.86,.4,.51,.74,.49,1.19-.02,.19-.23,.35-.49,.53-.72,.05,.02,.09,.05,.16,.09-.19,.4-.35,.77-.58,1.26,1.05,.63,1.98,.44,2.63-.63,.42-.67,.7-1.47,.95-2.23,.33-.98,.81-1.77,1.7-2.33Zm-3.37-1.33c.88,.26,1.58,.14,2.16-.72-1.74-1.21-3.49-1.88-5.51-1.3,.14,.98,.6,1.44,1.49,1.58,.63,.12,1.26,.23,1.86,.44Zm-.4,9.05c.05-.28-.16-.56-.26-.91-.3,.28-.47,.44-.74,.7,.02-.37,.05-.58,.05-.84-.49,.21-.79,0-.93-.47-.28-1.02-1.02-1.09-1.95-1.05-.16,.77-.33,1.49-.49,2.21-.05,0-.09-.02-.14-.02v-2.23c-.98,.56-1.4,1.28-1.35,2.26,.02,.72,.05,1.47,.16,2.19,.12,1,0,1.93-.33,2.88-.26,.81-.42,1.65-.6,2.49-.05,.26-.07,.65,.07,.79,.37,.37,.33,.67,.12,1.09-.26,.49-.02,.81,.47,1.05,.3-.35,.6-.67,.91-1.02-.4-.6-.3-1.4,.14-1.63,.47-.26,.47-.58,.65-.88,.49-.77,.95-1.58,1.51-2.33,.33-.44,.79-.79,1.23-1.16,.95-.81,1.3-1.93,1.49-3.12Zm-5.86-3.09c.88-.05,1.6-.07,2.21-.12-.33-2-.67-3.98-1.02-6.02q-1.84,1.93-1.79,4.65c0,.65,.14,1.21,.6,1.49Zm-1.51-4.58c1.49-1.02,2.07-2.67,3.16-4.33-1.88-.09-3.51,.35-5.14,.51-.3,2.09,.02,2.67,1.98,3.81Zm-4.05,104.48c.19-.14,.28-.6,.19-.86-.56-1.7-1.35-3.16-3.26-3.81-1.67-.56-3.14-1.54-4.44-2.72-.4-.35-.84-.7-.72-1.49,.49,0,.95-.05,1.42,0,.72,.09,1.44,.28,2.16,.37,1.02,.14,1.74-.14,1.93-.7,.21-.58-.33-1.47-1.19-1.93-.05,0-.07-.02-.12-.05-1.21-.42-1.77-1.21-1.51-2.54,.12-.49,.02-.98-.47-1.28-.98-.6-2.74-.86-3.77,.37-1.54,1.81-3.6,2.14-5.86,1.93-.67-.07-1.4,.02-2.02,.23-.6,.19-.77,.79-.72,1.42,.02,.42,.05,.98,.58,1.09,1.23,.28,2.47,.53,3.72,.72,.28,.05,.63-.12,.91-.28,.98-.6,1.88-1.26,2.58-2.21,.47-.63,1.09-1.14,1.65-1.72l.21,.21c-1.3,1.35-2.58,2.7-3.91,4.09,.79-.05,1.26-.7,1.91-.95,.63-.28,1.3-.47,1.98-.63,.95-.23,1.28-.21,1.79-.05-1.02,.28-2.28,.49-3.44,.91-.98,.33-1.86,.91-2.93,1.44,3.23,1.44,6.42,2.88,9.61,4.33-2.6-.21-4.54-2.26-7.12-2.51,.19,.65,.51,1.26,.49,1.84-.05,1.23-.28,2.47-.42,3.72-.19-.84-.26-1.67-.05-2.42,.4-1.51-.16-2.65-1.07-3.7-.28-.33-.74-.47-1.23-.74,.19,2.47,.02,3.47-.79,5.16,.09-.67,.19-1.35,.37-2,.28-1,.19-1.93-.07-2.91-.14-.53-.44-.86-.98-.95-.95-.16-1.93-.37-2.88-.44-1.54-.14-2.79,.49-3.79,1.63-.51,.56-.23,1.33,.53,1.44,.35,.02,.72-.12,1.09-.12,1.09,.02,2.16,.07,3.26,.12,.86,.05,1.26,.6,1.26,1.37-.02,1.19-.05,2.37-.23,3.54-.28,1.63-.35,1.58,1.23,1.28,1.77-.35,2.91,.16,3.37,2.07,.12,.47,.14,.98,.33,1.42,.12,.3,.35,.72,.63,.79,.47,.14,.91-.19,1.02-.65,.12-.63,.23-1.28,.16-1.91-.19-1.28-.53-2.56-.77-3.84-.09-.51-.26-1.12,.35-1.42,.56-.3,1.05,.09,1.4,.47,.47,.44,.93,.95,1.23,1.51,.7,1.37,1.33,2.79,1.98,4.19,.21,.42,.3,.95,.95,1.05,.7-.51,.58-1.26,.53-1.98-.05-.49-.19-1-.12-1.47,.14-.84,.88-1.19,1.67-.84,.19,.09,.33,.28,.51,.33,.28,.07,.7,.21,.86,.07Zm-8.16-55.4c.42-1.12,.19-2.26-.49-3.26-.53-.79-1.07-.88-1.86-.35-.53,.35-1.07,.74-1.58,1.14-1.26,.88-2.16,.53-2.49-.95-.12-.53-.21-1.05-.3-1.58-.14-.65-.49-1.19-1.14-1.26-.63-.09-1.05,.33-1.35,.86-.65,1.12-.86,2.3-.79,3.54,.05,1.09,.26,2.19,.37,3.28,.07,.67,.23,1.35-.23,2.16-.4-.23-.77-.37-1.02-.63-.4-.4-.79-.84-1.07-1.33-.79-1.35-1.44-2.77-1.88-4.23-.26-.91-.42-1.81-.49-2.77-.14-2.05-1.12-3.63-2.91-4.65-.51-.3-1.14-.58-1.7-.05-.53,.53-.53,1.14-.26,1.81,.19,.44,.4,.91,.47,1.37,.26,1.67-.77,2.49-2.35,2-.67-.21-1.33-.42-2-.53-.53-.09-1.05-.02-1.49,.6,.33,.37,.58,.79,.95,1.05,.74,.58,1.54,1.07,2.33,1.58,1.79,1.12,3.3,2.54,4.65,4.14,.35,.42,.65,.93,.84,1.47,.37,.95-.05,1.44-1.05,1.26-.35-.07-.7-.21-1.02-.35-1.44-.6-2.84-1.28-4.3-1.79-.65-.23-1.44-.26-2.14-.16-.86,.14-1.09,1.23-.42,1.79,.37,.3,.84,.51,1.28,.72,.65,.33,1.35,.58,1.98,.93,1.7,.95,2.47,2.63,2.14,4.54-.05,.28-.14,.56-.19,.84-.07,.67,.21,1,.88,.95,.26,0,.49-.12,.72-.14,1.63-.26,3.26-.35,4.86,.02,.63,.14,1.05,.44,1.33,1.09,.63,1.4,1.16,2.79,1.16,4.33,0,.28,.05,.58,.12,.84,.19,.65,.74,.84,1.3,1,.49,.12,.72-.28,.98-.58,1.12-1.26,1.35-2.67,.77-4.21-.44-1.14-.95-2.26-1.44-3.37-.23-.58-.67-.84-1.3-.98-1.33-.3-2.63-.35-3.98,.05-.77,.21-1.6,.47-2.56,.05,1.21-.26,2.26-.56,3.33-.67,1.05-.12,2.12-.02,3.4-.02-.42-.56-.63-1.02-.98-1.33-1.4-1.12-2.86-1.98-4.81-1.54-1.16,.28-2.28-.09-3.21-.81,1.44,.42,2.77,.42,4.12,.28,.72-.07,1.49,.28,2.23,.47,.26,.05,.49,.14,.88,.28-.86-2.12-1.63-4.05-2.44-5.95-.65-1.51-1-3.33-.74-4.35,.09,.35,.16,.67,.26,1.02,1.12,4.37,2.72,8.56,5.54,12.26,.16-.91,.14-1.79,.47-2.47,.7-1.44,.95-2.93,1-4.49,.05-.98,.14-1.93,.21-2.88,.09,0,.21,0,.3,.02-.07,1.54-.02,3.09-.28,4.61-.26,1.47-.81,2.88-1.23,4.33,.07,.02,.16,.05,.23,.09,.23-.42,.44-.86,.7-1.26,.42-.65,.81-1.33,1.26-1.93,.81-1.09,1.65-2.14,2.47-3.19,.19-.26,.35-.53,.53-.79-.47,1.44-1.12,2.79-2.21,3.81-1.05,1-1.65,2.23-2.26,3.47-.33,.7-.35,1.42,.02,2.14,.44,.86,.86,1.74,1.33,2.6,.72,1.26,2.44,1.56,3.51,.56,.37-.35,.65-1,.63-1.49,0-.63-.28-1.28-.63-1.81-.21-.33-.3-.58-.37-.95-.51-2.88,.3-5.37,2.09-7.65,.6-.74,1.02-1.67,1.35-2.58Zm-11.86-62.8c-.88,0-1.56-.05-2.23-.02-5.12,.28-10.14,1.09-15.07,2.4-1.37,.37-2.7,.95-4.02,1.49-.47,.19-.95,.42-1,1.14,2.56-.88,5.05-1.74,7.54-2.63,.02,.12,.07,.21,.09,.33-2.6,1-5.21,2-7.84,3-.56-.91-.7-1.88-.74-2.88-.05-1.47-.09-2.95-.21-4.4-.07-.98-.26-1.91-.37-2.86h-.23c-.09,.33-.16,.65-.26,1-.07-.02-.16-.02-.26-.02,0-.42-.02-.81,0-1.23,.02-.7,.12-1.4,.09-2.07-.05-1.4-.67-2.56-1.44-3.81-.21,.47-.37,.81-.56,1.19-.21-.19-.35-.33-.53-.49-.12,.16-.26,.3-.33,.49-1,2.3-2.19,4.58-2.91,6.98-.79,2.63-1.14,5.42-1.67,8.12-.02,.23,.09,.47,.14,.7,.12,.63-.33,1.05-.88,.84-.3-.12-.56-.35-.86-.49-1.16-.67-2.26-1.49-3.63-1.67-2.93-.4-5.86-.63-8.79-.47-2.07,.14-3.95,.86-5.7,2.21,.37,.4,.63,.74,.98,1.02,1,.81,2,1.65,3.07,2.4,3.49,2.47,7.33,4.05,11.63,4.47,1.28,.14,2.56,.07,4.05-.4-.58,1.09-.98,1.98-1.47,2.81-.72,1.26-1.23,2.56-1.44,4-.51,3.79-.56,7.56,0,11.35,.12,.81,.26,1.67,.93,2.42,.35-.19,.74-.33,1.05-.58,1-.77,2.05-1.49,2.93-2.4,3.3-3.33,5.3-7.4,6.23-11.98,.09-.49,.07-1.07,.84-1.4,.6,.74,1.26,1.51,1.84,2.33,1.51,2.14,3.44,3.81,5.86,4.86,2.07,.88,4.14,1.72,6.23,2.49,1.26,.44,2.58,.72,4,1.12,.02-.37,.07-.49,.05-.6-.7-2.86-1.84-5.54-3.86-7.68-2.19-2.35-4.54-4.56-6.79-6.86-.58-.58-1.16-1.02-2.05-.81-.09,.02-.23-.09-.56-.23,.65-.42,1.14-.88,1.67-1,2-.42,3.81-1.19,5.49-2.3,3.05-2.05,5.91-4.35,8.58-6.86,.65-.63,1.26-1.3,1.86-1.95,.19-.23,.3-.53,.56-1.02Zm-22.05,122.03c-.44-.98-.47-1.02-.67-1.12-3.42-1.65-7-2.88-10.75-3.51-.53-.07-.72-.4-.42-.84,.14-.21,.33-.37,.51-.53,1.23-1.21,2.02-2.65,2.33-4.35,.09-.56,.28-1.09,.4-1.65,.44-2.42,.84-4.84,.16-7.28-.19-.67-.44-1.33-.67-2-.09-.02-.21-.05-.33-.07-.19,.26-.35,.53-.56,.79-2.44,2.95-4.65,6.07-6.33,9.54-.77,1.54-1.4,3.12-1.42,5.07-.7-.56-1.28-1-1.81-1.47-.98-.91-2.05-1.65-3.3-2.02-2.86-.86-5.72-1.7-8.58-2.47-.67-.19-1.42-.35-2.28-.02,.14,.6,.16,1.26,.42,1.77,.56,1.09,1.12,2.19,1.86,3.14,1.93,2.44,4.37,4.26,7.16,5.61,.37,.19,.7,.44,1.28,.84-2.07,.53-3.86,.95-5.61,1.49-1.81,.58-3.26,1.81-4.67,3.05-2.21,1.84-3.16,3-3.47,4.16,1.86,.28,3.74,.35,5.61,.09,3.26-.44,6.3-1.6,9.3-2.88,.77-.35,1.65-.51,1.88-1.6,.47,.51,.56,.95,.58,1.51,0,.98,.02,2.02,.42,2.88,.84,1.84,1.86,3.6,2.88,5.37,.21,.4,.65,.65,1.02,1.02,.91-.77,1.4-1.65,1.84-2.56,1.35-2.67,2.14-5.47,1.77-8.49-.07-.56-.12-1.12-.67-1.44,.3-.63,.88-.37,1.37-.37,1.42-.02,2.84,.02,4.28,.02,.44-.02,1.12,.02,1.28-.21,.49-.77,1.14-.47,1.72-.44,1.28,0,2.4-.42,3.47-1.02Zm-11.68-19.82c.6-.77,1.21-1.51,1.84-2.28-1.26-.35-2.4-.65-3.51-1.02-4.12-1.3-8.33-2-12.65-1.79-5.05,.26-9.49,1.95-13,5.7-2.63,2.79-4.12,6.14-4.19,10.02-.05,3.3,1.44,5.7,4.49,7.07,.14,.07,.28,.14,.44,.21,3.44,1.49,6.98,1.47,10.56,.65,.33-.07,.63-.26,1.05-.44-.81-.65-1.49-1.14-2.4-1.23-1.19-.12-2.35-.35-3.51-.49-2.47-.35-4.63-1.19-6.35-3.09-2.37-2.58-2.56-5.58-.56-8.47,3.26-4.7,7.98-6.74,13.49-6.98,3.91-.16,7.79,.56,11.63,1.28,.91,.19,1.77,.56,2.67,.86Zm-.49,.65c-1.14-.33-2.07-.72-3.07-.86-3.19-.44-6.37-1.02-9.58-1.09-5.67-.14-10.54,1.77-13.95,6.58-1.84,2.56-1.65,5.12,.42,7.44,2.26,2.51,5.23,2.86,8.61,3.12-.53-.51-.88-.86-1.21-1.19-1.3-1.26-2.44-2.65-3.14-4.33-.28-.67-.47-1.4-.56-2.12-.09-.74,.23-1.07,.98-1.09,.81,0,1.63,.07,2.42,.21,3.14,.53,6.21,1.37,9.16,2.56,.93,.37,1.77,1.02,2.63,1.54,.3,.19,.56,.4,.93,.65,1.37-4.23,3.77-7.77,6.37-11.42Zm-12.86,18.4c-.84-.72-1.19-.12-1.58,.28,.47-.09,.93-.16,1.58-.28Z"/><path class="cls-5" d="M215.56,153.66c-.09,.07-.19,.14-.3,.21l-.7-.91c.72-.07,.74,.4,1,.7Z"/><path class="cls-5" d="M212.35,149.75c-.07,.07-.14,.14-.19,.21-.4-.33-.77-.67-1.33-1.16,1-.02,1.19,.51,1.51,.95Z"/><path class="cls-5" d="M211.91,155.1c-.51-.21-1-.44-1.51-.65,.72-.3,1.16,.07,1.51,.65Z"/><path class="cls-5" d="M218.98,131.24c-3.28,2.58-6.91,4.63-10.61,6.51-.28,.14-.63,.14-.95,.21-.02-.09-.05-.16-.07-.26,4.05-1.86,7.72-4.37,11.63-6.47Z"/><path class="cls-5" d="M207.56,153.01s-.09,.12-.16,.16c-.65-.56-1.37-1.09-1.95-1.74-.7-.79-1.47-1.49-2.37-2.07-.53-.35-1.02-.79-1.51-1.23-.28-.26-.6-.51-.58-1.12,2.35,1.98,4.74,3.67,6.58,6Z"/><path class="cls-5" d="M202.93,138.35c-.63,.21-1.02,.3-1.3-.14,.05-.09,.07-.19,.12-.28,.33,.12,.67,.23,1.19,.42Z"/><path class="cls-5" d="M202.07,134.73c-.3,.3-.63,.6-.95,.91,.05,.05,.07,.12,.09,.16,.65-.3,1.28-.63,2.19-1.05-1.35,1.51-2.74,1.95-4.02,1.35,.77-.77,1.74-1.02,2.7-1.37Z"/><path class="cls-5" d="M199.4,143.15c.28,.42,.53,.84,.93,1.42q-.93-.51-.93-1.42Z"/><path class="cls-5" d="M198.51,136.94c1.3,1.19,1.19,2.49-.44,3.7,.28-.53,.51-.88,.65-1.3,.09-.37,.19-.79,.09-1.16-.23-.91-1.47-1.7-2.4-1.7-1.26,.02-1.42,.16-1.86,1.72-.05-1.42-1.21-1.26-1.91-1.98,.74,.12,1.3,.3,1.84,.23,.49-.05,.95-.4,1.47-.63v-1.05c.07,0,.12-.02,.19-.05,.19,.35,.37,.72,.56,1.09,.02-.05,.05-.07,.07-.12,.6,.4,1.23,.74,1.74,1.23Z"/><path class="cls-5" d="M198.23,134.61l-.14,1.12c-.12-.02-.26-.05-.37-.07,.09-.37,.16-.72,.26-1.09,.09,0,.16,.02,.26,.05Z"/><path class="cls-5" d="M197.86,131.73c.09,0,.16,.02,.26,.02-.07,.47-.14,.91-.23,1.42q-.35-.58-.02-1.44Z"/><path class="cls-5" d="M198,127.05v2.4c-.44-.79-.49-1.54,0-2.4Z"/><path class="cls-5" d="M197.4,139.84c-.02,.63-.05,1.02-.09,1.67-.74-.7-.44-1.09,.09-1.67Z"/><path class="cls-5" d="M196.81,143.45c.19,.53,.02,.98-.56,1.35l.28-1.4c.09,.02,.19,.02,.28,.05Z"/><path class="cls-5" d="M196.7,141.45c-1.09,.33-2,.07-2.47-.63-.51-.77-.37-1.56,.21-2.33v.74c-.09,1.23,.14,1.6,1.26,1.98,.23,.07,.47,.12,1,.23Z"/><path class="cls-5" d="M195.56,150.73c.77,.6,.77,.65,.28,1.33-.09-.47-.19-.86-.28-1.33Z"/><path class="cls-5" d="M195.56,138.7c.21,.49,.35,.91,.51,1.33-.84-.09-.93-.33-.51-1.33Z"/><path class="cls-5" d="M193.79,144.22c.56-.42,1-1.09,2-1.05-.7,.63-1.21,1.12-2,1.05Z"/><path class="cls-5" d="M193.77,124.84c-.07,.4-.14,.79-.23,1.19q-.23-.56,.23-1.19Z"/><path class="cls-5" d="M193.6,139.01s.09,.12,.14,.19c-.16,.09-.35,.21-.51,.33-.02-.07-.07-.12-.12-.19,.16-.12,.33-.21,.49-.33Z"/><path class="cls-5" d="M193.42,142.24c-.07,.19-.09,.4-.21,.51-1.05,1.07-1.67,2.4-2.12,3.81-.16,.53-.35,1.05-.98,1.33,.3-1.05,.47-2.05,.86-2.98,.33-.81,.84-1.56,1.35-2.28,.19-.3,.51-.67,1.09-.4Z"/><path class="cls-5" d="M193.21,251.18v.26c-.42-.02-.81-.05-1.23-.05v-.21h1.23Z"/><path class="cls-5" d="M192.84,247.48c-.02,.07-.05,.12-.05,.19-.44-.12-.88-.23-1.3-.35,.02-.07,.05-.14,.05-.21,.44,.12,.86,.23,1.3,.37Z"/><path class="cls-5" d="M192.58,155.78c.07,.09,.14,.21,.21,.3-.26,.16-.51,.35-.77,.51-.07-.07-.12-.16-.19-.26,.26-.19,.51-.37,.74-.56Z"/><path class="cls-5" d="M192.77,128.96c-.19,.86-.35,1.72-.51,2.58-.12-.02-.21-.05-.33-.07,.02-.91,.33-1.74,.56-2.58l.28,.07Z"/><path class="cls-5" d="M192.21,139.91v.44c-.56,.02-1.09,.05-1.63,.07,0-.09-.02-.19-.02-.3,.56-.07,1.09-.14,1.65-.21Z"/><path class="cls-5" d="M191.56,234.02c.65,.74,.4,1.58-1.16,3.77,.14-.35,.23-.72,.4-1.05,.42-.86,1-1.65,.77-2.72Z"/><path class="cls-5" d="M191.74,138.19c0,.09,0,.16-.02,.26l-1.26-.07v-.42c.44,.07,.86,.14,1.28,.23Z"/><path class="cls-5" d="M191.4,157.78c-.47,.67-.93,1.37-1.4,2.05-.07-.07-.14-.14-.21-.19,.33-1.12,.53-1.4,1.6-1.86Z"/><path class="cls-5" d="M189.6,231.29c.4-.49,.77-.95,1.12-1.4-.14,.63-.16,1.35-1.12,1.4Z"/><path class="cls-5" d="M189.58,250.92c-.02,.07-.02,.14-.05,.19l-.63-.14s.02-.09,.02-.14c.21,.02,.44,.07,.65,.09Z"/><path class="cls-5" d="M189.42,232.5s.07,.09,.12,.14l-.56,.49-.14-.21c.19-.14,.37-.28,.58-.42Z"/><path class="cls-5" d="M189.44,149.43c.12,.7-.23,1.19-.4,1.7q-.26-.81,.4-1.7Z"/><path class="cls-5" d="M188.84,241.48c.07,1.05-.53,1.74-1.3,2.35,.21-.4,.47-.81,.67-1.21s.42-.77,.63-1.14Z"/><path class="cls-5" d="M188.81,136.66c-.07,.12-.14,.21-.21,.3-1.14-.37-2.3-.74-3.44-1.12,1.42-.4,2.47,.4,3.65,.81Z"/><path class="cls-5" d="M188.7,153.01v.77h-.23c0-.26-.02-.51-.05-.79,.09,.02,.19,.02,.28,.02Z"/><path class="cls-5" d="M188.3,255.2c.02,.51,0,1.02,0,1.67-.35-.72-.65-3.33-.56-4.72,.16,.07,.28,.12,.42,.19,.05,.95,.12,1.91,.14,2.86Z"/><path class="cls-5" d="M188.16,252.3l.02,.05h-.02v-.05Z"/><path class="cls-5" d="M187.42,249.64c-.33,.23-.65,.44-.93,.7-.63,.49-1.26,.93-2.07,.95-.65,.05-1.19-.14-1.54-.81,.67,.35,1.35,.84,2.12,.37,.44-.26,.93-.53,1.21-.93,.47-.67,.28-1.14-.37-1.67,.37-.3,.77-.63,1.35-1.12-.53,1.07-.72,1.93,.23,2.51Z"/><path class="cls-5" d="M186.56,237.06c-.14,.23-.3,.44-.47,.67-.05-.02-.09-.07-.14-.09l.42-.7c.07,.05,.14,.07,.19,.12Z"/><path class="cls-5" d="M186.46,252.99c-.21,.05-.37,.09-.58,.14,.07,.3,.12,.56,.19,.91-.14-.07-.26-.07-.3-.14-.51-.72-.35-1.4,.05-2.16,.6,.28,.51,.81,.65,1.26Z"/><path class="cls-5" d="M186.14,245.23c-.02,.16,0,.3-.05,.44-.05,.12-.16,.21-.26,.3l-.14-.07,.28-.7s.09,.02,.16,.02Z"/><path class="cls-5" d="M184.77,247.18v.7c-1.14-.56-1.86,.07-2.56,.86,.02-.67,.47-1.05,.95-1.23s1.05-.23,1.6-.33Z"/><path class="cls-5" d="M182.77,256.62c.6,2.09,1.21,4.23,1.79,6.35-.88-1.19-2.02-5.26-1.79-6.35Z"/><path class="cls-5" d="M184.49,244.99c-.02,.35-.02,.7-.05,1.05-.12-.02-.23-.02-.35-.05,.07-.35,.14-.67,.19-1.02,.07,0,.14,0,.21,.02Z"/><path class="cls-5" d="M183.46,248.83c.37-.49,.65-.53,1.14-.14-.44,.05-.72,.09-1.14,.14Z"/><path class="cls-5" d="M183.91,253.02c-.12,.14-.23,.26-.35,.4-.05-.05-.12-.07-.16-.12,.09-.16,.19-.3,.28-.47,.09,.07,.16,.12,.23,.19Z"/><path class="cls-5" d="M183.16,249.48c-.02,.07-.05,.12-.05,.19-.26-.05-.49-.12-.74-.16,.05-.09,.07-.19,.09-.26,.23,.07,.47,.16,.7,.23Z"/><path class="cls-5" d="M178.42,243.25c2.93,1.3,3.67,1.93,4,3.47-.79-.72-1.42-1.28-2.02-1.86-.58-.56-1.54-.7-1.98-1.6Z"/><path class="cls-5" d="M180.42,139.75c.44,.21,.86,.4,1.28,.58-.65,.3-1.07,.14-1.28-.58Z"/><path class="cls-5" d="M180.7,246.6c.14,.37,.3,.77,.53,1.37q-.65-.58-.53-1.37Z"/><path class="cls-5" d="M180.51,248.53c-.02,.09-.07,.16-.09,.26-.3-.14-.58-.28-.88-.42,.05-.07,.07-.14,.09-.21,.3,.14,.6,.26,.88,.37Z"/><path class="cls-5" d="M180.84,134.54c-.79,.28-1.51,.02-2.09-.3-.86-.49-1.65-.63-2.51-.19-.42-.47-.19-.72,.21-.81,.35-.07,.74-.09,1.09,.02,1.12,.4,2.21,.84,3.3,1.28Z"/><path class="cls-5" d="M179.98,250.27l.07,.28-.98,.21c-.02-.07-.02-.14-.05-.19,.33-.09,.63-.21,.95-.3Z"/><path class="cls-5" d="M179.67,139.45c-.05,.07-.09,.16-.14,.23-.33-.14-.65-.3-.95-.47,.05-.12,.12-.23,.19-.35,.3,.21,.6,.4,.91,.58Z"/><path class="cls-5" d="M177.25,242.06c-.05,.09-.12,.16-.16,.26-.35-.19-.67-.4-1-.58,.05-.07,.07-.14,.12-.21,.35,.19,.7,.37,1.05,.53Z"/><path class="cls-5" d="M170,253.04c2.05-.79,4.12-1.6,6.16-2.42-1.91,1.21-3.91,2.16-6.16,2.42Z"/><path class="cls-5" d="M174.77,136.96c.63-.02,.81,.33,.74,.91-.23-.3-.49-.6-.74-.91Z"/><path class="cls-5" d="M174.42,246.2s-.02,.09-.02,.16c-.23-.02-.49-.05-.74-.05,0-.07,.02-.14,.02-.21,.26,.02,.49,.05,.74,.09Z"/><path class="cls-5" d="M173.72,177.96c.3,4.44,.14,8.86-.6,13.26-.37,2.14-.58,4.3-1.14,6.37-1.51,5.63-3.91,10.77-8.51,14.68-2.19,1.86-4.61,3.3-7.26,4.42-.88,.35-1.74,.72-2.6,1.07-3.86,1.56-7.93,1.88-12,1.74-3.63-.09-6.26-2.12-8.33-4.91-2.98-3.98-4.79-8.44-5.42-13.35-.35-2.74-.63-5.51-.81-7.37,.16-9.19,2.47-16.79,7.09-23.7,2.26-3.35,4.98-6.23,8.07-8.79,4.44-3.7,8.58-7.65,11.84-12.47,.4-.56,.91-1.05,1.37-1.56,1.79-1.93,4.74-2.19,7.14-1.23,.3,.12,.6,.44,.77,.74,.44,.84,.63,1.77,.42,2.72-.58,2.65,.02,5.05,1.51,7.33,1.98,3.02,3.93,6.09,5.42,9.42,1.63,3.7,2.79,7.54,3.05,11.63Zm-2.14,12.14c.33-2.81,.56-5.67,.84-8.51-.09-3.21-.47-6.37-1.21-9.47-.42-1.72-.95-3.47-1.79-5.05-1.88-3.6-3.98-7.09-6.02-10.63-.79-1.37-1.37-2.77-1.23-4.4,.07-1.12,.16-2.26,.21-3.4,.09-1.35-.16-1.56-1.47-1.67-2.51-.26-4.42,.72-5.81,2.81-3.23,4.84-7.37,8.81-11.82,12.47-3.26,2.7-6.09,5.74-8.4,9.3-4.49,6.98-6.65,14.58-6.37,22.84,.07,2.16,.4,4.3,.67,6.44,.65,5.28,2.77,9.93,6,14.12,.93,1.19,2.05,2.19,3.47,2.6,1.4,.4,2.86,.72,4.3,.79,2.21,.12,4.4-.23,6.56-.74,3.67-.88,7.07-2.44,10.35-4.3,3.07-1.72,5.56-4.12,7.33-7.19,1.51-2.67,2.65-5.54,3.28-8.54,.51-2.47,.81-4.98,1.12-7.49Z"/><path class="cls-5" d="M172.74,135.49c.42,.51,.74,.91,1.07,1.28q-.95-.07-1.07-1.28Z"/><path class="cls-5" d="M172.02,135.26c.12,.19,.26,.4,.37,.58-.09,.05-.16,.12-.26,.16-.12-.21-.23-.4-.37-.58,.09-.07,.16-.12,.26-.16Z"/><path class="cls-5" d="M172.3,256.67c.02,.07,.05,.16,.07,.23-.28,.09-.56,.16-.84,.23-.02-.05-.02-.12-.05-.16,.26-.12,.53-.21,.81-.3Z"/><path class="cls-5" d="M169.81,241.32c-.3-.35-.6-.72-.95-1.12q.7,.09,.95,1.12Z"/><path class="cls-5" d="M167.44,172.87c1.09,2.63,1.84,5.33,1.79,8.19-.02,1.12-.05,2.21-.07,3.3-.02,.4-.12,.77-.16,1.16-.07,0-.16,.02-.23,.02-.09-.23-.23-.47-.23-.72-.02-1.16-.02-2.35,0-3.54,.02-3.12-.79-6.05-2.09-8.84-.42-.93-.79-1.88-1.14-2.84-.09-.23-.02-.49-.02-.74,.09-.02,.16-.07,.26-.09,.19,.28,.4,.56,.51,.84,.49,1.09,.95,2.16,1.4,3.26Z"/><path class="cls-5" d="M168.63,187.08c.3,1.19-.16,5.88-.63,6.72-.47-1.4-.09-5.77,.63-6.72Z"/><path class="cls-5" d="M167.9,257.74l.07,.28c-.21,.02-.4,.05-.6,.09-.02-.05-.02-.09-.05-.14,.19-.07,.4-.16,.58-.23Z"/><path class="cls-5" d="M167.72,254.69c.07,.07,.12,.14,.16,.21-.26,.21-.51,.42-.77,.6-.05-.07-.12-.16-.19-.23,.26-.21,.53-.4,.79-.58Z"/><path class="cls-5" d="M164.04,166.08l-.12,.12c-.19-.12-.4-.19-.51-.35-.74-1.3-1.54-2.58-2.23-3.93-.6-1.19-1.09-2.44-1.63-3.67-.14-.35-.47-.7,.12-1.3,1.49,3.12,2.93,6.14,4.37,9.14Z"/><path class="cls-5" d="M158.67,207.18c.09,.09,.16,.19,.26,.28-.67,1-1.54,1.79-2.88,2.42,.07-1.02,.79-1.21,1.21-1.58,.44-.42,.95-.74,1.42-1.12Z"/><path class="cls-5" d="M154.74,210.13c-.37,.93-.53,1.05-3.56,2.63-1.28,.65-2.56,1.28-4,1.23-.02-.12-.07-.23-.09-.33,1.28-.56,2.6-1.05,3.86-1.63,1.23-.56,2.44-1.21,3.79-1.91Z"/><path class="cls-5" d="M146.16,238.64c.6,2.05,.63,4.12,.14,6.19-.37,1.6-1.19,2.93-2.54,3.91-3.07,2.23-6.54,3.02-10.28,2.7-.67-.07-1.35-.14-2.28-.21,.33,.26,.4,.35,.49,.4,3.12,1.26,5.51,3.44,7.72,5.86,.35,.4,.67,.84,.91,1.3,.42,.79,.09,1.47-.81,1.58-2.81,.4-5.63,.37-8.37-.47-2.16-.65-4.3-1.49-6.44-2.26-.49-.16-.98-.37-1.54-.6-.16,.79-.23,1.47-.42,2.12-.74,2.35-1.88,4.51-3.37,6.49-.86,1.14-1.63,1.14-2.6,.07-2-2.19-3.05-4.81-3.47-7.7-.16-1.07-.07-2.19-.09-3.28v-.95c-4.42,.14-8.72-.09-12.72-2.93,2.23-1.19,4.3-2.16,6.49-2.91,2.16-.74,4.42-1.3,6.93-2.02-.35-.23-.63-.4-.88-.58-1.02-.77-1.6-1.81-1.93-3.02-.77-2.81-1.3-5.63-1.16-8.63-.19,0-.33-.05-.47-.02-1.67,.35-3.35,.74-5.02,1.07-2.47,.49-4.98,.88-7.44,1.37-2.63,.51-5.28,.51-7.93,.51-2.88,0-6.07,.63-8.35,1.6,.6,.56,1.16,1.05,1.7,1.58,.35,.33,.79,.6,.58,1.21-.21,.65-.65,1.07-1.3,1.12-.56,.05-1.14-.05-1.7-.05-.74,0-1.47-.07-2.19,.07-.95,.16-1.28,.49-1.28,1.47-.02,1.02,0,2.09,.3,3.02,.44,1.4-.49,2.33-1.91,1.93-1.79-.49-2.47-.09-2.98,1.67-.12,.44-.23,.88-.3,1.33-.09,.63-.4,1.05-1.05,1.16-.72,.12-1.42-.16-1.77-.84-.49-1-.74-2.07-.47-3.21,.23-.93,.51-1.88,.74-2.84,.05-.19,.05-.37,.09-.84-.42,.3-.7,.44-.86,.67-.95,1.12-1.7,2.4-2.21,3.79-.23,.67-.51,1.37-.81,2.02-.23,.49-.6,.79-1.16,.77-.53,0-.95-.37-1.07-.86-.16-.65-.19-1.35-.23-2.02,0-.28,.14-.56,.14-.84,.02-.47-.28-.7-.7-.56-.26,.07-.51,.23-.74,.4-.42,.26-.88,.42-1.23,.05-.28-.28-.47-.74-.49-1.16s.16-.88,.35-1.28c.42-.88,.84-1.77,1.4-2.56,.37-.49,.95-.88,1.49-1.19,1.21-.7,2.47-1.3,3.67-1.95,.26-.14,.44-.42,.84-.77-.47,.05-.7,.05-.93,.09-.56,.07-1.14,.23-1.7,.26-2.07,.09-2.58-.4-1.86-2.54,.28-.77,.81-1.33,1.58-1.6,.7-.26,.91-.67,.84-1.42-.12-1.28,.28-1.86,1.47-2.33,1.6-.6,3.19-.58,4.4,.81,1.16,1.37,2.7,1.51,4.3,1.49,.42,0,.81-.07,1.23-.07,1.7,0,2.42,.47,3.09,2.21,.84-.35,1.67-.72,2.7-1.14-.47-.23-.74-.4-1.02-.51-1.26-.58-2.54-1.12-3.77-1.74-4.16-2.05-7.02-5.47-9.72-9.09-1.74-2.35-3.07-4.91-4.21-7.58-2.35-5.44-4.09-11.07-4.86-16.98-.26-2.02-.44-4.07-.44-6.09,.05-3.7-.16-7.35-.72-10.98-.77-4.91-1.47-9.84-2.23-14.75-.14-.98-.37-1.93-.56-2.88-.23-1.21-.6-2.33-1.33-3.37-.53-.77-.72-1.81-.95-2.77-.35-1.44-1.09-2.58-2.23-3.54-1.63-1.37-2.05-2.21-2.14-4.12-.28,.09-.53,.16-.84,.26-.28-.81,.47-1.14,.72-1.72-.49-.67-1-1.35-1.42-2.07-.28-.49-.4-1.07-.63-1.58-.21-.49-.4-1-.7-1.4-.79-1-1.3-.95-2.09,0-.47,.56-.95,1.14-1.54,1.58-.35,.26-.86,.42-1.33,.44s-.79-.28-.84-.86c-.16-3.35,.74-4.47,3.14-5.98,.47-.28,1.16-.35,1.74-.3,1.49,.16,2.93,.3,4.23-.65,.21-.14,.63-.07,.93-.02,1.16,.19,2.3,.35,3.4-.44,.35-.26,.93-.28,1.4-.23,1.26,.12,2.49,.35,3.74,.49,.7,.09,1,.47,1.07,1.12,.14,1.19,.05,2.28-1.02,3.07-.33,.23-.56,.6-.84,.88-.37,.4-.74,.79-1.28,1.35,.07,.95,.37,2.21-.49,3.28,.35,.28,.63,.51,1.16,.93h-1.26c-.05,.09-.09,.16-.09,.23-.02,1.14-.07,2.28-.07,3.42,.02,.77,.02,1.56,.23,2.28,.51,1.86,1.02,3.7,.63,5.65-.09,.47-.05,1,.09,1.44,1.28,4.23,2.21,8.51,2.72,12.91,.05,.28,.12,.53,.23,1.07,.14-.53,.23-.79,.28-1.07,.65-4,2.3-7.63,4.14-11.19,.37-.72,.79-1.44,1.14-2.16,2.05-4.07,4.86-7.51,8.19-10.61,3.02-2.81,6.33-5.23,10.12-6.95,2.47-1.14,5.12-1.65,7.68-2.47,.42-.12,.84-.23,1.42-.42-.33-.26-.49-.4-.67-.51-3.91-2.47-7.51-5.33-10.79-8.58-.56-.53-1.07-1.14-1.51-1.77-.7-1.05-.37-1.79,.88-1.98,.72-.12,1.47-.12,2.19-.07,5.77,.26,11.44,1.19,16.98,2.86,.53,.16,1.07,.4,1.6,.6,.47,.19,.95,.4,1.58,.65,.05-.63,.09-1.09,.09-1.58,.05-2.7,.33-5.37,.86-8.02,.4-2.07,1.21-3.95,2.37-5.72,.51-.74,1.05-.77,1.51,0,.49,.77,.84,1.6,1.23,2.4,1.91,3.63,3.44,7.4,4.05,11.49,.23,1.51,.33,3.07,.49,4.79,.37-.28,.67-.49,.95-.72,1.16-1.05,2.51-1.67,4.07-1.77,2.6-.14,5.21-.33,7.81-.37,2.44-.02,4.61,.95,6.61,2.3,.74,.49,.81,1.02,.21,1.74-.42,.49-.88,.98-1.37,1.4-3.58,3-7.49,5.35-12.12,6.35-1.54,.35-3.14,.49-4.84,.72,.14,.33,.26,.65,.42,.93,.79,1.37,1.19,2.86,1.37,4.42,.47,3.7,.6,7.4,.02,11.09-.16,.95-.51,1.88-.88,2.79-.35,.81-.86,1.02-1.67,.58-1.07-.58-2.14-1.23-3.05-2-3.65-3.14-5.88-7.14-7.16-11.72l-.42-1.4s-.07-.05-.19-.09c-.19,.21-.4,.44-.56,.7-1.58,2.26-3.58,4-6.09,5.16-3.19,1.49-6.42,2.84-9.86,3.63-.88,.19-1.67,.12-2.47-.56,.05-.26,.05-.58,.12-.88,.74-3.19,2.05-6.12,4.28-8.54,1.4-1.49,2.84-2.93,4.26-4.4,.28-.28,.56-.56,.74-1.07-.49,.07-1,.09-1.49,.19-7.79,1.65-14.23,5.51-19.26,11.72-2.05,2.54-3.93,5.21-5.61,8-3.51,5.88-5.3,12.28-5.56,19.07-.4,11,1.28,21.7,5.42,31.96,.77,1.88,1.77,3.67,2.63,5.49,.09,0,.19-.02,.28-.05,.02-.23,.09-.49,.09-.72,.07-1.63,.07-3.26,.19-4.88,.12-1.72,.95-3.19,1.72-4.67,.28-.58,.6-1.14,.95-1.77-.37-.16-.65-.3-.93-.44-1.42-.65-2.02-1.88-1.63-3.4,.19-.7,.49-1.37,.72-2.07,.6-1.95,.47-3.74-.79-5.47-.79-1.07-1.47-2.26-2.05-3.47-.88-1.79-.91-3.6,.3-5.33,.84-1.16,1.88-1.35,3.07-.53,.65,.47,1.33,.93,2,1.4,.07,.02,.16,0,.4,.02,.09-.28,.23-.6,.33-.93,.12-.51,.16-1.05,.33-1.56,.26-.86,.7-1.56,1.7-1.67,1.28-.14,2.09,.28,2.6,1.37,.77,1.67,.86,3.47,.67,5.28-.09,.72-.23,1.44-.4,2.49,.37-.44,.6-.63,.74-.86,1.37-2.16,1.86-4.58,2.12-7.07,.21-2.28,2.12-4.61,4.23-5.21,.95-.26,1.7,0,2.33,.67,.63,.7,.81,1.49,.44,2.37-.23,.53-.47,1.07-.53,1.63-.12,.7,.26,.95,.95,.77,.67-.19,1.33-.47,2-.56,.58-.07,1.23-.05,1.81,.12,1.07,.28,1.37,1.14,.77,2.07-.26,.4-.63,.77-1,1.05-.84,.6-1.7,1.14-2.56,1.7-1.65,1.05-3.09,2.37-4.4,3.84-.26,.3-.47,.65-.84,1.21,.51-.09,.79-.09,1-.19,.95-.47,1.93-.91,2.86-1.42,1.28-.7,2.63-.79,4.02-.65,1.4,.16,2.02,1.33,1.47,2.6-.28,.6-.67,1.09-1.33,1.35-.84,.35-1.65,.72-2.44,1.14-1.49,.77-2.49,1.95-1.91,4,.12,.35,.14,.72,.07,1.09-.16,1.19-1.05,1.74-2.3,1.56-.93-.14-1.86-.26-2.79-.26-2.49-.05-3.63,1.07-3.79,3.58-.05,.74-.14,1.47-.3,2.16-.19,.7-.65,1.23-1.35,1.51-1.02,.42-1.37,.37-2.07-.56-.51-.63-.93-1.3-1.49-2.09-1.05,1.72-2.07,3.4-2.3,5.35-.19,1.6-.23,3.26-.14,4.88,.09,1.58,.4,3.14,.65,4.7,.07,.4,.23,.81,.49,1.09,2.77,3.12,6,5.63,9.98,7.05,3.19,1.14,6.47,1.26,9.79,.91,4.84-.53,9.51-1.88,14.14-3.33,.12-.05,.21-.12,.42-.21-.16-.12-.28-.26-.4-.28-2.28-.58-4.16-1.88-5.98-3.28-1.37-1.07-2-2.54-1.84-4.3,.12-1.14,.95-2,2.14-2.19,.84-.12,2.05,.56,2.42,1.4,.19,.44,.3,.93-.4,1.28-.12-.23-.23-.42-.35-.6-.35-.63-1.19-.86-1.74-.49-.49,.3-.56,.84-.09,1.49,.42,.6,.88,1.19,1.44,1.65,3.3,2.67,7,4,11.26,3.12,1.81-.37,3.54-1.02,5.33-1.4,4.77-1,9.56-1.33,14.28,.14,6.12,1.88,10.28,5.81,12.12,12.05Zm-.56,5.61c.35-1.81,.3-3.58-.21-5.33-1.77-6.05-5.81-9.79-11.72-11.58-4.49-1.35-9.05-1.09-13.56-.12-2.56,.53-5.07,1.33-7.7,2.05,.7,.81,1.35,1.6,1.88,2.26,1.4-.4,2.58-.86,3.81-1.02,2.79-.42,5.58-.74,8.37-1,1.72-.19,3.42-.09,5.12,.26,4.26,.91,7.84,2.86,10.42,6.51,2.09,2.98,1.95,6-.49,8.65-1.58,1.72-3.54,2.58-5.77,2.95-1.44,.26-2.88,.49-4.35,.67-.81,.09-1.4,.56-2.19,1.21,.63,.21,1,.4,1.4,.44,1.7,.19,3.4,.51,5.09,.47,2.6-.07,5.05-.81,7.23-2.33,1.44-1.02,2.33-2.37,2.65-4.09Zm-4.67,.09c2.16-2.35,2.3-4.93,.47-7.54-3.16-4.47-7.65-6.35-12.91-6.54-3.63-.14-7.23,.53-10.81,1.12-.93,.16-1.86,.42-2.79,.98,2.58,3.54,4.93,7.09,6.3,11.28,.26-.16,.49-.28,.65-.42,1.14-1.05,2.49-1.74,3.95-2.16,2.65-.74,5.33-1.47,8-2.14,.74-.19,1.54-.21,2.33-.23,.95-.02,1.28,.33,1.16,1.26-.09,.67-.28,1.35-.53,1.98-.72,1.7-1.86,3.07-3.16,4.33-.3,.3-.6,.63-.91,.93,1.05,.12,2,.07,2.93-.09,2.07-.35,3.88-1.14,5.33-2.74Zm-1.4,15.12c-.23-.4-.35-.74-.56-1-2.91-3.37-6.09-6.28-10.72-6.95-.79-.14-1.58-.28-2.54-.81,.53-.33,.88-.56,1.26-.74,2.79-1.37,5.23-3.19,7.14-5.63,.7-.88,1.26-1.91,1.77-2.91,.3-.6,.51-1.28,.28-2.09-.33,0-.65-.05-.95,0-1.51,.3-3.05,.58-4.54,.98-3.47,.95-6.95,1.86-9.58,4.61-.16,.16-.44,.23-.72,.37-.02-1.67-.56-3.09-1.19-4.44-1.63-3.54-3.86-6.7-6.3-9.72-.28-.37-.65-.67-1.05-1.09-.81,1.74-1.12,3.37-1.09,5.12,.3,.02,.51,.05,.86,.07-.37,.93,.05,1.63,.44,2.35,.23,.37,.33,.79,.49,1.21-.07,.02-.14,.05-.23,.07-.47-.95-.95-1.88-1.51-3.02,.12,2.28,.58,4.3,1.14,6.3,.26,.93,.67,1.74,1.33,2.44,.42,.44,.84,.88,1.21,1.37,.33,.4,.14,.84-.33,.88-1.79,.16-3.49,.7-5.19,1.21-2.14,.65-4.21,1.51-6.12,2.51v.98c1.21,.67,2.47,1.02,3.86,.88,.28-.05,.77-.02,.79,.07,.19,.79,.84,.53,1.28,.56,1.47,.05,2.93,0,4.4,.02,.72,.02,1.44,.14,2.16,.21-.16,1.72-.3,3.21-.42,4.67-.05,0-.09-.02-.12-.02v-4.54c-.28,.35-.49,.53-.56,.77-.12,.47-.21,.95-.23,1.44-.07,3.54,.93,6.74,3,9.63,.19,.23,.44,.42,.74,.72,.44-.47,.86-.79,1.12-1.23,.91-1.56,1.79-3.12,2.6-4.72,.51-1.02,.7-2.16,.58-3.33-.05-.56,.05-1.02,.44-1.37,.37,.37,.63,.84,1.02,1,3.12,1.42,6.3,2.67,9.72,3.26,2.05,.35,4.09,.3,6.3-.07Zm-9.91-8.49q-1.12-.74-1.88-.33c.67,.12,1.19,.21,1.88,.33Zm2.51-114.89c-1.72-1.26-3.6-2.12-5.77-2.07-2.77,.05-5.54,.19-8.28,.42-.79,.05-1.58,.42-2.3,.77-.81,.37-1.54,.91-2.35,1.33-.21,.09-.63,.05-.86-.09-.16-.09-.19-.47-.21-.72-.02-.44,.07-.86,.02-1.3-.05-.56-.21-1.12-.26-1.67-.47-4.67-2.12-8.95-4.3-13.05-.07-.09-.14-.19-.21-.3-.19,.23-.35,.4-.53,.63-.21-.42-.35-.74-.56-1.16-.23,.37-.4,.6-.53,.84-.81,1.44-1,3-.84,4.63,.05,.51,0,1.05,0,1.58h-.16c-.14-.33-.26-.65-.4-.98-.09,0-.19,.02-.28,.05l-.42,6.7c-.07,1.16-.09,2.33-.81,3.47-2.49-1.28-5.3-1.84-7.81-3.14,.05-.09,.07-.16,.09-.26,2.51,.88,5,1.77,7.63,2.67-.19-.79-.72-1.07-1.23-1.26-2-.67-4-1.44-6.05-1.93-4.37-1.05-8.79-1.74-13.3-1.86-.53-.02-1.09,.05-1.67,.07,.05,.28,.05,.42,.12,.51,.23,.33,.47,.65,.74,.95,3.21,3.37,6.84,6.3,10.79,8.75,1.3,.81,2.81,1.33,4.28,1.77,.79,.23,1.35,.58,2.09,1.26-.49,.05-.74,.12-.98,.07-.47-.09-.79,.05-1.12,.35-2.26,2.23-4.58,4.42-6.79,6.7-2.12,2.19-3.47,4.81-4.23,7.74-.07,.3-.12,.6-.21,1.07,.58-.09,1.02-.14,1.44-.26,2.72-.6,5.28-1.67,7.84-2.74,2.98-1.23,5.44-3.09,7.23-5.79,.44-.67,1-1.26,1.51-1.91,.86,.42,.79,1.07,.88,1.58,.7,3.47,2.14,6.61,4.16,9.47,1.35,1.86,2.95,3.47,4.91,4.72,.37,.21,.77,.4,1.19,.6,.56-.91,.77-1.77,.88-2.65,.4-2.84,.44-5.67,.26-8.54-.19-2.58-.63-5.02-2.07-7.21-.3-.47-.53-1-.77-1.54-.07-.16-.09-.35-.12-.58,5.88,1.72,15.89-3.05,19.35-7.68Zm-21.89,95.99c.37-.98,.65-2,1.02-3.14-2.16-.07-4.05-.77-5.86-1.72-1.81-.93-3.42-2.16-4.67-3.81,.05,.98,.49,1.74,1.19,2.3,2.12,1.67,4.33,3.21,7.14,3.54,.47,.05,1.12,.02,1.14,.65,.02,.58-.6,.58-1,.72-5.63,1.93-11.37,3.26-17.3,3.7-2.79,.19-5.61,.21-8.35-.74-4.14-1.47-7.51-4.02-10.42-7.26-.4-.42-.67-1.05-.79-1.63-.49-2.77-.93-5.56-.7-8.37,.14-1.65,.49-3.23,1.28-4.7,.56-1.02,1.07-2.07,1.6-3.09-.47-.37-.67-.12-.84,.19-.42,.7-.84,1.4-1.21,2.12-.91,1.77-1.63,3.56-1.6,5.58,.02,1.6,.05,3.19,.05,4.77,.02,.4-.02,.77-.02,1.16-.09,.02-.19,.05-.28,.09-.21-.21-.44-.37-.6-.6-2.4-3.12-4-6.65-5.21-10.35-2.26-6.93-3.51-14.07-3.95-21.33-.26-3.88-.14-7.74,.37-11.61,.98-7.35,4.05-13.79,8.33-19.75,2.42-3.35,5.07-6.49,8.37-9.02,4.86-3.72,10.33-6.02,16.47-6.61,.53-.05,.93-.19,1.16-.77-.86-.51-1.74-.67-2.7-.42-.56,.14-1.12,.26-1.65,.44-2.44,.77-4.98,1.26-7.33,2.33-3.77,1.7-7.02,4.07-10.05,6.88-3.26,3.02-6.02,6.4-8.02,10.4-.35,.7-.72,1.37-1.09,2.05-2.02,3.84-3.72,7.81-4.3,12.16-.12,.84-.3,1.67-.49,2.51-.05,.21-.16,.37-.35,.81-1.54-5.93-1.81-11.84-3.98-17.3-.05,.26-.02,.49,.02,.72,.47,2.4,.98,4.79,1.37,7.21,.6,3.86,1.14,7.74,1.67,11.63,.28,1.88,.58,3.77,.72,5.67,.14,1.79,0,3.58,.05,5.37,.09,3.65,.51,7.23,1.26,10.81,.67,3.28,1.74,6.44,2.91,9.58,1.3,3.56,2.84,7.02,5.16,10.07,.93,1.23,1.91,2.44,2.86,3.67,1.6,2.05,3.63,3.65,5.91,4.88,2,1.07,4.14,1.91,6.21,2.86,.23,.09,.42,.26,.72,.44-.51,.23-.88,.37-1.26,.56-.35,.19-.7,.4-1.05,.6l-.91,.56c.3,.12,.49,.09,.7,.05,2.49-.81,5.02-1.26,7.68-1.14,2.4,.12,4.81-.05,7.19-.49,3.16-.58,6.35-1.07,9.51-1.67,1.07-.19,2.12-.56,3.16-.91,.3-.09,.65-.4,.77-.67Zm-16.84-35.7c.4-.23,.47-.63,.37-1.07s-.33-.79-.79-.79c-.7,0-1.4,.02-2.05,.16-.47,.09-.88,.4-1.35,.58-1.33,.53-2.63,1.09-3.98,1.56-.3,.09-.86,.05-.98-.14-.21-.28-.23-.77-.12-1.12,.19-.51,.49-1.02,.86-1.47,1.37-1.63,2.91-3.07,4.74-4.19,.77-.47,1.51-.95,2.23-1.51,.35-.28,.6-.7,.93-1.07-.63-.65-1.19-.7-1.77-.56-.53,.12-1.09,.28-1.63,.47-1.72,.58-2.74-.3-2.4-2.09,.07-.4,.26-.77,.37-1.14,.09-.33,.21-.65,.21-.95-.02-.91-.72-1.4-1.58-1.12-.47,.16-.95,.37-1.3,.67-1.14,1.05-2.02,2.28-2.09,3.88-.05,.77-.16,1.49-.33,2.23-.3,1.19-.74,2.37-1.26,3.51-.42,.91-1,1.74-1.6,2.56-.3,.42-.77,.67-1.19,1-.7-.7-.47-1.42-.4-2.07,.12-1.21,.33-2.42,.4-3.63,.07-1.16-.16-2.28-.79-3.3-.3-.51-.7-.95-1.33-.88-.7,.09-1.02,.6-1.16,1.26-.09,.53-.19,1.05-.3,1.58-.35,1.49-1.23,1.84-2.49,.95-.53-.37-1.05-.79-1.58-1.14-.79-.53-1.33-.42-1.86,.37-.65,.95-.93,2.05-.53,3.14,.37,.98,.93,1.88,1.44,2.79,.58,1.07,1.35,2.07,1.74,3.21,.67,1.91,.74,3.86-.35,5.72-.19,.33-.3,.74-.37,1.16-.16,.95,.33,1.7,1.28,2.09,1.14,.44,2.12,.28,2.6-.56,.63-1.05,1.23-2.12,1.67-3.26,.21-.51,.16-1.23-.05-1.77-.51-1.28-1.14-2.51-2.19-3.49-1.21-1.12-1.88-2.58-2.51-4.07,.93,1.19,1.81,2.4,2.67,3.6,.88,1.19,1.74,2.37,2.6,3.56-.33-1.47-.88-2.84-1.12-4.3-.26-1.44-.37-2.95,0-4.44,.16,1.4,.23,2.81,.37,4.21,.09,.72,.23,1.47,.51,2.12,.49,1.09,.98,2.14,.7,3.42,.98-1.44,2.19-2.65,2.81-4.26,.6-1.56,1.3-3.07,1.84-4.65,.47-1.35,.84-2.72,1.23-4.21,.09-.26,.16-.53,.23-.79,0,1.65-.19,3.05-.7,4.4-.77,1.93-1.58,3.84-2.37,5.77-.09,.21-.14,.47-.28,.93,1.42-.93,2.72-1.19,4.16-.86,.56,.12,1.21-.07,1.81-.12l.49-.07c.12,0,.23,.02,.58,.07-1.23,.6-2.3,.79-3.42,.56-2.12-.42-3.56,.72-4.91,2.09-.19,.21-.26,.53-.51,1,2.42-.84,4.44,.12,6.51,.6-.79,.02-1.63,.02-2.4-.19-1.37-.4-2.72-.33-4.09,0-.49,.12-.86,.33-1.05,.74-.58,1.35-1.23,2.67-1.7,4.07-.51,1.54,.07,2.88,1.19,4,.19,.19,.6,.26,.88,.21,.79-.12,1.19-.6,1.21-1.56,.07-1.54,.51-2.95,1.09-4.35,.4-.91,1-1.21,1.84-1.37,.33-.05,.65-.12,.98-.09,1.28,.07,2.58,.14,3.88,.28,1.02,.12,1.35-.19,1.14-1.21-.02-.16-.09-.33-.12-.49-.21-1.56,.05-3.56,2.16-4.63,.65-.33,1.35-.6,2-.93,.4-.19,.79-.4,1.19-.65Zm-12.12,45.19c.79-.12,1.05-.84,.51-1.42-.93-1.07-2.09-1.72-3.54-1.6-1.05,.07-2.09,.28-3.14,.44-.56,.09-.81,.44-.98,.95-.28,1.02-.33,2-.02,3.02,.21,.67,.3,1.4,.47,2.09-.47-.81-.79-1.65-.91-2.54s-.02-1.81-.02-2.91c-.49,.3-.93,.47-1.21,.79-.91,1.05-1.49,2.23-1.05,3.7,.28,.95,.28,1.88-.09,2.74-.12-1.07-.3-2.21-.35-3.33-.05-.6,.12-1.21,.21-1.79,.05-.28,.16-.51,.3-.91-1.65,.56-3.16,1.02-4.51,1.88-.84,.53-1.77,.81-2.93,.91,3.35-1.67,6.74-2.79,9.81-4.58-.79-.33-1.54-.58-2.21-.98-.95-.56-1.91-.88-3-.98-.51-.05-1.02-.14-1.54-.21,1.09-.35,2.14-.09,3.12,.21,.98,.33,1.91,.88,2.84,1.33-.56-.74-1.28-1.28-1.88-1.93-.63-.65-1.14-1.4-1.72-2.12,.65,.37,1.23,.84,1.63,1.42,.67,.98,1.58,1.65,2.56,2.21,.42,.26,1.02,.37,1.51,.33,.95-.12,1.91-.35,2.86-.58,.28-.07,.63-.28,.77-.53,.56-.98-.02-2.14-1.14-2.33-.4-.07-.84-.12-1.21,0-1.12,.28-2.16,0-3.23-.21-1.12-.21-2.05-.77-2.81-1.6-1.02-1.16-2.12-1.35-3.49-.65-.74,.37-.88,.63-.81,1.44,.12,1.6,0,1.77-1.47,2.56-.42,.21-.84,.53-1.09,.93-.58,.86-.21,1.6,.84,1.72,.4,.05,.81,.02,1.21-.05,.65-.09,1.28-.28,1.93-.35,.44-.05,.91,.05,1.65,.09-.47,.63-.7,1.05-1.02,1.37-1.28,1.21-2.77,2.21-4.44,2.74-1.81,.63-2.63,1.95-3.21,3.56-.14,.33-.14,.86,.05,1.14,.33,.44,.72,.05,1.07-.16,.09-.07,.21-.14,.3-.19,.91-.42,1.65,.02,1.72,1.02,.02,.49-.12,.98-.12,1.47-.02,.65-.12,1.33,.56,1.77,.6-.09,.72-.6,.91-1.05,.7-1.42,1.3-2.88,2.07-4.28,.33-.63,.88-1.16,1.42-1.63,.26-.23,.79-.33,1.12-.26,.49,.12,.42,.65,.4,1.05-.02,.33-.12,.65-.16,.95-.23,1.16-.51,2.33-.65,3.49-.07,.58,.07,1.21,.26,1.77,.12,.26,.53,.47,.86,.53,.44,.09,.6-.33,.7-.67,.14-.56,.23-1.12,.4-1.67,.49-1.72,1.6-2.35,3.33-1.93,.4,.09,.77,.21,1.37,.37-.05-.6-.07-1.02-.12-1.44-.09-1.21-.26-2.42-.28-3.63-.02-.88,.47-1.47,1.4-1.54,.98-.05,1.95-.07,2.91-.09,.44,0,.91,.16,1.33,.12Zm-24.75-98.36q2.33-2.07,1.91-3.95c-1.63-.07-3.26-.7-5.05-.4,.35,.53,.7,.91,.84,1.35,.42,1.26,1.44,2.02,2.3,3Zm-.84,15.42c.14-.14,.05-.56-.02-.81-.16-.77-.28-1.54-.56-2.26-.42-1.12-.44-2.21-.3-3.37,.09-.67,.16-1.37,.14-2.05-.07-.86-.44-1.54-1.44-1.88,.07,.81,.09,1.54,.14,2.23-.05,.02-.12,.02-.19,.02-.16-.77-.33-1.54-.51-2.3-.93,0-1.67,.07-1.95,1.05-.05,.21-.37,.35-.56,.53s-.37,.37-.53,.56c-.14-.14-.26-.28-.6-.65-.05,.63-.14,1-.12,1.35,.16,1.37,.86,2.44,1.91,3.3,1.12,.86,1.95,1.95,2.37,3.33,.05,.14,.09,.4,.19,.42,1.12,.4,.63,1.26,.58,1.93,.3,.33,.58,.63,1,1.09,.16-.47,.47-.86,.37-1.09-.26-.51-.33-.91,.09-1.4Zm-.7-11c1.37-1.54,.77-4.63-1.47-6.09,.14,2.14-.19,4.14-1.05,6.09h2.51Zm-1.95-3.07c.26-1.35,.09-2.67,.09-4.05-1,1.47-2.51,1.81-4.14,2.12,.16,.67,.28,1.26,.4,1.81l-.21,.07c-.23-.56-.47-1.14-.74-1.84-1.26,.56-1.81-.67-2.84-1.02-.28,.33-.56,.63-.91,1.05,1.56,.7,2.23,1.91,2.58,3.37,.12,.47,.33,.93,.6,1.33,.3,.42,.7,.79,1.14,1.07,.56,.37,1.14,.37,1.58-.3-.16-.35-.3-.72-.56-1.28,.28,.21,.37,.26,.44,.33,.86,1.09,1.37,1.02,1.88-.3,.28-.77,.51-1.56,.67-2.35Zm-.84-4.86c-2.21-.58-3.98,.07-5.61,1.35,.6,.84,1.3,.95,2.19,.65,.56-.21,1.16-.28,1.77-.4,.88-.14,1.42-.63,1.65-1.6Zm-6.98,1.21c.19-.07,.3-.33,.47-.51-1.86-.56-3.79,.3-4.56,2.07-.44,.98-1.02,2,.05,3.05,.95-.63,1.7-1.42,2.19-2.49,.4-.91,.84-1.74,1.86-2.12Z"/><path class="cls-5" d="M141.9,167.26c-.35,.53-.67,1.07-1.02,1.58-.72,1.02-1.44,2.05-2.21,3.05-.33,.44-.56,1.07-1.54,1.05,1.35-2.21,2.63-4.23,4.44-5.88,.12,.07,.21,.14,.33,.21Z"/><path class="cls-5" d="M136.41,174.64c-.28,.67-.37,1.16-.65,1.51-1.7,2.14-2.21,4.74-2.93,7.28-.12,.4-.07,.91-.63,1.16-.4-.84-.02-1.54,.19-2.23,1.3-4.56,2.26-6.44,4.02-7.72Z"/><path class="cls-5" d="M136.06,256.71c-.44-.3-.72-.49-1.09-.74q.63,.07,1.09,.74Z"/><path class="cls-5" d="M134.51,207.2c.14,.4,.49,.79,.16,1.23-.56,.02-.6-.42-.72-.72-.51-1.58-1.09-3.16-1.51-4.77-.74-2.91-1.74-5.77-1.88-8.81-.05-1-.07-2.02,.05-3.02,.16-1.37,.47-2.72,.72-4.09,.05-.21,.14-.42,.35-.93,.12,.47,.23,.67,.21,.86-.12,1.02-.16,2.05-.4,3.02-.58,2.44-.28,4.88,.21,7.26,.51,2.44,1.19,4.84,1.84,7.23,.26,.93,.67,1.81,.98,2.74Z"/><path class="cls-5" d="M134.13,241.23c-.35,.42-.67,.84-1.02,1.26-.09-.05-.16-.12-.23-.19,.33-.42,.65-.84,1-1.28,.07,.07,.16,.14,.26,.21Z"/><path class="cls-5" d="M126.85,251.74c2.12,.84,4.26,1.67,6.37,2.51-2.35-.33-4.47-1.26-6.37-2.51Z"/><path class="cls-5" d="M131.09,136.47c0,.12,.07,.28,0,.33-.58,.44-1.16,.86-1.84,1.16,.42-.72,.86-1.42,1.84-1.49Z"/><path class="cls-5" d="M130.46,257.97q.53-.09,.95,.33c-.28-.09-.56-.19-.95-.33Z"/><path class="cls-5" d="M129.3,247.13s.05,.12,.05,.16c-.21,.07-.44,.12-.65,.19l-.07-.21c.23-.05,.47-.09,.67-.14Z"/><path class="cls-5" d="M128.23,138.03c-.26,.3-.51,.6-.74,.91-.09-.05-.16-.12-.26-.16,.23-.33,.44-.65,.67-.98,.12,.07,.21,.14,.33,.23Z"/><path class="cls-5" d="M126.95,134.87c-.07,.07-.14,.19-.19,.16-.98-.28-1.86-.12-2.74,.4-.49,.28-1.14,.3-1.7,.42-.02-.09-.07-.21-.09-.3,1.4-.23,2.47-1.33,3.98-1.23,.42,.02,.72,.07,.74,.56Z"/><path class="cls-5" d="M126.69,242.64c.05,.07,.09,.14,.14,.23-.33,.16-.63,.35-.95,.51-.05-.07-.07-.14-.12-.21,.3-.19,.63-.37,.93-.53Z"/><path class="cls-5" d="M124.3,140.05c.02,.09,.07,.19,.09,.3-.33,.14-.63,.28-.95,.42,.19-.47,.42-.79,.86-.72Z"/><path class="cls-5" d="M123.74,251.57c0,.07-.02,.12-.02,.19-.26-.05-.51-.07-.74-.12,0-.07,0-.14,.02-.21,.26,.05,.49,.09,.74,.14Z"/><path class="cls-5" d="M124.39,244.46c-.19,.53-.7,.74-1.12,1.02-.47,.3-.93,.65-1.35,1.02s-.77,.79-1.26,1.26q.05-1.28,3.72-3.3Z"/><path class="cls-5" d="M123.34,249.3l.07,.21c-.3,.12-.58,.21-.88,.33-.02-.05-.05-.12-.07-.19,.28-.12,.58-.23,.88-.35Z"/><path class="cls-5" d="M122.55,247.81c-.14,.4-.26,.79-.4,1.19-.12-.05-.23-.12-.35-.16l.49-1.12c.07,.02,.16,.05,.26,.09Z"/><path class="cls-5" d="M122.57,140.84q-.3,.77-1.23,.58c.37-.19,.77-.37,1.23-.58Z"/><path class="cls-5" d="M120.5,250.3c.05,.07,.07,.12,.12,.19l-.7,.35c-.05-.09-.07-.16-.12-.26l.7-.28Z"/><path class="cls-5" d="M120.41,141.73c0,.09,0,.21,.02,.33-.3,0-.58,.02-.86,.02,0-.09,0-.19-.02-.28,.28-.02,.56-.05,.86-.07Z"/><path class="cls-5" d="M120.18,257.81c.33,.49,.35,.49-.49,3.16-.35,1.07-.47,2.23-1.3,3.16,.58-2.12,1.19-4.26,1.79-6.33Z"/><path class="cls-5" d="M119.27,251.97c.26-.12,.51-.3,.84-.49-.58,.91-1.16,1.19-2.02,.86-.53-.19-1.02-.49-1.51-.79-.42-.28-.81-.63-1.21-.93,.16-.05,.4-.09,.6-.16,.4-.7,.26-1.37-.05-2.07,.4,.3,.79,.58,1.19,.88-.16,.26-.49,.58-.56,.95-.07,.33,.12,.74,.3,1.02,.49,.7,1.72,1.05,2.42,.72Z"/><path class="cls-5" d="M119.25,253.97c.12,.12,.23,.26,.37,.4l-.14,.14-.42-.35c.07-.07,.12-.14,.19-.19Z"/><path class="cls-5" d="M120.71,249.83c-.67-1.05-1.56-1.28-2.72-.77,.12-.33,.19-.56,.23-.77,1,.26,2.23,.09,2.49,1.54Z"/><path class="cls-5" d="M119.36,249.64c-.02,.09-.02,.19-.05,.26-.26-.05-.51-.09-.74-.14,0-.07,0-.12,.02-.19l.77,.07Z"/><path class="cls-5" d="M118.62,246.09l.28,.98c-.12,.02-.23,.05-.33,.07-.05-.35-.12-.67-.16-1,.07-.02,.14-.02,.21-.05Z"/><path class="cls-5" d="M114.16,138.15c.86-.95,2.33-1.47,3.63-1.19-1.14,.37-2.28,.74-3.63,1.19Z"/><path class="cls-5" d="M116.9,252.74c.77,.93,.77,1.44,.05,2.51,.07-.47,.09-.77,.14-1.19-.28,.16-.42,.26-.72,.42,.21-.63,.35-1.14,.53-1.74Z"/><path class="cls-5" d="M116.92,246.25c.09,.21,.21,.44,.3,.65-.07,.02-.12,.07-.16,.09-.12-.21-.23-.42-.37-.63,.09-.05,.16-.09,.23-.12Z"/><path class="cls-5" d="M115.39,244.85c-.07,.02-.14,.07-.21,.12-.42-.77-1.28-1.3-1.14-2.51,.49,.88,.93,1.63,1.35,2.4Z"/><path class="cls-5" d="M114.22,154.08q.33,.35,0,.81v-.81Z"/><path class="cls-5" d="M113.78,150.54c.16,.56,.3,1.14,.44,1.7-.12,.02-.21,.05-.33,.07-.16-.56-.3-1.12-.47-1.67,.12-.02,.23-.05,.35-.09Z"/><path class="cls-5" d="M113.2,160.78c-.07,.05-.14,.09-.21,.12-.12-.12-.23-.21-.3-.33-.37-.56-.74-1.14-1.02-1.74,.86,.4,1.37,1.05,1.54,1.95Z"/><path class="cls-5" d="M110.76,141.05c.58,.05,1.16,.09,1.74,.16-.6,.47-1.19,.47-1.74-.16Z"/><path class="cls-5" d="M111.22,139.29c.4-.09,.81-.16,1.23-.23-.33,.6-.74,.63-1.23,.23Z"/><path class="cls-5" d="M112.18,146.61c.26,.72,.42,1.47,.65,2.37-.81-.44-.88-1.21-1.14-1.86-.28-.72-.67-1.37-.98-2.09-.28-.63-1.09-.93-1.12-1.86,.95,.16,1.37,.81,1.74,1.44,.35,.63,.6,1.33,.84,2Z"/><path class="cls-5" d="M111.64,248.09s.05,.09,.07,.16c-.12,.07-.23,.19-.4,.23-.16,.07-.35,.07-.53,.12-.02-.07-.02-.12-.05-.16l.91-.35Z"/><path class="cls-5" d="M111.06,252.3s-.02,.09-.05,.14h-1.35v-.14h1.4Z"/><path class="cls-5" d="M110.39,130.19c.4,.74,.65,1.56,.6,2.65-.65-.93-.6-1.81-.6-2.65Z"/><path class="cls-5" d="M110.29,156.87c.33,.16,.74,.21,.74,.98-.42-.35-.67-.56-.93-.79l.19-.19Z"/><path class="cls-5" d="M110.27,137.17c-.44,.81-1.14,.67-1.51,1.09-.35,1.23-.21,1.54,1.16,2.23-.37,.02-.58,.05-.77,.07-.3,1.74-1.33,2.56-2.58,2.02,.05-.05,.07-.16,.12-.16,1.81-.42,2.05-.74,1.79-2.49-.05-.28-.07-.58-.16-.84-.44-1.74-1.91-2.16-3.28-.95-1.19,1.02-1.28,1.49-.53,2.84,.12,.19,.23,.37,.44,.74-1.54-1.02-1.77-2.37-.74-3.47,.58-.63,1.19-1.23,2.07-1.33,.21-.44,.4-.81,.58-1.21,.05,.02,.12,.02,.19,.05-.02,.37-.05,.74-.07,1.07,.95,.72,1.98,.93,3.3,.33Z"/><path class="cls-5" d="M109.46,125.96c.12,.37,.23,.74,.33,1.12-.09,.02-.21,.05-.33,.07-.09-.37-.16-.74-.26-1.12,.09-.02,.16-.05,.26-.07Z"/><path class="cls-5" d="M109.2,145.29c-.86,.16-1.3-.47-1.86-.91,.86-.19,1.28,.56,1.86,.91Z"/><path class="cls-5" d="M107.39,139.8c.4,1.02,.37,1.09-.47,1.4,.16-.49,.3-.93,.47-1.4Z"/><path class="cls-5" d="M107.39,151.87c-.09,.4-.16,.81-.23,1.21-.14-.02-.28-.05-.4-.07,.12-.42,.23-.81,.35-1.21l.28,.07Z"/><path class="cls-5" d="M106.04,144.59q.56,.47,.35,1.35c-.12-.44-.23-.91-.35-1.35Z"/><path class="cls-5" d="M106.13,141.8c0,.21-.16,.42-.26,.63-.07-.02-.14-.02-.19-.05-.05-.37-.09-.74-.14-1.21,.44,.02,.56,.33,.58,.63Z"/><path class="cls-5" d="M105.18,132.8c.09,.47,.19,.93,.26,1.4-.12,.02-.23,.05-.33,.05-.09-.47-.16-.91-.23-1.37,.09-.02,.21-.05,.3-.07Z"/><path class="cls-5" d="M104.97,135.54c.07,.42,.16,.84,.26,1.26-.12,.02-.23,.05-.33,.07l-.21-1.26,.28-.07Z"/><path class="cls-5" d="M104.97,128.03c.56,.67,.56,1.26,0,2.72v-2.72Z"/><path class="cls-5" d="M103.6,144.22c.26,.77-.23,1.09-.63,1.47-.07-.05-.16-.09-.26-.14,.3-.44,.58-.88,.88-1.33Z"/><path class="cls-5" d="M103.62,137.24c-1.58,.49-2.79,.09-3.93-1.37,.53,.3,.84,.47,1.14,.6,.28,.14,.56,.26,.95,.21-.28-.26-.58-.53-.88-.79,.98,.21,1.86,.56,2.72,1.35Z"/><path class="cls-5" d="M101.87,148.22c.07,.05,.14,.12,.21,.19-.26,.28-.47,.63-.72,.86-.47,.42-.91,.84-1.42,1.16-.95,.58-1.74,1.33-2.47,2.16-.58,.65-1.3,1.16-1.98,1.74l-.21-.21c.7-.7,1.35-1.42,2.07-2.07,.7-.67,1.44-1.28,2.19-1.91,.77-.65,1.54-1.28,2.33-1.93Z"/><path class="cls-5" d="M100.22,139.42l.98-.42c-.05,.81-.49,.65-.98,.42Z"/><path class="cls-5" d="M100.41,143.33v1.02c-.4-.4-.51-.65,0-1.02Z"/><path class="cls-5" d="M95.55,138.8c-.02,.09-.02,.21-.05,.3-.37-.12-.77-.14-1.09-.3-3.49-1.84-6.93-3.77-10.14-6.07-.16-.09-.26-.26-.33-.47,3.88,2.16,7.61,4.63,11.61,6.54Z"/><path class="cls-5" d="M91.01,155.89c.49-.23,.95-.47,1.42-.7-.23,.72-.79,.79-1.3,.93-.02-.09-.07-.16-.12-.23Z"/><path class="cls-5" d="M91.66,149.66q.05,.79-1.14,1.21c.35-.37,.72-.74,1.14-1.21Z"/><path class="cls-5" d="M88.41,154.1c-.26,.3-.53,.6-.79,.91-.05-.58,.14-.95,.51-1.16,.09,.09,.19,.19,.28,.26Z"/><path class="cls-5" d="M52.06,153.98c1.37,1.19,2.12,1.44,1.86,2.58-.63-.86-1.23-1.72-1.86-2.58Z"/><path class="cls-5" d="M51.01,152.31c.16,.21,.33,.42,.47,.6-.05,.05-.12,.09-.19,.14-.14-.21-.3-.4-.44-.6,.05-.05,.12-.09,.16-.14Z"/></g><rect class="cls-1" x="36.88" y="106.06" width="232.63" height="174.13"/></g><text class="cls-3" transform="translate(52.32 346.16)"><tspan x="0" y="0">Potimarron français – Cucurbita maxima </tspan></text><g><path class="cls-5" d="M197.44,63.68H103.66c-.82,0-1.48-.66-1.48-1.48s.66-1.48,1.48-1.48h93.78c.82,0,1.48,.66,1.48,1.48s-.66,1.48-1.48,1.48Z"/><text class="cls-6" transform="translate(90.83 53.37)"><tspan x="0" y="0">SEME</tspan><tspan class="cls-14" x="62.14" y="0">N</tspan><tspan x="78.37" y="0">CES</tspan></text><text class="cls-6" transform="translate(105.22 84.32)"><tspan class="cls-14" x="0" y="0">D</tspan><tspan x="16.14" y="0">E </tspan><tspan class="cls-8" x="34.77" y="0">P</tspan><tspan class="cls-10" x="47.83" y="0">A</tspan><tspan class="cls-11" x="62.16" y="0">Y</tspan><tspan x="77.47" y="0">S</tspan></text></g><g class="cls-7"><g class="cls-12"><g class="cls-13"><path d="M298.59,387.33c-5.66,0-10.42-4.61-10.32-10.54,.1-5.57,4.67-10.24,10.55-10.13,5.57,.1,10.23,4.68,10.11,10.56-.11,5.59-4.68,10.11-10.34,10.1m4.67-8.27c.39-1.49,.46-2.98,.15-4.49-.34-1.66-1.1-3.13-2.16-4.44-.65-.8-1.38-1.53-2.25-2.1-.16-.11-.29-.11-.46,0-1.52,1.07-2.78,2.38-3.68,4.03-.93,1.7-1.26,3.51-.98,5.42,.19,1.33,.66,2.56,1.31,3.73,.15,.27,.3,.53,.45,.79l-.04,.04c-.28-.22-.57-.42-.84-.65-1.56-1.37-2.46-3.11-2.89-5.11-.05-.22-.07-.45-.13-.67-.03-.11-.13-.19-.2-.29-.08,.07-.18,.13-.25,.21-.04,.05-.06,.13-.08,.2-.55,1.66-.65,3.35-.23,5.05,.56,2.24,1.83,3.94,3.95,4.94,1.64,.77,3.38,.94,5.16,.67,2.58-.39,4.39-1.8,5.4-4.2,.64-1.52,.77-3.11,.54-4.74-.23-1.6-.8-3.06-1.72-4.38-.05-.07-.1-.14-.16-.2-.04-.03-.12-.07-.15-.05-.04,.02-.06,.1-.06,.15,0,.08,.03,.15,.05,.23,.06,.37,.13,.74,.18,1.11,.07,.63,.02,1.27-.08,1.89-.15,1-.43,1.95-.85,2.87"/><path class="cls-9" d="M269.36,387.33c-5.66,0-10.42-4.61-10.32-10.54,.1-5.57,4.67-10.24,10.55-10.13,5.57,.1,10.23,4.68,10.11,10.56-.11,5.59-4.68,10.11-10.34,10.1m4.67-8.27c.39-1.49,.46-2.98,.15-4.49-.34-1.66-1.1-3.13-2.16-4.44-.65-.8-1.38-1.53-2.25-2.1-.16-.11-.29-.11-.46,0-1.52,1.07-2.78,2.38-3.68,4.03-.93,1.7-1.26,3.51-.98,5.42,.19,1.33,.66,2.56,1.31,3.73,.15,.27,.3,.53,.45,.79l-.04,.04c-.28-.22-.57-.42-.84-.65-1.56-1.37-2.46-3.11-2.89-5.11-.05-.22-.07-.45-.13-.67-.03-.11-.13-.19-.2-.29-.08,.07-.18,.13-.25,.21-.04,.05-.06,.13-.08,.2-.55,1.66-.65,3.35-.23,5.05,.56,2.24,1.83,3.94,3.95,4.94,1.64,.77,3.38,.94,5.16,.67,2.58-.39,4.39-1.8,5.4-4.2,.64-1.52,.77-3.11,.54-4.74-.23-1.6-.8-3.06-1.72-4.38-.05-.07-.1-.14-.16-.2-.04-.03-.12-.07-.15-.05-.04,.02-.06,.1-.06,.15,0,.08,.03,.15,.05,.23,.06,.37,.13,.74,.18,1.11,.07,.63,.02,1.27-.08,1.89-.15,1-.43,1.95-.85,2.87"/><path class="cls-9" d="M264.8,390.25c.32,0,.61,.03,.88,.08,.26,.05,.49,.14,.68,.26,.19,.12,.34,.28,.44,.49,.1,.2,.16,.45,.16,.75,0,.32-.08,.59-.23,.81-.15,.21-.38,.39-.69,.53,.42,.11,.73,.31,.93,.59,.2,.28,.31,.62,.31,1.02,0,.32-.07,.6-.2,.84-.13,.24-.31,.43-.53,.58-.22,.15-.48,.26-.77,.33-.29,.07-.58,.11-.88,.11h-3.27v-6.39h3.18Zm-.19,2.59c.26,0,.48-.06,.65-.18,.17-.12,.26-.31,.26-.58,0-.15-.03-.27-.08-.37-.06-.1-.13-.17-.23-.22-.09-.05-.2-.09-.33-.11-.12-.02-.25-.03-.38-.03h-1.39v1.49h1.5Zm.09,2.71c.14,0,.28-.01,.42-.04,.13-.03,.25-.07,.35-.13,.1-.06,.18-.15,.24-.25,.06-.11,.09-.24,.09-.41,0-.33-.1-.56-.29-.7-.2-.14-.45-.21-.78-.21h-1.62v1.75h1.59Z"/><rect class="cls-9" x="268.28" y="390.25" width="1.48" height="6.39"/><path class="cls-9" d="M271,392.14c.15-.41,.37-.76,.65-1.07,.28-.3,.63-.54,1.05-.72,.41-.17,.88-.26,1.4-.26s.99,.09,1.4,.26c.41,.17,.76,.41,1.04,.72,.28,.3,.5,.66,.65,1.07,.15,.41,.23,.85,.23,1.33s-.08,.9-.23,1.3c-.15,.4-.37,.75-.65,1.05-.28,.3-.63,.53-1.04,.7-.41,.17-.88,.25-1.4,.25s-.98-.08-1.4-.25c-.41-.17-.76-.4-1.05-.7-.28-.3-.5-.65-.65-1.05-.15-.4-.23-.84-.23-1.3s.08-.92,.23-1.33m1.36,2.11c.07,.25,.17,.48,.32,.68,.14,.2,.33,.37,.57,.49,.23,.12,.52,.18,.85,.18s.62-.06,.85-.18c.23-.12,.42-.28,.57-.49,.14-.2,.25-.43,.32-.68,.07-.25,.1-.51,.1-.78s-.03-.55-.1-.81c-.07-.26-.17-.5-.32-.7-.15-.21-.33-.37-.57-.49-.23-.12-.52-.18-.85-.18s-.62,.06-.85,.18c-.23,.12-.42,.29-.57,.49-.15,.21-.25,.44-.32,.7-.07,.26-.1,.53-.1,.81s.03,.53,.1,.78"/><path d="M294.03,390.25c.32,0,.61,.03,.88,.08,.26,.05,.49,.14,.68,.26,.19,.12,.34,.28,.44,.49,.1,.2,.16,.45,.16,.75,0,.32-.08,.59-.23,.81-.15,.21-.38,.39-.69,.53,.42,.11,.73,.31,.93,.59,.2,.28,.31,.62,.31,1.02,0,.32-.07,.6-.2,.84-.13,.24-.31,.43-.53,.58-.22,.15-.48,.26-.77,.33-.29,.07-.58,.11-.88,.11h-3.27v-6.39h3.18Zm-.19,2.59c.26,0,.48-.06,.65-.18,.17-.12,.26-.31,.26-.58,0-.15-.03-.27-.09-.37-.06-.1-.13-.17-.23-.22-.09-.05-.2-.09-.33-.11-.12-.02-.25-.03-.38-.03h-1.39v1.49h1.5Zm.09,2.71c.14,0,.28-.01,.42-.04,.13-.03,.25-.07,.35-.13,.1-.06,.18-.15,.24-.25,.06-.11,.09-.24,.09-.41,0-.33-.1-.56-.29-.7-.2-.14-.45-.21-.78-.21h-1.62v1.75h1.59Z"/><rect x="297.51" y="390.25" width="1.48" height="6.39"/></g></g></g></g></svg>