<svg xmlns="http://www.w3.org/2000/svg" viewBox="0 0 277.36 247.84"><defs><style>.cls-1{fill:#fff;}</style></defs><g id="Calque_2" data-name="Calque 2"><g id="Calque_1-2" data-name="Calque 1"><path class="cls-1" d="M29.22,6.9,28.78,7l-.21-1.69-3.16-.92-2.92,10,1,.3-.14.47-4.45-1.29.14-.48,1,.3L23,3.66l-3.26-1c-1.19-.34-2.36-.06-2.72,1.18-.24.82,0,1.83.78,2.06a.3.3,0,0,0,.42-.21c.1-.35-.49-.55-.26-1.35a1.21,1.21,0,0,1,1.64-.78,1.38,1.38,0,0,1,1,1.86C20.27,6.66,19.26,7,18.05,6.61A2.17,2.17,0,0,1,16.5,3.76c.45-1.55,1.94-1.93,3.37-1.52L29,4.89Z"/><path class="cls-1" d="M38.17,18.75c-.43.48-.87.59-1.8.32-1.44-.42-2-1.26-1.65-2.5L36,12.24c.32-1.12.05-1.83-1-2.14a2.7,2.7,0,0,0-2.39.53l-1.8,6.18.94.27-.13.47-4.11-1.19.14-.48.94.28,3.05-10.5-.94-.28.13-.47L34,5.83l-1.24,4.28a3.51,3.51,0,0,1,3.09-.39c2.05.6,2.76,1.85,2.14,4l-1.23,4.25a.54.54,0,0,0,.39.74.63.63,0,0,0,.7-.24Z"/><path class="cls-1" d="M47.43,20l.32.35a4.1,4.1,0,0,1-4.42.94c-2.57-.74-4.43-2.64-3.55-5.7s3.46-3.7,5.72-3.05a4,4,0,0,1,3.13,4.79l-6.26-1.82c-.07.2-.13.42-.2.65-.85,2.92-.18,4.17,1.63,4.69A3.44,3.44,0,0,0,47.43,20ZM42.56,15l3.85,1.12c.46-2.16-.16-2.87-1.06-3.13S43.32,13.16,42.56,15Z"/><path class="cls-1" d="M53,19.38c.88-3,3.5-3.61,6.29-2.8,1.64.48,3.13,1.46,2.71,2.88a1.25,1.25,0,0,1-1.71.93,1.19,1.19,0,0,1-1-1.51c.22-.77.85-.77.94-1.05s-.56-.59-1.08-.74c-1.85-.54-3,.12-3.83,3s-.13,4,1.59,4.47a3.24,3.24,0,0,0,3.41-.83l.34.35a3.88,3.88,0,0,1-4.17.93C54,24.34,52.09,22.43,53,19.38Z"/><path class="cls-1" d="M61.42,25.71l.94.27,3-10.5-.94-.27.14-.47,3.17.92-3.19,11,.94.27-.14.47-4.1-1.19Z"/><path class="cls-1" d="M76.66,29.93c-.43.49-.87.6-1.79.33-1.13-.33-1.74-.93-1.77-1.77-.64.76-1.71.86-3.12.45-1.72-.5-3.37-1.62-2.75-3.75s2.77-2.28,5-1.63a5.24,5.24,0,0,1,1.94.91l.27-.91c.37-1.29,0-2.11-1.68-2.6-.92-.27-2.12-.41-2.28.12s.43.35.24,1a.83.83,0,0,1-1.14.53.93.93,0,0,1-.67-1.18c.26-.86,1.17-1.2,2.34-1.2a6.26,6.26,0,0,1,1.88.28c3,.87,4,2.26,3.31,4.45l-1.21,4.16a.54.54,0,0,0,.4.74.64.64,0,0,0,.7-.24ZM73.43,27l.61-2.1a4.33,4.33,0,0,0-1.35-.6A2.18,2.18,0,0,0,69.61,26c-.47,1.6.22,2.29,1.31,2.61S73,28.57,73.43,27Z"/><path class="cls-1" d="M77.46,28.81a1,1,0,0,1,1.34-.74.92.92,0,0,1,.73,1.17c-.18.62-.72.38-.85.82-.18.63.91,1.2,1.93,1.5,1.33.38,2.47.27,2.77-.78s-.59-1.58-1.7-2.23c-2-1.15-3.14-2.05-2.66-3.71s2.06-2,4-1.42c1.76.51,3.25,1.59,2.88,2.86a.94.94,0,0,1-1.27.67.84.84,0,0,1-.69-1.07c.16-.55.57-.4.67-.73.15-.51-.84-1-1.64-1.2-1.16-.34-2-.24-2.25.43s.83,1.43,2,2.08c1.77,1,3.09,1.87,2.56,3.7s-2.47,2.57-4.69,1.92C78.83,31.58,77,30.37,77.46,28.81Z"/><path class="cls-1" d="M85.88,31.25a1,1,0,0,1,1.33-.73.91.91,0,0,1,.73,1.16c-.18.63-.72.39-.85.82-.18.63.91,1.2,1.93,1.5,1.33.39,2.47.28,2.78-.77s-.6-1.59-1.7-2.23c-2-1.15-3.15-2.05-2.66-3.71s2-2,4-1.43c1.75.51,3.24,1.59,2.87,2.86a.92.92,0,0,1-1.26.67c-.58-.17-.84-.58-.7-1.07s.58-.39.67-.72c.15-.52-.84-1-1.64-1.21-1.15-.33-2-.24-2.25.44s.83,1.43,2,2.07c1.78,1,3.09,1.87,2.56,3.71S91.18,35.17,89,34.52C87.24,34,85.42,32.82,85.88,31.25Z"/><path class="cls-1" d="M94.17,35.22l.94.28,2.08-7.15-.94-.27.13-.47,3.17.92-2.22,7.61,1,.28-.14.47L94,35.69Zm3.69-9.84a1.34,1.34,0,0,1,2.57.75,1.34,1.34,0,0,1-2.57-.75Z"/><path class="cls-1" d="M100.5,33.19c.88-3,3.5-3.61,6.29-2.8,1.64.48,3.13,1.46,2.71,2.88a1.25,1.25,0,0,1-1.71.93,1.19,1.19,0,0,1-1-1.51c.22-.77.85-.77.94-1s-.56-.59-1.08-.74c-1.85-.54-3,.12-3.82,3s-.14,4,1.58,4.47a3.24,3.24,0,0,0,3.41-.83l.34.35a3.88,3.88,0,0,1-4.17.93C101.56,38.15,99.61,36.25,100.5,33.19Z"/><path class="cls-1" d="M127.55,44.93l-.14.47-4.33-1.26.14-.47.94.27-.52-4.23-4.26-1.24-2,2.47a2.56,2.56,0,0,1-3,.88,2.61,2.61,0,0,1-2-3.31,2.12,2.12,0,0,1,2.86-1.4c1.21.35,1.88,1.17,1.56,2.29A1.39,1.39,0,0,1,115,40.48c-.85-.25-1.21-.83-1-1.57s.82-.62.94-1c0-.18,0-.32-.36-.41a1.49,1.49,0,0,0-1.67,1.18,2.37,2.37,0,0,0,4.12,2l6.22-7.84-3.54-1c-1.19-.35-2.36-.06-2.72,1.18a1.61,1.61,0,0,0,.79,2.07c.25.07.41,0,.47-.21s-.49-.55-.26-1.32a1.22,1.22,0,0,1,1.69-.8,1.36,1.36,0,0,1,1,1.85c-.34,1.19-1.35,1.5-2.59,1.14a2.17,2.17,0,0,1-1.58-2.86c.45-1.55,1.94-1.94,3.37-1.52l5.39,1.57,1.44,11.8Zm-4-5.75-.63-5.2-3.24,4.08Z"/><path class="cls-1" d="M145.29,49.88c-.43.49-.87.6-1.79.33-1.45-.42-2-1.27-1.66-2.51l1.31-4.49c.28-1,.08-1.56-.86-1.84a3.58,3.58,0,0,0-2.94.58l-1.72,5.91,1,.27-.14.47-4.11-1.19.14-.47.94.27,1.73-6a1.17,1.17,0,0,0-.95-1.64,3.86,3.86,0,0,0-3.07.64l-1.69,5.81.94.28-.14.47-4.11-1.2.14-.47.94.28,2.08-7.15-.94-.27.13-.48,3.17.93-.36,1.25a4.53,4.53,0,0,1,3.69-.53,3,3,0,0,1,2.41,2.29,4.38,4.38,0,0,1,3.59-.54c2,.59,2.67,2.05,2.11,4l-1.22,4.18a.55.55,0,0,0,.4.75.65.65,0,0,0,.69-.24Z"/><path class="cls-1" d="M154.55,51.11l.32.35a4.14,4.14,0,0,1-4.42.94c-2.57-.75-4.43-2.65-3.54-5.71a4.31,4.31,0,0,1,5.71-3,4,4,0,0,1,3.13,4.79l-6.25-1.82c-.08.2-.14.42-.21.66-.85,2.91-.17,4.16,1.63,4.69A3.48,3.48,0,0,0,154.55,51.11Zm-4.87-5,3.86,1.12c.45-2.16-.17-2.87-1.07-3.13S150.44,44.29,149.68,46.16Z"/><path class="cls-1" d="M165.27,49.11a1.36,1.36,0,0,1-1.82,1,1.21,1.21,0,0,1-1-1.53c.24-.8.77-.65.83-.85s0-.17-.21-.23c-.78-.23-1.78.12-2.9,1.52l-1.45,5,1.1.32-.14.47-4.26-1.24.14-.47.94.28,2.07-7.15-.94-.27.14-.47,3.17.92L160.5,48a3.24,3.24,0,0,1,3.33-1C164.91,47.25,165.61,48,165.27,49.11Z"/><path class="cls-1" d="M164.25,55.59l.94.28,2.08-7.15-.94-.27.13-.48,3.17.93-2.21,7.61.94.28-.14.47-4.11-1.2Zm3.69-9.84a1.21,1.21,0,0,1,1.63-.8,1.23,1.23,0,1,1-1.63.8Z"/><path class="cls-1" d="M170.59,53.56c.87-3,3.49-3.61,6.28-2.8,1.65.48,3.13,1.45,2.72,2.88a1.26,1.26,0,0,1-1.72.93,1.19,1.19,0,0,1-1-1.51c.23-.77.86-.77.94-1.05s-.56-.59-1.08-.74c-1.85-.54-3,.12-3.82,3s-.14,4,1.59,4.48a3.22,3.22,0,0,0,3.4-.83l.34.35a3.87,3.87,0,0,1-4.16.93C171.64,58.52,169.7,56.61,170.59,53.56Z"/><path class="cls-1" d="M189.19,62.64c-.43.48-.87.59-1.79.33-1.13-.33-1.74-.93-1.77-1.78-.65.77-1.71.87-3.12.46-1.73-.5-3.37-1.63-2.75-3.76s2.77-2.27,5-1.63a5.73,5.73,0,0,1,1.95.91l.26-.91c.38-1.28,0-2.11-1.67-2.59-.93-.27-2.13-.42-2.28.12-.11.37.42.34.23,1a.82.82,0,0,1-1.14.53.92.92,0,0,1-.66-1.17c.25-.87,1.17-1.21,2.34-1.21a6.5,6.5,0,0,1,1.87.29c3,.87,3.95,2.25,3.32,4.45l-1.21,4.15a.54.54,0,0,0,.39.74.63.63,0,0,0,.7-.23ZM186,59.71l.61-2.1a4.57,4.57,0,0,0-1.35-.6,2.19,2.19,0,0,0-3.09,1.66c-.46,1.59.22,2.29,1.32,2.61S185.51,61.28,186,59.71Z"/><path class="cls-1" d="M200.49,65.92c-.43.49-.87.6-1.8.33-1.44-.42-2-1.27-1.65-2.5l1.25-4.3c.33-1.13.07-1.83-1-2.14a2.8,2.8,0,0,0-2.52.6L193,64l.94.27-.13.47-4.11-1.19.14-.47.94.27,2.08-7.15-.94-.27.13-.47,3.17.92-.3,1a3.52,3.52,0,0,1,3.2-.48c2,.6,2.76,1.86,2.14,4l-1.23,4.24a.55.55,0,0,0,.39.75.64.64,0,0,0,.7-.24Z"/><path class="cls-1" d="M204.74,67.36l.94.27,3-10.5-.94-.27.14-.47,3.16.92-3.19,11,.94.27-.13.47-4.11-1.19Z"/><path class="cls-1" d="M218.71,69.75l.32.35a4.1,4.1,0,0,1-4.42.94c-2.57-.74-4.43-2.64-3.54-5.7a4.31,4.31,0,0,1,5.71-3.05,4,4,0,0,1,3.13,4.79l-6.25-1.82c-.08.2-.14.42-.21.65-.85,2.92-.17,4.17,1.63,4.69A3.44,3.44,0,0,0,218.71,69.75Zm-4.87-5,3.86,1.12c.45-2.16-.17-2.87-1.07-3.13S214.6,62.94,213.84,64.8Z"/><path class="cls-1" d="M224.91,72.92a1.82,1.82,0,0,1-2.07.52c-1.7-.5-2.33-1.5-1.86-3.11l1.61-5.53-.86-.25.14-.47.86.25.2-.69c1.48.39,1.81.22,2.23-1.14l.47.14L225,65l2,.6-.14.47-2.05-.6L223,71.78a.82.82,0,0,0,.66,1.11.93.93,0,0,0,1-.3Z"/><path class="cls-1" d="M230.7,74.6a1.8,1.8,0,0,1-2.07.52c-1.69-.49-2.32-1.49-1.85-3.1l1.61-5.54-.86-.25.13-.47.87.25.2-.69c1.48.4,1.8.22,2.23-1.13l.47.13-.68,2.34,2.06.6-.14.47-2-.6-1.84,6.33a.82.82,0,0,0,.66,1.11.94.94,0,0,0,1-.29Z"/><path class="cls-1" d="M239.92,75.92l.33.35a4.13,4.13,0,0,1-4.43.94c-2.57-.75-4.43-2.65-3.54-5.7A4.31,4.31,0,0,1,238,68.46a4,4,0,0,1,3.13,4.78l-6.26-1.81c-.07.2-.14.41-.21.65-.84,2.92-.17,4.17,1.63,4.69A3.47,3.47,0,0,0,239.92,75.92Zm-4.87-5,3.86,1.12c.46-2.16-.17-2.87-1.06-3.13S235.82,69.1,235.05,71Z"/><path class="cls-1" d="M250.65,73.92a1.38,1.38,0,0,1-1.83,1,1.21,1.21,0,0,1-1-1.54c.23-.8.76-.65.82-.85s0-.17-.2-.23c-.79-.23-1.79.13-2.91,1.52l-1.44,5,1.09.32-.13.47-4.27-1.24.14-.47.94.27L244,71l-.94-.27.14-.47,3.16.92-.46,1.6a3.25,3.25,0,0,1,3.32-1C250.29,72.06,251,72.76,250.65,73.92Z"/><path class="cls-1" d="M249.63,80.41l.94.27,2.07-7.15-.94-.27.14-.47,3.17.92-2.22,7.62.94.27-.13.47-4.11-1.19Zm3.69-9.84a1.34,1.34,0,1,1,.94,1.55A1.2,1.2,0,0,1,253.32,70.57Z"/><path class="cls-1" d="M265.63,84.85c-.43.49-.87.6-1.79.33-1.44-.42-2-1.26-1.65-2.5l1.25-4.29c.32-1.13.07-1.84-1-2.14a2.82,2.82,0,0,0-2.52.59l-1.76,6,.94.28-.13.47-4.11-1.2L255,82l.94.27L258,75.1l-.94-.28.14-.47,3.17.92-.3,1a3.5,3.5,0,0,1,3.19-.48c2.06.59,2.76,1.85,2.15,4l-1.24,4.25a.54.54,0,0,0,.4.74.63.63,0,0,0,.7-.24Z"/><path class="cls-1" d="M274.73,89.1c-.5,1.74-2.45,2.52-5.67,1.58-2.7-.79-4.08-2.12-3.64-3.63.26-.91,1-1.33,2.18-1.35a1.8,1.8,0,0,1,1.2-2.58,2.67,2.67,0,0,1-1-2.86c.55-1.88,2.6-2.34,4.92-1.67a7,7,0,0,1,1.91.86,3.08,3.08,0,0,1,.1-1.1c.3-1,.9-1.29,1.67-1.07s1.05.72.89,1.28a.88.88,0,0,1-1.2.62c-.53-.15-.41-.41-.63-.47s-.24.07-.29.24a2.32,2.32,0,0,0,0,.93,2.6,2.6,0,0,1,.83,2.76c-.55,1.86-2.58,2.32-4.89,1.65a6.59,6.59,0,0,1-2-.91.71.71,0,0,0-.4.44c-.11.38.08.6,1.05,1s2.49,1,2.71,1C273.92,86.41,275.22,87.44,274.73,89.1Zm-2.51.32c.27-.91-.29-1.51-1.35-1.9-.62-.24-1.3-.5-2-.79a3,3,0,0,1-1-.6,1.9,1.9,0,0,0-1.13,1.25c-.37,1.29.59,2.26,2.5,2.82C270.93,90.68,271.92,90.46,272.22,89.42Zm-2-8.48c-.48,1.66-.14,2.49,1.07,2.84s1.93-.17,2.41-1.83.16-2.5-1.05-2.85S270.67,79.26,270.18,80.94Z"/><path class="cls-1" d="M28.42,38.14l-.45.07-.21-1.67-3.21-.94-2.92,10,1.05.3-.13.47-4-1.17.13-.47,1,.3L22.6,35l-3.13-.91A1.79,1.79,0,0,0,17,35.2a1.42,1.42,0,0,0,.7,1.85.29.29,0,0,0,.4-.19c.08-.3-.36-.46-.18-1.09a1,1,0,0,1,1.37-.67,1.16,1.16,0,0,1,.85,1.57c-.28,1-1.13,1.32-2.24,1a2,2,0,0,1-1.41-2.6c.42-1.45,1.78-1.8,3.12-1.41l8.57,2.49Z"/><path class="cls-1" d="M37,50c-.39.45-.82.54-1.62.31-1.24-.36-1.75-1.12-1.44-2.2l1.23-4.22c.39-1.35.1-2.15-1.11-2.5a3.12,3.12,0,0,0-2.82.64l-1.73,5.94.94.28-.13.47-3.69-1.07.14-.47.94.27,3.05-10.5-.94-.27.14-.47,2.74.79-1.31,4.52A3.74,3.74,0,0,1,34.8,41c2,.58,2.66,1.84,2,4l-1.21,4.15a.56.56,0,0,0,.39.78.61.61,0,0,0,.66-.22Z"/><path class="cls-1" d="M46.18,51.14l.31.34a4.21,4.21,0,0,1-4.41.91c-2.56-.74-4.28-2.7-3.42-5.65a4.31,4.31,0,0,1,5.69-3,3.91,3.91,0,0,1,3,4.66l-6.55-1.9c-.09.23-.17.46-.25.73-.81,2.79,0,4.21,1.9,4.76A3.59,3.59,0,0,0,46.18,51.14ZM41,46l4.58,1.33c.4-2-.34-2.82-1.42-3.13S41.85,44.3,41,46Z"/><path class="cls-1" d="M51.79,50.56c.84-2.92,3.37-3.65,6.13-2.84,1.64.47,3.12,1.52,2.73,2.86a1.09,1.09,0,0,1-1.48.82,1,1,0,0,1-.82-1.31c.19-.68.72-.66.79-.93s-.74-.76-1.34-.93c-2-.58-3.31.17-4.12,2.93s0,4,1.86,4.55A3.32,3.32,0,0,0,59,54.89l.31.31a3.88,3.88,0,0,1-4.17,1C52.71,55.45,50.94,53.47,51.79,50.56Z"/><path class="cls-1" d="M60.14,56.83l.94.27,3-10.5-.94-.27.14-.47,2.74.79-3.19,11,.95.28-.14.47L60,57.3Z"/><path class="cls-1" d="M74.62,60.88c-.39.45-.82.55-1.62.31-1-.3-1.55-.87-1.52-1.68-.71.75-1.81.84-3.19.43-1.75-.51-3.31-1.65-2.71-3.71s2.67-2.3,4.93-1.64a5.46,5.46,0,0,1,2,1l.25-.83c.4-1.39-.06-2.26-1.78-2.76-1-.27-2.23-.41-2.39.14-.1.35.38.32.21.91a.75.75,0,0,1-1,.49.83.83,0,0,1-.59-1.08c.22-.78,1-1.16,2.21-1.17a6,6,0,0,1,1.89.26c2.81.82,3.72,2.19,3.1,4.3L73.22,60a.55.55,0,0,0,.38.77.58.58,0,0,0,.66-.21ZM71.86,58l.57-2a4.78,4.78,0,0,0-1.6-.75c-1.49-.43-2.8-.19-3.32,1.6a1.92,1.92,0,0,0,1.54,2.69A2,2,0,0,0,71.86,58Z"/><path class="cls-1" d="M75.39,59.77a.92.92,0,0,1,1.25-.71.83.83,0,0,1,.65,1.07c-.16.58-.64.36-.76.76-.18.63.91,1.24,2,1.55,1.38.4,2.58.25,2.91-.89s-.58-1.63-2-2.42c-1.82-1.06-2.91-1.94-2.46-3.47s2-1.89,3.85-1.35,3.21,1.56,2.85,2.8a.86.86,0,0,1-1.16.64c-.53-.16-.78-.54-.65-1s.53-.36.62-.67c.15-.52-.88-1-1.71-1.25-1.2-.35-2.17-.25-2.39.5s.87,1.53,2,2.19c1.76,1,3,1.84,2.51,3.58-.55,1.9-2.4,2.47-4.53,1.85C76.78,62.48,75,61.3,75.39,59.77Z"/><path class="cls-1" d="M83.65,62.16a.92.92,0,0,1,1.24-.71.84.84,0,0,1,.66,1.08c-.17.58-.65.36-.77.76-.18.63.92,1.24,2,1.55,1.38.4,2.57.25,2.91-.89s-.58-1.63-2-2.42c-1.82-1.06-2.9-1.94-2.46-3.47s2-1.89,3.86-1.35c1.71.5,3.2,1.56,2.84,2.8a.85.85,0,0,1-1.15.64c-.53-.16-.78-.54-.65-1s.53-.36.62-.67c.15-.52-.88-1-1.71-1.25-1.21-.35-2.17-.25-2.39.5s.87,1.53,2,2.19c1.77,1,3,1.84,2.51,3.58-.55,1.9-2.39,2.47-4.53,1.85C85,64.88,83.2,63.7,83.65,62.16Z"/><path class="cls-1" d="M91.79,66l.94.27,2.07-7.12-.94-.27.13-.47,2.75.8-2.21,7.58.94.28-.13.47L91.65,66.5Zm3.66-9.79a1.14,1.14,0,0,1,2.18.64,1.14,1.14,0,0,1-2.18-.64Z"/><path class="cls-1" d="M97.71,63.9c.84-2.91,3.37-3.64,6.13-2.84,1.64.48,3.12,1.52,2.73,2.87a1.08,1.08,0,0,1-1.47.81,1,1,0,0,1-.83-1.31c.2-.67.72-.66.8-.92s-.75-.76-1.35-.94c-2-.57-3.31.18-4.11,2.94s0,4,1.85,4.55a3.31,3.31,0,0,0,3.49-.83l.31.32a3.88,3.88,0,0,1-4.17,1C98.63,68.8,96.86,66.82,97.71,63.9Z"/><path class="cls-1" d="M124.17,75.43l-.14.48-3.86-1.13.14-.47,1,.28-.52-4.23L116.2,69l-2,2.46a2.43,2.43,0,0,1-2.9.94,2.4,2.4,0,0,1-1.84-3,1.94,1.94,0,0,1,2.61-1.31c1.11.32,1.63,1.09,1.37,2a1.16,1.16,0,0,1-1.54.91,1,1,0,0,1-.83-1.32c.17-.58.64-.5.74-.83,0-.15,0-.29-.33-.38A1.36,1.36,0,0,0,110,69.57a1.86,1.86,0,0,0,1.46,2.37,2,2,0,0,0,2.4-.74l6.22-7.83-3.21-.94c-1.08-.31-2.14-.06-2.47,1.07a1.43,1.43,0,0,0,.72,1.86c.25.07.39,0,.44-.18s-.36-.46-.18-1.06a1,1,0,0,1,1.42-.69A1.15,1.15,0,0,1,117.6,65c-.29,1-1.14,1.32-2.3,1a2,2,0,0,1-1.41-2.61c.41-1.44,1.77-1.79,3.11-1.41l4.84,1.41,1.46,11.81Zm-3.48-5.59L120,64.25l-3.48,4.37Z"/><path class="cls-1" d="M141.36,80.28c-.38.45-.8.55-1.62.31-1.22-.35-1.75-1.12-1.43-2.2l1.26-4.33c.36-1.23.09-2-1-2.27a3.61,3.61,0,0,0-3.13.65l-1.68,5.79.94.27-.14.47-3.68-1.07.13-.47.94.27L133.61,72a1.39,1.39,0,0,0-1.05-2,3.87,3.87,0,0,0-3.31.74l-1.64,5.66.94.27-.14.47-3.68-1.07.13-.47.94.27,2.07-7.11-.94-.28.14-.47,2.74.8-.39,1.36a4.43,4.43,0,0,1,3.78-.61,2.8,2.8,0,0,1,2.29,2.34,4.25,4.25,0,0,1,3.66-.61c1.95.56,2.59,2,2,4L140,79.42a.55.55,0,0,0,.4.77A.59.59,0,0,0,141,80Z"/><path class="cls-1" d="M150.53,81.47l.31.34a4.21,4.21,0,0,1-4.41.91C143.87,82,142.15,80,143,77.07a4.32,4.32,0,0,1,5.7-3,3.89,3.89,0,0,1,3,4.66l-6.55-1.9c-.08.23-.17.46-.24.72-.81,2.79,0,4.22,1.89,4.77A3.63,3.63,0,0,0,150.53,81.47Zm-5.14-5.14L150,77.66c.4-2-.34-2.81-1.42-3.13S146.19,74.63,145.39,76.33Z"/><path class="cls-1" d="M160.68,79.06a1.17,1.17,0,0,1-1.55.89,1,1,0,0,1-.83-1.31c.19-.64.61-.53.66-.71s0-.17-.2-.23c-.8-.23-1.85.16-3,1.56l-1.44,4.94,1.1.32-.14.47-3.84-1.12.14-.47.94.28,2.07-7.12-.94-.27.13-.47,2.75.79L156,78.29a3.29,3.29,0,0,1,3.33-1.12C160.41,77.47,161,78.12,160.68,79.06Z"/><path class="cls-1" d="M159.58,85.73l.94.27,2.07-7.11-.94-.28.14-.47,2.74.8-2.2,7.59.94.27-.14.47-3.68-1.07ZM163.24,76a1,1,0,0,1,1.4-.7,1,1,0,0,1,.78,1.33,1,1,0,0,1-1.37.69A1,1,0,0,1,163.24,76Z"/><path class="cls-1" d="M165.5,83.61c.85-2.92,3.37-3.65,6.13-2.84,1.65.47,3.13,1.52,2.74,2.86a1.1,1.1,0,0,1-1.48.82,1,1,0,0,1-.83-1.32c.2-.67.72-.65.8-.92s-.75-.76-1.34-.93c-2-.58-3.32.17-4.12,2.93s0,4,1.86,4.55a3.3,3.3,0,0,0,3.48-.82l.32.31a3.86,3.86,0,0,1-4.17,1C166.43,88.5,164.65,86.52,165.5,83.61Z"/><path class="cls-1" d="M183.62,92.56c-.39.45-.82.54-1.62.31-1-.3-1.55-.87-1.52-1.68-.71.75-1.81.83-3.19.43-1.75-.51-3.31-1.66-2.71-3.71s2.68-2.3,4.93-1.64a5.6,5.6,0,0,1,2.05,1l.24-.83c.4-1.39-.06-2.26-1.78-2.76-1-.27-2.23-.41-2.39.14-.1.35.38.32.21.91a.75.75,0,0,1-1,.49.83.83,0,0,1-.59-1.08c.22-.78,1-1.16,2.21-1.17a5.68,5.68,0,0,1,1.89.26c2.81.82,3.72,2.18,3.11,4.3l-1.22,4.19a.55.55,0,0,0,.39.77.57.57,0,0,0,.65-.22Zm-2.76-2.92.57-2a4.78,4.78,0,0,0-1.6-.75c-1.49-.43-2.8-.19-3.32,1.6a1.92,1.92,0,0,0,1.54,2.69A2,2,0,0,0,180.86,89.64Z"/><path class="cls-1" d="M194.55,95.74c-.38.45-.8.55-1.62.31-1.22-.35-1.75-1.12-1.43-2.2l1.21-4.19c.4-1.34.12-2.14-1.07-2.49a3.15,3.15,0,0,0-2.93.72L187,93.7,188,94l-.14.47-3.68-1.07.14-.47.94.27,2.06-7.12-.94-.27.14-.47,2.74.8-.35,1.2a3.79,3.79,0,0,1,3.46-.59c2,.58,2.66,1.84,2,4l-1.2,4.15a.56.56,0,0,0,.4.78.59.59,0,0,0,.66-.21Z"/><path class="cls-1" d="M198.82,97.13l.94.27,3.05-10.5-.94-.27.13-.47,2.75.8-3.19,11,.94.27-.14.47-3.68-1.07Z"/><path class="cls-1" d="M212.26,99.41l.31.34a4.21,4.21,0,0,1-4.41.91c-2.56-.74-4.28-2.7-3.43-5.65a4.32,4.32,0,0,1,5.7-3,3.9,3.9,0,0,1,3,4.66l-6.56-1.9c-.08.23-.16.46-.24.73-.81,2.79,0,4.21,1.89,4.76A3.63,3.63,0,0,0,212.26,99.41Zm-5.14-5.13,4.58,1.33c.4-2-.34-2.82-1.42-3.14S207.92,92.57,207.12,94.28Z"/><path class="cls-1" d="M218,102.49a1.66,1.66,0,0,1-1.89.47c-1.47-.43-2.06-1.35-1.63-2.8l1.66-5.71-.87-.25.14-.47.86.25.23-.78c1.15.3,1.42.15,1.78-1l.44.13-.65,2.22,2,.6-.14.47-2-.6-1.84,6.32a.85.85,0,0,0,.67,1.15.91.91,0,0,0,.94-.26Z"/><path class="cls-1" d="M223.33,104a1.64,1.64,0,0,1-1.88.47,2,2,0,0,1-1.64-2.81l1.66-5.7-.86-.25.14-.47.86.25.23-.79c1.15.31,1.41.16,1.78-1l.44.13-.65,2.22,2,.59-.14.47-2-.59-1.83,6.32a.84.84,0,0,0,.67,1.15.93.93,0,0,0,.94-.26Z"/><path class="cls-1" d="M232.46,105.28l.3.34a4.21,4.21,0,0,1-4.41.91c-2.55-.74-4.28-2.7-3.42-5.65a4.31,4.31,0,0,1,5.69-3,3.9,3.9,0,0,1,3,4.66l-6.55-1.9c-.09.23-.17.46-.25.72-.81,2.8,0,4.22,1.9,4.77A3.63,3.63,0,0,0,232.46,105.28Zm-5.14-5.13,4.57,1.33c.41-2-.33-2.82-1.41-3.14S228.12,98.44,227.32,100.15Z"/><path class="cls-1" d="M242.6,102.87a1.16,1.16,0,0,1-1.55.89,1,1,0,0,1-.83-1.31c.19-.64.62-.53.67-.71s0-.17-.21-.23c-.79-.23-1.84.16-3,1.56L236.25,108l1.09.32-.13.47-3.84-1.12.13-.47.94.28,2.07-7.12-.94-.27.14-.47,2.74.79L238,102.1A3.31,3.31,0,0,1,241.3,101C242.33,101.28,242.88,101.93,242.6,102.87Z"/><path class="cls-1" d="M241.51,109.54l.94.27,2.07-7.11-.94-.28.14-.47,2.74.8-2.21,7.59.94.27-.13.47L241.37,110Zm3.66-9.78a1.14,1.14,0,0,1,2.18.63,1,1,0,0,1-1.38.69A1,1,0,0,1,245.17,99.76Z"/><path class="cls-1" d="M256.74,113.81c-.39.45-.81.55-1.62.31-1.23-.35-1.75-1.12-1.44-2.2l1.22-4.18c.39-1.35.11-2.15-1.08-2.49a3.12,3.12,0,0,0-2.93.71l-1.69,5.82.94.27-.13.47-3.69-1.07.14-.47.94.27,2.07-7.11-.94-.28.14-.47,2.74.8-.35,1.21a3.78,3.78,0,0,1,3.45-.6c2,.58,2.66,1.85,2,4L255.34,113a.57.57,0,0,0,.4.78.61.61,0,0,0,.66-.22Z"/><path class="cls-1" d="M265.41,117.93c-.5,1.74-2.38,2.47-5.38,1.6-2.58-.75-3.92-2.11-3.47-3.66a2.22,2.22,0,0,1,2.28-1.52,1.47,1.47,0,0,1-.1-1.14,1.54,1.54,0,0,1,1.15-1.15,2.65,2.65,0,0,1-.95-2.86c.54-1.85,2.51-2.37,4.72-1.72a5.67,5.67,0,0,1,1.82.85,2.58,2.58,0,0,1,.1-1c.27-.93.86-1.25,1.59-1s.95.65.81,1.16a.79.79,0,0,1-1.07.55c-.5-.14-.39-.4-.58-.45s-.27.12-.33.31a2.63,2.63,0,0,0,0,1,2.61,2.61,0,0,1,.72,2.68c-.53,1.82-2.48,2.34-4.68,1.7a6.21,6.21,0,0,1-1.8-.82.77.77,0,0,0-.39.46c-.1.36.05.61.9,1s2.3.89,2.57,1C264.57,115.27,265.91,116.22,265.41,117.93Zm-2,.18c.3-1-.35-1.6-1.42-2l-2-.81a2.84,2.84,0,0,1-.83-.54,2,2,0,0,0-1.41,1.39c-.39,1.33.61,2.35,2.51,2.9C261.92,119.53,263.06,119.29,263.4,118.11Zm-2.55-8.35c-.47,1.61,0,2.52,1.3,2.89s2.17-.14,2.64-1.75,0-2.55-1.28-2.92S261.33,108.11,260.85,109.76Z"/><path class="cls-1" d="M27.71,72.05l-.43.07-.21-1.67-3.26-1-2.92,10,1.07.31-.14.47-3.67-1.06.14-.47,1.05.3,2.92-10-3-.88c-1-.29-1.94-.07-2.24,1a1.29,1.29,0,0,0,.64,1.68.28.28,0,0,0,.39-.18c.07-.25-.27-.37-.12-.87A.84.84,0,0,1,19,69.22a1,1,0,0,1,.71,1.31c-.24.8-1,1.17-2,.87A1.8,1.8,0,0,1,16.49,69a2.11,2.11,0,0,1,2.88-1.31l8.1,2.36Z"/><path class="cls-1" d="M36,83.82a1.21,1.21,0,0,1-1.47.32c-1.06-.31-1.52-1-1.24-2l1.19-4.11c.45-1.53.15-2.44-1.19-2.82a3.53,3.53,0,0,0-3.19.75l-1.67,5.74.94.27-.13.47-3.31-1,.14-.47.94.27,3.05-10.5-.94-.27.13-.47,2.37.68L30.3,75.47a4,4,0,0,1,3.61-.63c2,.56,2.58,1.83,2,4l-1.19,4.09a.55.55,0,0,0,.39.77.58.58,0,0,0,.65-.18Z"/><path class="cls-1" d="M45.11,85l.31.34a4.36,4.36,0,0,1-4.41.9c-2.54-.74-4.14-2.77-3.32-5.61a4.29,4.29,0,0,1,5.67-3,3.79,3.79,0,0,1,3,4.53l-6.82-2a7.44,7.44,0,0,0-.29.8c-.78,2.68.18,4.25,2.15,4.83A3.68,3.68,0,0,0,45.11,85Zm-5.37-5.28L45,81.19c.33-1.9-.49-2.76-1.73-3.12A2.81,2.81,0,0,0,39.74,79.68Z"/><path class="cls-1" d="M50.76,84.39c.81-2.81,3.25-3.66,6-2.86,1.63.47,3.13,1.57,2.75,2.85a.93.93,0,0,1-1.27.7.88.88,0,0,1-.71-1.14c.17-.58.63-.56.7-.8.12-.44-.93-.91-1.59-1.1-2.08-.61-3.61.2-4.37,2.82s.21,4.07,2.09,4.62a3.42,3.42,0,0,0,3.56-.8l.3.29A3.91,3.91,0,0,1,54,90C51.56,89.23,49.94,87.19,50.76,84.39Z"/><path class="cls-1" d="M59.06,90.62l.94.28,3-10.5-.94-.28.13-.47,2.37.69-3.19,11,.94.28-.13.47-3.31-1Z"/><path class="cls-1" d="M72.85,94.52a1.23,1.23,0,0,1-1.47.32c-.94-.28-1.41-.84-1.32-1.63a3.14,3.14,0,0,1-3.21.43C65,93.11,63.59,92,64.18,90s2.58-2.33,4.85-1.67a5.57,5.57,0,0,1,2.13,1l.22-.75c.43-1.47-.1-2.37-1.87-2.89-1-.28-2.31-.4-2.47.17-.1.31.34.27.18.82a.68.68,0,0,1-.93.44.77.77,0,0,1-.53-1c.21-.7.93-1.12,2.11-1.15a5.64,5.64,0,0,1,1.91.25c2.64.76,3.52,2.11,2.92,4.18l-1.22,4.21a.55.55,0,0,0,.38.78.53.53,0,0,0,.63-.19ZM70.5,91.59,71,89.77a5.08,5.08,0,0,0-1.81-.86c-1.62-.48-3-.22-3.52,1.54-.47,1.61.43,2.38,1.75,2.77A2.18,2.18,0,0,0,70.5,91.59Z"/><path class="cls-1" d="M73.62,93.41a.86.86,0,0,1,1.15-.68.75.75,0,0,1,.6,1c-.16.55-.58.34-.69.73-.18.61.93,1.26,2,1.58,1.43.41,2.69.23,3-1s-.58-1.69-2.2-2.61-2.7-1.83-2.28-3.27S77.2,87.4,79,87.92s3.16,1.53,2.81,2.75a.79.79,0,0,1-1.06.6c-.47-.14-.73-.49-.6-.91s.5-.34.59-.64c.15-.52-.93-1-1.8-1.28-1.24-.36-2.26-.26-2.49.54-.28,1,.88,1.63,2.08,2.31,1.79,1,3,1.81,2.49,3.49-.54,1.85-2.34,2.36-4.39,1.77C75,96.08,73.18,94.92,73.62,93.41Z"/><path class="cls-1" d="M81.74,95.77a.85.85,0,0,1,1.15-.68.76.76,0,0,1,.6,1c-.16.55-.58.34-.69.73-.18.61.92,1.26,2,1.58,1.43.41,2.68.23,3-1s-.59-1.68-2.2-2.61S83,93,83.38,91.54s1.94-1.78,3.73-1.26,3.16,1.53,2.8,2.75a.78.78,0,0,1-1,.6c-.48-.14-.73-.49-.61-.91s.51-.35.6-.64c.15-.52-.93-1-1.81-1.28-1.24-.36-2.25-.26-2.48.54-.29,1,.88,1.63,2.08,2.3,1.78,1,3,1.82,2.49,3.5-.54,1.85-2.34,2.36-4.39,1.77C83.14,98.44,81.3,97.28,81.74,95.77Z"/><path class="cls-1" d="M89.75,99.55l.94.27,2.06-7.09-.94-.27.13-.47,2.37.69-2.19,7.55.94.28-.14.47-3.31-1Zm3.63-9.74A1,1,0,1,1,94,90.93.86.86,0,0,1,93.38,89.81Z"/><path class="cls-1" d="M95.29,97.33c.81-2.81,3.25-3.66,6-2.86,1.63.47,3.13,1.57,2.75,2.86a.94.94,0,0,1-1.27.7.89.89,0,0,1-.71-1.14c.17-.58.63-.57.69-.81.13-.43-.92-.91-1.58-1.1-2.08-.61-3.61.21-4.37,2.82s.21,4.08,2.09,4.62a3.4,3.4,0,0,0,3.56-.8l.29.29a3.89,3.89,0,0,1-4.17,1C96.09,102.17,94.47,100.14,95.29,97.33Z"/><path class="cls-1" d="M121.23,108.7l-.14.47-3.43-1,.14-.47,1,.28-.52-4.23-4.76-1.39-2,2.44a2.35,2.35,0,0,1-2.84,1A2.19,2.19,0,0,1,107,103a1.8,1.8,0,0,1,2.39-1.25c1,.3,1.44,1,1.22,1.77a1,1,0,0,1-1.28.76.84.84,0,0,1-.68-1.1c.13-.45.49-.4.57-.66s0-.28-.32-.37a1.24,1.24,0,0,0-1.4,1,1.67,1.67,0,0,0,1.34,2.12,1.85,1.85,0,0,0,2.3-.79l6.22-7.82-2.93-.85c-1-.29-2-.07-2.25,1a1.29,1.29,0,0,0,.65,1.69c.25.07.39,0,.43-.17s-.26-.36-.13-.83a.87.87,0,0,1,1.21-.57,1,1,0,0,1,.66,1.3c-.24.79-1,1.16-2,.85a1.81,1.81,0,0,1-1.29-2.4,2.13,2.13,0,0,1,2.89-1.3l4.38,1.27,1.46,11.81Zm-3.06-5.48-.71-5.89-3.67,4.61Z"/><path class="cls-1" d="M138,113.44a1.2,1.2,0,0,1-1.47.32c-1.05-.3-1.53-1-1.25-2l1.21-4.18c.42-1.45.09-2.31-1.11-2.66a3.77,3.77,0,0,0-3.29.71l-1.65,5.69.94.28-.14.47-3.32-1,.14-.47.94.27,1.57-5.39c.33-1.14.09-2-1.13-2.31a3.94,3.94,0,0,0-3.51.83l-1.6,5.52.94.27-.14.47-3.31-1,.14-.47.94.27,2.06-7.08-.94-.28.14-.47,2.36.69-.42,1.46a4.46,4.46,0,0,1,3.88-.71,2.64,2.64,0,0,1,2.15,2.41,4.31,4.31,0,0,1,3.76-.69c1.86.54,2.51,1.94,1.91,4l-1.18,4.06a.56.56,0,0,0,.41.78.58.58,0,0,0,.63-.19Z"/><path class="cls-1" d="M147,114.58l.31.34a4.36,4.36,0,0,1-4.41.9c-2.54-.74-4.14-2.77-3.32-5.61a4.29,4.29,0,0,1,5.67-3,3.79,3.79,0,0,1,3,4.53l-6.82-2a5.92,5.92,0,0,0-.29.81c-.78,2.67.18,4.24,2.15,4.82A3.68,3.68,0,0,0,147,114.58Zm-5.37-5.28,5.21,1.51c.32-1.89-.49-2.76-1.73-3.12A2.82,2.82,0,0,0,141.66,109.3Z"/><path class="cls-1" d="M156.68,111.84a1,1,0,0,1-1.33.77.87.87,0,0,1-.69-1.1c.15-.52.47-.44.52-.6s0-.17-.21-.23c-.81-.23-1.9.18-3.07,1.57l-1.44,4.94,1.1.32-.14.47L148,117l.14-.47.94.28,2.06-7.09-.94-.27.13-.47,2.37.69-.5,1.72a3.27,3.27,0,0,1,3.31-1.18C156.49,110.48,156.9,111.07,156.68,111.84Z"/><path class="cls-1" d="M155.54,118.67l.94.27,2.06-7.09-.94-.27.13-.47,2.37.69-2.19,7.55.94.28-.14.47-3.31-1Zm3.63-9.74a.86.86,0,0,1,1.16-.6.9.9,0,1,1-.5,1.72A.86.86,0,0,1,159.17,108.93Z"/><path class="cls-1" d="M161.08,116.45c.81-2.81,3.25-3.66,6-2.86,1.64.47,3.13,1.57,2.76,2.86a.94.94,0,0,1-1.27.7.89.89,0,0,1-.71-1.14c.17-.58.62-.57.69-.81.13-.43-.92-.91-1.58-1.1-2.08-.61-3.61.21-4.37,2.82s.21,4.08,2.09,4.62a3.38,3.38,0,0,0,3.56-.8l.29.29a3.89,3.89,0,0,1-4.17,1C161.88,121.29,160.26,119.26,161.08,116.45Z"/><path class="cls-1" d="M178.76,125.3a1.23,1.23,0,0,1-1.47.32c-.94-.28-1.4-.84-1.31-1.63a3.12,3.12,0,0,1-3.22.43c-1.8-.52-3.25-1.68-2.67-3.68s2.58-2.33,4.86-1.67a5.52,5.52,0,0,1,2.12,1l.22-.75c.43-1.47-.09-2.37-1.86-2.89-1-.27-2.32-.4-2.48.17-.09.31.35.27.19.82a.69.69,0,0,1-.93.44.76.76,0,0,1-.53-1c.2-.7.92-1.12,2.1-1.15a6,6,0,0,1,1.92.25c2.63.77,3.52,2.11,2.91,4.18l-1.22,4.21a.55.55,0,0,0,.39.78.53.53,0,0,0,.63-.19Zm-2.34-2.93.52-1.82a5.47,5.47,0,0,0-1.8-.86c-1.63-.47-3-.21-3.53,1.54s.43,2.39,1.75,2.77A2.18,2.18,0,0,0,176.42,122.37Z"/><path class="cls-1" d="M189.4,128.39c-.34.43-.76.52-1.47.32-1.05-.31-1.51-1-1.23-2l1.18-4.07c.45-1.54.15-2.44-1.18-2.83a3.56,3.56,0,0,0-3.26.81l-1.64,5.64.94.27-.14.47-3.31-1,.14-.47.94.27,2.06-7.08-.94-.27.14-.47,2.36.68-.39,1.35a4,4,0,0,1,3.67-.68c1.94.56,2.58,1.83,1.95,4L188,127.5a.56.56,0,0,0,.4.78.53.53,0,0,0,.63-.19Z"/><path class="cls-1" d="M193.67,129.75l.94.27,3-10.5-.94-.27.14-.47,2.37.69-3.19,11,.94.27-.14.47-3.3-1Z"/><path class="cls-1" d="M206.63,131.9l.3.34a4.34,4.34,0,0,1-4.4.9c-2.54-.74-4.14-2.77-3.32-5.61a4.29,4.29,0,0,1,5.67-3,3.79,3.79,0,0,1,3,4.54l-6.81-2a5.92,5.92,0,0,0-.29.81c-.78,2.68.18,4.25,2.15,4.82A3.68,3.68,0,0,0,206.63,131.9Zm-5.37-5.28,5.2,1.51c.33-1.89-.48-2.76-1.72-3.12A2.83,2.83,0,0,0,201.26,126.62Z"/><path class="cls-1" d="M212,134.93a1.55,1.55,0,0,1-1.72.44,1.85,1.85,0,0,1-1.45-2.57l1.7-5.84-.87-.25.14-.47.86.25.25-.86c.88.22,1.08.09,1.41-1l.39.11-.62,2.13,2,.6L214,128l-2-.6-1.82,6.29a.87.87,0,0,0,.68,1.2.89.89,0,0,0,.92-.23Z"/><path class="cls-1" d="M216.9,136.36a1.55,1.55,0,0,1-1.72.44,1.85,1.85,0,0,1-1.45-2.57l1.7-5.84-.87-.25.14-.47.86.25.25-.86c.87.22,1.08.09,1.41-1l.39.11-.62,2.13,2,.6-.14.47-2-.6L215,135.09a.87.87,0,0,0,.68,1.2.89.89,0,0,0,.92-.23Z"/><path class="cls-1" d="M225.93,137.51l.31.34a4.36,4.36,0,0,1-4.41.9c-2.54-.74-4.14-2.77-3.32-5.61a4.3,4.3,0,0,1,5.68-3,3.8,3.8,0,0,1,3,4.54l-6.82-2a7.64,7.64,0,0,0-.29.81c-.77,2.68.18,4.25,2.16,4.82A3.66,3.66,0,0,0,225.93,137.51Zm-5.37-5.28,5.21,1.51c.33-1.89-.49-2.76-1.73-3.12A2.83,2.83,0,0,0,220.56,132.23Z"/><path class="cls-1" d="M235.58,134.77a1,1,0,0,1-1.33.77.87.87,0,0,1-.69-1.1c.16-.51.47-.44.52-.6s0-.17-.21-.23c-.81-.23-1.9.18-3.07,1.58l-1.44,4.93,1.1.32-.13.47-3.47-1,.14-.48.94.28,2.06-7.09-.94-.27.13-.47,2.37.69-.5,1.72a3.29,3.29,0,0,1,3.32-1.18C235.39,133.41,235.8,134,235.58,134.77Z"/><path class="cls-1" d="M234.44,141.6l.94.27,2.06-7.08-.94-.28.14-.47,2.36.69-2.19,7.56.94.27-.14.47-3.31-1Zm3.63-9.74a1,1,0,1,1,.66,1.13A.88.88,0,0,1,238.07,131.86Z"/><path class="cls-1" d="M249,145.7a1.2,1.2,0,0,1-1.47.32c-1.05-.3-1.51-1-1.23-2l1.18-4.08c.45-1.54.15-2.44-1.18-2.83A3.56,3.56,0,0,0,243,138l-1.64,5.64.94.27-.14.47-3.31-1,.14-.47.94.28,2.06-7.09-.94-.27.14-.47,2.36.69-.39,1.34a4,4,0,0,1,3.67-.68c1.94.56,2.57,1.84,1.95,4l-1.19,4.09a.55.55,0,0,0,.4.78.53.53,0,0,0,.63-.19Z"/><path class="cls-1" d="M257.25,149.71c-.51,1.74-2.33,2.45-5.12,1.64-2.47-.72-3.78-2.12-3.32-3.72a2.39,2.39,0,0,1,2.36-1.63,1.32,1.32,0,0,1-.06-1,1.37,1.37,0,0,1,1-1,2.69,2.69,0,0,1-.93-2.89c.52-1.8,2.42-2.37,4.52-1.76a5.24,5.24,0,0,1,1.76.85,2.74,2.74,0,0,1,.1-1c.25-.86.82-1.23,1.54-1s.85.59.71,1.06a.71.71,0,0,1-.94.51c-.46-.14-.37-.4-.52-.44s-.31.16-.37.37a2.35,2.35,0,0,0,0,1,2.63,2.63,0,0,1,.62,2.6c-.52,1.79-2.42,2.36-4.51,1.75a5.33,5.33,0,0,1-1.61-.76.78.78,0,0,0-.42.49c-.1.35,0,.62.78,1,.59.26,2.12.82,2.46,1C256.38,147.07,257.76,148,257.25,149.71Zm-1.57.07c.32-1.1-.39-1.68-1.47-2.11l-2.06-.84a2,2,0,0,1-.71-.46,2.17,2.17,0,0,0-1.66,1.49c-.4,1.38.65,2.45,2.53,3C254,151.36,255.31,151.06,255.68,149.78Zm-3-8.27c-.47,1.6.15,2.57,1.48,3s2.38-.09,2.84-1.69-.13-2.57-1.48-3S253.16,139.92,252.7,141.51Z"/><path class="cls-1" d="M27.12,105.32l-.43.07-.21-1.66-3.3-1-2.91,10,1.08.31-.14.47-3.35-1,.13-.47,1.07.31,2.92-10-2.93-.86c-.91-.26-1.78-.07-2.06.89a1.15,1.15,0,0,0,.57,1.52c.21.06.33,0,.37-.16s-.18-.31-.07-.67a.73.73,0,0,1,.95-.47.81.81,0,0,1,.58,1.09c-.18.64-.79,1-1.76.76a1.66,1.66,0,0,1-1.15-2.2,2,2,0,0,1,2.7-1.22l7.7,2.23Z"/><path class="cls-1" d="M35.21,117.07a1.13,1.13,0,0,1-1.35.32,1.33,1.33,0,0,1-1.07-1.76l1.16-4c.49-1.69.17-2.69-1.27-3.11a3.83,3.83,0,0,0-3.5.87l-1.61,5.55.94.27-.14.47-3-.87.14-.47.94.27,3-10.5-.94-.27.14-.47,2.07.6-1.42,4.87a4.18,4.18,0,0,1,3.81-.72c1.9.55,2.52,1.81,1.89,4l-1.18,4.05c-.14.47.07.68.39.77a.52.52,0,0,0,.62-.16Z"/><path class="cls-1" d="M44.2,118.17l.32.36a4.49,4.49,0,0,1-4.4.86c-2.54-.73-4-2.8-3.24-5.56a4.29,4.29,0,0,1,5.65-3,3.72,3.72,0,0,1,2.94,4.45l-7-2a5.12,5.12,0,0,0-.32.86c-.76,2.61.3,4.27,2.34,4.87A3.76,3.76,0,0,0,44.2,118.17Zm-5.55-5.41,5.72,1.66a2.52,2.52,0,0,0-2-3.12A3.11,3.11,0,0,0,38.65,112.76Z"/><path class="cls-1" d="M49.91,117.62c.79-2.71,3.18-3.69,5.88-2.9,1.63.47,3.13,1.62,2.77,2.86a.82.82,0,0,1-1.1.6.76.76,0,0,1-.59-1c.15-.52.53-.47.59-.69.15-.51-1.07-1.06-1.77-1.27-2.18-.63-3.87.26-4.59,2.75s.33,4.11,2.28,4.67a3.45,3.45,0,0,0,3.62-.78l.28.27a3.86,3.86,0,0,1-4.18,1C50.61,122.41,49.12,120.33,49.91,117.62Z"/><path class="cls-1" d="M58.15,123.82l.94.27,3-10.5-.94-.27.14-.47,2.07.6-3.19,11,.94.27-.14.47-3-.87Z"/><path class="cls-1" d="M71.35,127.57a1.1,1.1,0,0,1-1.33.33,1.36,1.36,0,0,1-1.14-1.59,3.2,3.2,0,0,1-3.25.43c-1.82-.53-3.21-1.7-2.65-3.64s2.52-2.35,4.81-1.68A6,6,0,0,1,70,122.5l.2-.69c.45-1.54-.12-2.46-1.92-3-1-.29-2.4-.41-2.57.17-.08.3.31.25.16.76a.62.62,0,0,1-.83.41.7.7,0,0,1-.48-.92c.18-.65.81-1.09,2-1.15a6.38,6.38,0,0,1,1.92.25c2.51.73,3.35,2,2.76,4.06L70,126.65a.55.55,0,0,0,.4.78.52.52,0,0,0,.61-.16Zm-2-2.92.49-1.71a5.87,5.87,0,0,0-2-1c-1.74-.51-3.19-.25-3.7,1.49s.51,2.41,1.93,2.82S68.85,126.42,69.37,124.65Z"/><path class="cls-1" d="M72.11,126.47a.82.82,0,0,1,1.09-.66.71.71,0,0,1,.55.93c-.15.53-.52.34-.62.68-.19.63.93,1.3,2,1.62,1.46.42,2.78.21,3.14-1s-.57-1.72-2.39-2.77c-1.55-.91-2.53-1.74-2.14-3.09s1.91-1.71,3.66-1.2,3.1,1.51,2.75,2.72a.73.73,0,0,1-1,.57.68.68,0,0,1-.55-.86c.12-.42.45-.31.54-.61.15-.51-1-1-1.85-1.3-1.29-.37-2.34-.27-2.59.59-.29,1,.92,1.7,2.15,2.38,1.77,1,2.91,1.8,2.44,3.41-.53,1.82-2.28,2.3-4.26,1.72C73.52,129.1,71.68,128,72.11,126.47Z"/><path class="cls-1" d="M80.1,128.79a.81.81,0,0,1,1.09-.65.7.7,0,0,1,.55.92c-.15.53-.52.34-.62.69-.18.62.93,1.29,2,1.61,1.46.42,2.78.21,3.15-1s-.58-1.71-2.4-2.77c-1.55-.91-2.53-1.74-2.14-3.09s1.91-1.71,3.66-1.19,3.1,1.51,2.75,2.71a.73.73,0,0,1-1,.57.68.68,0,0,1-.55-.85c.13-.43.45-.31.54-.61.15-.52-1-1-1.85-1.3-1.29-.38-2.34-.28-2.59.59-.29,1,.92,1.69,2.15,2.37,1.77,1,2.91,1.8,2.44,3.41-.53,1.82-2.28,2.3-4.25,1.72C81.51,131.42,79.67,130.28,80.1,128.79Z"/><path class="cls-1" d="M88,132.49l.94.28,2-7.07-.94-.28.14-.47,2.07.61-2.19,7.53.94.28-.14.47-3-.88Zm3.6-9.71a.78.78,0,0,1,1-.51.78.78,0,1,1-.43,1.49A.77.77,0,0,1,91.6,122.78Z"/><path class="cls-1" d="M93.23,130.21c.79-2.71,3.18-3.69,5.88-2.9,1.63.47,3.13,1.62,2.77,2.86a.81.81,0,0,1-1.09.6.77.77,0,0,1-.6-1c.15-.52.53-.47.59-.69.15-.5-1.07-1.06-1.77-1.27-2.18-.63-3.87.26-4.59,2.75s.34,4.11,2.28,4.67a3.47,3.47,0,0,0,3.63-.78l.28.27a3.88,3.88,0,0,1-4.19,1A4.25,4.25,0,0,1,93.23,130.21Z"/><path class="cls-1" d="M118.76,141.43l-.14.47-3.07-.89.14-.47.94.27-.52-4.23-5-1.44-1.93,2.43a2.27,2.27,0,0,1-2.76,1,2,2,0,0,1-1.6-2.58,1.65,1.65,0,0,1,2.19-1.16c1,.28,1.27,1,1.09,1.56a.8.8,0,0,1-1,.64.72.72,0,0,1-.58-.93c.1-.33.36-.3.43-.52s0-.26-.3-.34a1.11,1.11,0,0,0-1.28.92,1.51,1.51,0,0,0,1.22,1.92c.9.26,1.45.16,2.23-.83l6.21-7.8-2.71-.79c-.91-.27-1.76-.07-2,.88a1.17,1.17,0,0,0,.59,1.54c.25.07.37,0,.42-.16s-.18-.3-.09-.63a.73.73,0,0,1,1-.49.78.78,0,0,1,.54,1.07c-.19.65-.8,1.05-1.8.76a1.68,1.68,0,0,1-1.18-2.22,2,2,0,0,1,2.69-1.22l4,1.16,1.46,11.81ZM116,136.05l-.75-6.13-3.83,4.8Z"/><path class="cls-1" d="M135.11,146.1a1.13,1.13,0,0,1-1.35.32,1.34,1.34,0,0,1-1.09-1.76l1.18-4c.48-1.65.1-2.63-1.2-3a3.76,3.76,0,0,0-3.44.78l-1.63,5.6.94.27-.14.47-3-.87.14-.47.94.27,1.5-5.17c.38-1.29.12-2.21-1.2-2.6-.92-.26-2-.2-3.67.93l-1.57,5.4.94.28-.13.47-3-.88.13-.47.94.28,2.06-7.07-.94-.28.13-.47,2.07.6-.44,1.54a4.44,4.44,0,0,1,3.94-.77,2.54,2.54,0,0,1,2.06,2.45,4.21,4.21,0,0,1,3.81-.75c1.81.53,2.46,1.89,1.85,4l-1.17,4a.55.55,0,0,0,.4.78.51.51,0,0,0,.61-.17Z"/><path class="cls-1" d="M144.08,147.2l.32.36a4.48,4.48,0,0,1-4.4.86c-2.54-.73-4-2.8-3.24-5.56a4.3,4.3,0,0,1,5.66-3,3.72,3.72,0,0,1,2.93,4.45l-7-2.05a5.12,5.12,0,0,0-.32.86c-.75,2.61.31,4.27,2.35,4.87A3.75,3.75,0,0,0,144.08,147.2Zm-5.55-5.41,5.72,1.66a2.52,2.52,0,0,0-2-3.12A3.12,3.12,0,0,0,138.53,141.79Z"/><path class="cls-1" d="M153.32,144.19a.85.85,0,0,1-1.13.65.73.73,0,0,1-.58-.93c.11-.39.36-.35.4-.5s0-.16-.21-.21c-.83-.24-1.94.2-3.13,1.57l-1.43,4.94,1.1.32-.14.47-3.17-.92.14-.47.94.27,2-7.07-.94-.27.14-.47,2.07.6-.51,1.77a3.34,3.34,0,0,1,3.31-1.23C153.2,143,153.49,143.57,153.32,144.19Z"/><path class="cls-1" d="M152.13,151.13l.94.27,2.05-7.06-.94-.28.14-.47,2.07.6-2.19,7.54.94.28-.14.47-3-.88Zm3.6-9.71a.77.77,0,0,1,1-.51.78.78,0,1,1-.43,1.49A.78.78,0,0,1,155.73,141.42Z"/><path class="cls-1" d="M157.36,148.85c.79-2.72,3.18-3.69,5.88-2.9,1.63.47,3.13,1.62,2.77,2.86a.82.82,0,0,1-1.1.6.76.76,0,0,1-.59-1c.15-.52.53-.48.59-.69.15-.51-1.07-1.06-1.77-1.27-2.18-.63-3.87.25-4.59,2.75s.33,4.11,2.28,4.67a3.45,3.45,0,0,0,3.62-.78l.28.27a3.86,3.86,0,0,1-4.18,1C158.06,153.64,156.57,151.56,157.36,148.85Z"/><path class="cls-1" d="M174.68,157.6a1.1,1.1,0,0,1-1.33.33,1.35,1.35,0,0,1-1.14-1.59,3.2,3.2,0,0,1-3.25.43c-1.82-.53-3.21-1.7-2.65-3.64s2.52-2.35,4.81-1.68a6,6,0,0,1,2.2,1.08l.2-.69c.44-1.54-.12-2.46-1.92-3-1-.29-2.4-.4-2.57.18-.08.29.31.24.16.75a.62.62,0,0,1-.83.41.7.7,0,0,1-.48-.92c.18-.65.81-1.09,2-1.15a6.38,6.38,0,0,1,1.92.25c2.51.73,3.35,2,2.76,4.07l-1.24,4.24a.55.55,0,0,0,.41.78.52.52,0,0,0,.61-.16Zm-2-2.92.5-1.71a5.87,5.87,0,0,0-2-.95c-1.74-.51-3.19-.25-3.7,1.49s.51,2.41,1.93,2.82S172.18,156.45,172.69,154.68Z"/><path class="cls-1" d="M185.09,160.63a1.13,1.13,0,0,1-1.35.32,1.34,1.34,0,0,1-1.09-1.76l1.16-4c.49-1.69.18-2.68-1.26-3.1A3.91,3.91,0,0,0,179,153l-1.6,5.5.94.27-.13.47-3-.87.14-.47.94.27,2.05-7.07-.94-.27.14-.47,2.07.6-.44,1.49a4.14,4.14,0,0,1,3.86-.76c1.9.55,2.5,1.81,1.87,4l-1.18,4a.55.55,0,0,0,.41.78.5.5,0,0,0,.6-.16Z"/><path class="cls-1" d="M189.35,162l.94.27,3.06-10.5-.94-.27.13-.47,2.07.6-3.19,11,.94.28-.13.47-3-.88Z"/><path class="cls-1" d="M201.91,164l.32.37a4.5,4.5,0,0,1-4.4.86c-2.54-.74-4-2.81-3.24-5.56a4.3,4.3,0,0,1,5.66-3,3.72,3.72,0,0,1,2.93,4.46L196.13,159a5.72,5.72,0,0,0-.32.86c-.75,2.6.31,4.27,2.35,4.86A3.72,3.72,0,0,0,201.91,164Zm-5.55-5.4,5.72,1.66a2.51,2.51,0,0,0-2-3.12A3.12,3.12,0,0,0,196.36,158.6Z"/><path class="cls-1" d="M207,167a1.44,1.44,0,0,1-1.59.4,1.7,1.7,0,0,1-1.29-2.36l1.74-6-.87-.25.14-.47.86.25.27-.93c.64.15.81.05,1.08-.89l.37.11-.59,2,2,.59L209,160l-2-.59-1.83,6.29a.88.88,0,0,0,.7,1.22.85.85,0,0,0,.87-.2Z"/><path class="cls-1" d="M211.51,168.32a1.46,1.46,0,0,1-1.59.41,1.71,1.71,0,0,1-1.29-2.37l1.74-6-.87-.25.14-.47.86.25.27-.92c.64.15.8,0,1.08-.9l.37.11-.59,2,2,.59-.13.47-2-.59L209.67,167a.89.89,0,0,0,.7,1.22.84.84,0,0,0,.87-.21Z"/><path class="cls-1" d="M220.45,169.39l.32.36a4.49,4.49,0,0,1-4.4.87c-2.54-.74-4.05-2.81-3.25-5.57a4.31,4.31,0,0,1,5.66-3,3.73,3.73,0,0,1,2.94,4.46l-7.05-2a4.54,4.54,0,0,0-.32.86c-.76,2.6.3,4.27,2.34,4.86A3.76,3.76,0,0,0,220.45,169.39ZM214.9,164l5.72,1.66a2.53,2.53,0,0,0-2-3.13A3.12,3.12,0,0,0,214.9,164Z"/><path class="cls-1" d="M229.68,166.38a.86.86,0,0,1-1.13.66.74.74,0,0,1-.57-.94c.11-.39.35-.35.39-.49s0-.17-.2-.22c-.84-.24-1.95.2-3.13,1.58l-1.44,4.94,1.1.31-.14.47-3.16-.92.14-.47.94.28,2.05-7.07-.94-.28.14-.47,2.07.61-.52,1.77c1.31-1.34,2.5-1.47,3.32-1.23C229.57,165.19,229.86,165.77,229.68,166.38Z"/><path class="cls-1" d="M228.49,173.33l.94.27,2.06-7.07-.94-.27.13-.47,2.07.6-2.19,7.54.94.27-.14.47-3-.87Zm3.61-9.72a.81.81,0,0,1,1.56.46.81.81,0,0,1-1.56-.46Z"/><path class="cls-1" d="M242.46,177.3a1.13,1.13,0,0,1-1.35.32,1.33,1.33,0,0,1-1.08-1.76l1.15-4c.49-1.69.19-2.68-1.25-3.1a3.91,3.91,0,0,0-3.54.87l-1.6,5.51.94.27-.14.47-3-.87.13-.48.94.28,2.06-7.07-.94-.27.13-.47,2.07.6-.43,1.49a4.17,4.17,0,0,1,3.86-.77c1.9.55,2.5,1.82,1.86,4l-1.17,4a.55.55,0,0,0,.4.78.52.52,0,0,0,.61-.16Z"/><path class="cls-1" d="M250.42,181.21c-.51,1.74-2.29,2.41-4.9,1.65-2.39-.69-3.69-2.11-3.22-3.74a2.58,2.58,0,0,1,2.45-1.75,1.25,1.25,0,0,1,0-.88,1.29,1.29,0,0,1,.85-.94,2.69,2.69,0,0,1-.91-2.9c.51-1.77,2.34-2.39,4.37-1.8a4.69,4.69,0,0,1,1.67.84,3,3,0,0,1,.12-.95c.23-.78.77-1.17,1.47-1,.54.16.77.53.65.95a.64.64,0,0,1-.85.47c-.43-.12-.33-.4-.47-.44s-.32.23-.38.43a2.33,2.33,0,0,0,0,1,2.65,2.65,0,0,1,.52,2.53c-.51,1.75-2.34,2.38-4.35,1.79a4.92,4.92,0,0,1-1.48-.68.73.73,0,0,0-.42.49c-.1.34,0,.63.67.92.5.22,2,.78,2.36.94C249.54,178.59,250.93,179.44,250.42,181.21Zm-1.22,0c.34-1.16-.43-1.74-1.51-2.19l-2.09-.85a1.52,1.52,0,0,1-.6-.41,2.29,2.29,0,0,0-1.85,1.59c-.41,1.41.66,2.5,2.53,3.05S248.8,182.56,249.2,181.18ZM245.87,173a2.42,2.42,0,1,0,3-1.65A2.2,2.2,0,0,0,245.87,173Z"/><path class="cls-1" d="M26.58,138.63l-.43.07-.22-1.64-3.32-1-2.91,10,1.09.31-.13.47L17.57,146l.13-.47,1.1.32,2.92-10L18.86,135c-.83-.25-1.62-.09-1.88.81a1,1,0,0,0,.53,1.38c.21.06.31,0,.35-.16s-.1-.23,0-.48a.61.61,0,0,1,.78-.39.65.65,0,0,1,.47.89c-.15.52-.66.93-1.57.66a1.54,1.54,0,0,1-1-2A1.84,1.84,0,0,1,19,134.54l7.34,2.13Z"/><path class="cls-1" d="M34.44,150.36a1,1,0,0,1-1.23.31,1.2,1.2,0,0,1-.94-1.57l1.14-3.92c.54-1.85.21-2.89-1.32-3.34-1.22-.36-2.32-.1-3.77.93l-1.58,5.4,1,.28-.14.47-2.74-.8.13-.47.94.27,3.05-10.5-.94-.27.14-.47,1.8.52-1.46,5a4.36,4.36,0,0,1,4-.81c1.85.54,2.45,1.8,1.82,4l-1.16,4c-.15.5.06.71.38.81a.5.5,0,0,0,.61-.17Z"/><path class="cls-1" d="M43.37,151.43l.31.36a4.55,4.55,0,0,1-4.4.84,4.24,4.24,0,0,1-3.15-5.53,4.28,4.28,0,0,1,5.63-3,3.64,3.64,0,0,1,2.89,4.36l-7.23-2.1a5,5,0,0,0-.37.91c-.73,2.51.42,4.3,2.53,4.92A3.9,3.9,0,0,0,43.37,151.43Zm-5.7-5.52,6.17,1.79a2.69,2.69,0,0,0-2.22-3.11A3.4,3.4,0,0,0,37.67,145.91Z"/><path class="cls-1" d="M49.1,150.88c.76-2.63,3.08-3.69,5.76-2.91,1.63.47,3.14,1.66,2.79,2.85a.69.69,0,0,1-.93.51.66.66,0,0,1-.5-.86c.13-.44.44-.4.5-.6.16-.55-1.19-1.17-1.94-1.38A3.55,3.55,0,0,0,50,151.16a3.48,3.48,0,0,0,2.45,4.72,3.56,3.56,0,0,0,3.69-.78l.26.24a3.85,3.85,0,0,1-4.19,1A4.21,4.21,0,0,1,49.1,150.88Z"/><path class="cls-1" d="M57.27,157l.94.28,3-10.5-.94-.28.13-.47,1.81.53-3.19,11,.94.27-.14.47-2.74-.79Z"/><path class="cls-1" d="M70,160.69a1,1,0,0,1-1.22.3,1.18,1.18,0,0,1-.94-1.56v0a3.31,3.31,0,0,1-3.33.48c-1.84-.53-3.18-1.71-2.62-3.62s2.45-2.36,4.76-1.69a6,6,0,0,1,2.27,1.13l.18-.64c.47-1.6-.14-2.54-2-3.08-1-.29-2.45-.4-2.62.19-.08.27.27.22.14.69a.58.58,0,0,1-.77.37.66.66,0,0,1-.44-.86c.17-.58.74-1.06,1.94-1.11a5.57,5.57,0,0,1,1.92.23c2.39.69,3.2,2,2.62,4l-1.23,4.25c-.15.5.08.72.39.81a.52.52,0,0,0,.61-.16Zm-1.68-2.94.47-1.6a5.87,5.87,0,0,0-2.14-1.05c-1.85-.53-3.36-.27-3.86,1.47s.58,2.43,2.09,2.87S67.76,159.59,68.29,157.75Z"/><path class="cls-1" d="M70.71,159.59a.77.77,0,0,1,1-.64.66.66,0,0,1,.51.87c-.14.5-.48.32-.57.65-.18.61.94,1.31,2.08,1.64,1.49.43,2.85.2,3.24-1.12s-.58-1.75-2.56-2.9c-1.45-.85-2.39-1.65-2-2.93S74.27,153.54,76,154s3.07,1.47,2.72,2.66a.69.69,0,0,1-.89.56.63.63,0,0,1-.51-.81c.11-.38.42-.29.5-.57.15-.52-1-1.05-1.91-1.32-1.31-.38-2.39-.29-2.66.62-.31,1.08.93,1.77,2.19,2.46,1.78,1,2.87,1.77,2.42,3.33-.52,1.79-2.23,2.23-4.16,1.67C72.14,162.18,70.29,161.05,70.71,159.59Z"/><path class="cls-1" d="M78.59,161.88c.16-.55.52-.78,1-.63a.65.65,0,0,1,.52.86c-.15.5-.49.32-.58.65-.18.61.94,1.31,2.09,1.64,1.48.43,2.84.2,3.23-1.12s-.58-1.75-2.56-2.9c-1.45-.85-2.39-1.65-2-2.93s1.86-1.62,3.56-1.13,3.07,1.47,2.72,2.66a.68.68,0,0,1-.89.56.63.63,0,0,1-.51-.81c.11-.38.42-.29.51-.57.15-.52-1-1-1.92-1.32-1.31-.38-2.39-.29-2.66.62-.31,1.08.93,1.77,2.19,2.46,1.78,1,2.87,1.77,2.42,3.33-.52,1.79-2.23,2.23-4.16,1.67C80,164.47,78.17,163.34,78.59,161.88Z"/><path class="cls-1" d="M86.38,165.51l.94.27,2-7-.94-.27.14-.47,1.8.52L88.18,166l.94.27-.14.47L86.24,166ZM90,155.84a.68.68,0,1,1,.47.82A.65.65,0,0,1,90,155.84Z"/><path class="cls-1" d="M91.34,163.16c.77-2.64,3.08-3.7,5.76-2.92,1.63.48,3.14,1.66,2.79,2.85a.7.7,0,0,1-.93.52.66.66,0,0,1-.5-.86c.13-.44.44-.4.5-.61.16-.55-1.19-1.16-1.94-1.38a3.56,3.56,0,0,0-4.79,2.67,3.49,3.49,0,0,0,2.45,4.73,3.56,3.56,0,0,0,3.69-.78l.26.24a3.87,3.87,0,0,1-4.19,1A4.21,4.21,0,0,1,91.34,163.16Z"/><path class="cls-1" d="M116.45,174.24l-.14.48-2.76-.81.14-.47,1,.28-.52-4.23L109,168l-1.92,2.41c-1,1.24-1.71,1.36-2.71,1.07a1.9,1.9,0,0,1-1.5-2.39,1.56,1.56,0,0,1,2-1.12c.91.27,1.12.89,1,1.38a.66.66,0,0,1-.86.53.59.59,0,0,1-.46-.77c.06-.21.23-.22.28-.39s0-.26-.28-.33c-.51-.15-1,.25-1.18.86-.26.88.28,1.48,1.15,1.73s1.32.16,2.13-.86l6.21-7.8-2.49-.73c-.83-.24-1.62-.08-1.88.82a1,1,0,0,0,.55,1.38c.25.07.37,0,.41-.13s-.12-.24-.06-.46a.67.67,0,1,1,1.26.47c-.14.5-.64.93-1.6.65a1.54,1.54,0,0,1-1.07-2,1.85,1.85,0,0,1,2.53-1.16l3.63,1.06L115.59,174ZM114.07,169l-.78-6.39-4,5Z"/><path class="cls-1" d="M132.43,178.84a1,1,0,0,1-1.23.3,1.19,1.19,0,0,1-.94-1.56l1.14-3.92c.53-1.82.11-2.89-1.29-3.3a3.91,3.91,0,0,0-3.56.82l-1.61,5.53.94.28-.14.47-2.73-.8.14-.47.94.28,1.44-5c.41-1.41.15-2.43-1.26-2.84-1-.27-2.13-.22-3.81,1L118.92,175l.94.28-.14.47-2.74-.8.14-.47.94.27,2-7-.94-.27.14-.47,1.8.53-.46,1.59a4.47,4.47,0,0,1,4-.84,2.47,2.47,0,0,1,2,2.48,4.22,4.22,0,0,1,3.87-.78c1.75.51,2.42,1.84,1.79,4l-1.15,4c-.15.5.06.71.38.8a.47.47,0,0,0,.6-.16Z"/><path class="cls-1" d="M141.34,179.9l.31.36a4.56,4.56,0,0,1-4.4.85,4.45,4.45,0,1,1,2.48-8.55c2.2.64,3.29,2.28,2.89,4.36l-7.23-2.1a5,5,0,0,0-.37.91c-.73,2.51.42,4.31,2.53,4.92A3.86,3.86,0,0,0,141.34,179.9Zm-5.7-5.52,6.17,1.8a2.68,2.68,0,0,0-2.22-3.11A3.38,3.38,0,0,0,135.64,174.38Z"/><path class="cls-1" d="M150.18,176.62a.73.73,0,0,1-1,.57.62.62,0,0,1-.49-.77c.09-.29.27-.29.31-.42s-.05-.17-.21-.21c-.85-.25-2,.22-3.19,1.61l-1.43,4.92,1.1.32-.14.47-2.9-.85.14-.47.94.28,2-7-.94-.27.13-.47,1.8.52-.52,1.8c1.35-1.37,2.53-1.49,3.31-1.26C150.13,175.62,150.31,176.15,150.18,176.62Z"/><path class="cls-1" d="M148.94,183.69l.94.27,2-7-.94-.27.14-.47,1.8.52-2.18,7.51.94.27-.14.48-2.74-.8Zm3.59-9.67a.67.67,0,0,1,.84-.45.66.66,0,0,1,.46.83.64.64,0,0,1-.83.44A.65.65,0,0,1,152.53,174Z"/><path class="cls-1" d="M153.9,181.34c.77-2.63,3.08-3.69,5.76-2.92,1.63.48,3.14,1.66,2.79,2.86a.7.7,0,0,1-.93.51.66.66,0,0,1-.5-.86c.13-.44.44-.4.5-.6.16-.55-1.19-1.17-1.94-1.39a3.57,3.57,0,0,0-4.79,2.68,3.48,3.48,0,0,0,2.45,4.72,3.58,3.58,0,0,0,3.7-.78l.25.24a3.85,3.85,0,0,1-4.19,1A4.21,4.21,0,0,1,153.9,181.34Z"/><path class="cls-1" d="M170.89,190a1.05,1.05,0,0,1-1.23.3,1.19,1.19,0,0,1-.94-1.56v0a3.32,3.32,0,0,1-3.34.48c-1.83-.54-3.17-1.71-2.62-3.62s2.46-2.36,4.76-1.69A5.74,5.74,0,0,1,169.8,185l.19-.64c.46-1.6-.15-2.54-2-3.08-1-.29-2.44-.4-2.62.19-.08.27.28.22.14.69a.58.58,0,0,1-.77.37.66.66,0,0,1-.43-.86c.17-.58.73-1.06,1.94-1.12a5.85,5.85,0,0,1,1.92.24c2.38.69,3.2,2,2.62,4l-1.23,4.25c-.15.5.08.72.39.81a.52.52,0,0,0,.61-.16Zm-1.68-2.94.46-1.6a5.64,5.64,0,0,0-2.14-1c-1.85-.53-3.35-.27-3.86,1.47s.59,2.43,2.09,2.87S168.68,188.92,169.21,187.08Z"/><path class="cls-1" d="M181,193a1,1,0,0,1-1.23.3,1.18,1.18,0,0,1-.93-1.56l1.13-3.89c.53-1.85.21-2.89-1.33-3.34a4.07,4.07,0,0,0-3.79.94l-1.56,5.36.94.27-.13.47-2.75-.8.14-.47.94.28,2.05-7-.94-.27.13-.47,1.81.52-.46,1.58a4.36,4.36,0,0,1,4-.82c1.85.54,2.43,1.8,1.8,4l-1.16,4c-.15.5.08.72.39.81a.5.5,0,0,0,.61-.16Z"/><path class="cls-1" d="M185.3,194.26l.94.27,3-10.5-.94-.27.14-.48,1.8.53-3.18,11,.94.27-.14.47-2.74-.79Z"/><path class="cls-1" d="M197.51,196.22l.3.36a4.51,4.51,0,0,1-4.39.85,4.45,4.45,0,1,1,2.48-8.54c2.2.64,3.28,2.28,2.88,4.36l-7.22-2.1a4.68,4.68,0,0,0-.37.91c-.73,2.51.42,4.3,2.53,4.92A3.88,3.88,0,0,0,197.51,196.22Zm-5.7-5.51L198,192.5a2.68,2.68,0,0,0-2.22-3.11A3.4,3.4,0,0,0,191.81,190.71Z"/><path class="cls-1" d="M202.22,199.17a1.32,1.32,0,0,1-1.46.36,1.56,1.56,0,0,1-1.14-2.17l1.77-6.06-.87-.25.14-.47.86.25.29-1c.42.08.54,0,.79-.83l.34.1-.57,2,2,.59-.14.47-2-.58-1.82,6.26a.92.92,0,0,0,.71,1.25.82.82,0,0,0,.86-.2Z"/><path class="cls-1" d="M206.47,200.41a1.35,1.35,0,0,1-1.46.36,1.56,1.56,0,0,1-1.14-2.17l1.76-6.07-.86-.25.14-.47.86.25.29-1c.42.09.54,0,.78-.83l.35.1-.57,2,2,.58-.14.47-2-.58-1.82,6.27a.9.9,0,0,0,.71,1.24.8.8,0,0,0,.85-.19Z"/><path class="cls-1" d="M215.36,201.41l.3.36a4.54,4.54,0,0,1-4.39.85,4.45,4.45,0,1,1,2.48-8.54,3.62,3.62,0,0,1,2.88,4.35l-7.23-2.1a4.54,4.54,0,0,0-.36.91c-.73,2.51.41,4.31,2.53,4.92A3.86,3.86,0,0,0,215.36,201.41Zm-5.71-5.52,6.18,1.8a2.69,2.69,0,0,0-2.23-3.11A3.39,3.39,0,0,0,209.65,195.89Z"/><path class="cls-1" d="M224.19,198.13a.73.73,0,0,1-.95.58.64.64,0,0,1-.49-.78c.09-.29.28-.29.31-.42s-.05-.16-.21-.21c-.84-.25-2,.22-3.18,1.61l-1.43,4.92,1.09.32-.13.47-2.9-.85.13-.47.94.28,2-7-.94-.27.14-.47,1.8.52-.53,1.8c1.36-1.37,2.53-1.49,3.31-1.26C224.14,197.13,224.33,197.66,224.19,198.13Z"/><path class="cls-1" d="M223,205.2l.94.27,2.05-7-.94-.27.13-.47,1.81.52-2.19,7.51.94.28-.13.47-2.74-.8Zm3.59-9.67a.68.68,0,0,1,.85-.45.65.65,0,0,1,.45.83.63.63,0,0,1-.82.44A.65.65,0,0,1,226.54,195.53Z"/><path class="cls-1" d="M236.4,209.06a1,1,0,0,1-1.23.3,1.19,1.19,0,0,1-.94-1.56l1.13-3.89c.54-1.85.21-2.9-1.32-3.34a4.09,4.09,0,0,0-3.8.94l-1.55,5.36.94.27-.14.47-2.74-.8.13-.47.94.27,2.05-7-.94-.28.14-.47,1.8.53-.46,1.58a4.36,4.36,0,0,1,4-.82c1.85.54,2.44,1.79,1.8,4l-1.16,4c-.14.5.08.72.4.81a.5.5,0,0,0,.6-.16Z"/><path class="cls-1" d="M244.07,212.87c-.5,1.74-2.24,2.39-4.7,1.67-2.3-.67-3.59-2.09-3.11-3.76a2.72,2.72,0,0,1,2.52-1.87,1.07,1.07,0,0,1,0-.73,1.25,1.25,0,0,1,.73-.88,2.72,2.72,0,0,1-.89-2.91c.5-1.74,2.28-2.4,4.22-1.83a4.38,4.38,0,0,1,1.62.85,3.06,3.06,0,0,1,.12-.92c.21-.74.74-1.16,1.43-1a.7.7,0,0,1,.58.88.56.56,0,0,1-.75.42c-.41-.11-.31-.39-.44-.43s-.35.27-.41.48a2.32,2.32,0,0,0,0,1,2.68,2.68,0,0,1,.44,2.45c-.5,1.74-2.27,2.4-4.2,1.84a4.87,4.87,0,0,1-1.38-.64.84.84,0,0,0-.4.52c-.1.32,0,.64.57.89.4.19,1.86.75,2.27.92C243.18,210.28,244.59,211.08,244.07,212.87Zm-.89-.11c.36-1.24-.46-1.8-1.54-2.27l-2.12-.87a1.8,1.8,0,0,1-.51-.33,2.39,2.39,0,0,0-2,1.65c-.42,1.44.7,2.56,2.55,3.1S242.76,214.22,243.18,212.76Zm-1.85-5.06a2.42,2.42,0,1,0-1.81-3A2.31,2.31,0,0,0,241.33,207.7Z"/><path class="cls-1" d="M26.09,173.08l-.43.07-.22-1.64-3.33-1-2.92,10,1.1.32-.14.47-2.82-.82.14-.47,1.09.32,2.92-10-2.78-.81c-.76-.22-1.48-.09-1.72.74-.17.58,0,1.12.48,1.26.2.06.31,0,.35-.14s0-.18,0-.33a.49.49,0,0,1,.62-.32.54.54,0,0,1,.37.72c-.11.38-.53.82-1.39.57a1.43,1.43,0,0,1-1-1.89,1.73,1.73,0,0,1,2.37-1.08l7,2Z"/><path class="cls-1" d="M33.75,184.79a1,1,0,0,1-1.12.3,1.07,1.07,0,0,1-.81-1.39l1.12-3.86c.58-2,.24-3.09-1.39-3.56-1.28-.38-2.49-.1-4,1L26,182.55l.94.27-.14.47-2.47-.72.13-.47.94.27,3.06-10.5-.95-.27.14-.47,1.54.44-1.51,5.18c1.65-1.11,2.81-1.3,4.17-.9,1.82.53,2.39,1.8,1.75,4l-1.15,3.93c-.15.52.08.72.4.81a.47.47,0,0,0,.58-.13Z"/><path class="cls-1" d="M42.61,185.81l.3.36a4.64,4.64,0,0,1-4.39.84,4.22,4.22,0,0,1-3.07-5.51,4.27,4.27,0,0,1,5.62-3c2.22.64,3.22,2.29,2.83,4.27l-7.4-2.15a4.48,4.48,0,0,0-.4,1,3.77,3.77,0,0,0,2.69,4.95A3.92,3.92,0,0,0,42.61,185.81Zm-5.83-5.62,6.57,1.91c.18-1.63-.86-2.65-2.43-3.1A3.7,3.7,0,0,0,36.78,180.19Z"/><path class="cls-1" d="M48.39,185.28a4.25,4.25,0,0,1,5.66-2.94c1.62.47,3.13,1.69,2.79,2.85a.58.58,0,0,1-.77.44.56.56,0,0,1-.41-.75c.11-.38.36-.32.42-.52.17-.58-1.31-1.27-2.11-1.5a3.71,3.71,0,0,0-5,2.6,3.63,3.63,0,0,0,2.61,4.77,3.58,3.58,0,0,0,3.74-.76l.24.22a3.86,3.86,0,0,1-4.19,1A4.17,4.17,0,0,1,48.39,185.28Z"/><path class="cls-1" d="M56.51,191.42l.94.27,3-10.5-.94-.27.14-.48,1.53.45-3.19,11,.94.28-.13.47-2.48-.72Z"/><path class="cls-1" d="M68.74,195a1,1,0,0,1-1.13.31,1.07,1.07,0,0,1-.8-1.39l0-.18a3.4,3.4,0,0,1-3.39.5c-1.87-.55-3.14-1.73-2.59-3.6s2.39-2.38,4.71-1.7a5.93,5.93,0,0,1,2.33,1.17l.17-.58c.48-1.66-.18-2.64-2.06-3.18-1-.3-2.51-.41-2.69.2-.07.25.25.19.12.63a.52.52,0,0,1-.69.34.6.6,0,0,1-.4-.79c.16-.53.66-1,1.87-1.11a5.81,5.81,0,0,1,1.94.23c2.26.65,3.06,1.94,2.49,3.88L67.43,194c-.15.52.08.72.39.81a.48.48,0,0,0,.58-.13ZM67.35,192l.44-1.52a6.29,6.29,0,0,0-2.29-1.13c-1.94-.56-3.5-.29-4,1.42s.64,2.47,2.22,2.93S66.8,193.9,67.35,192Z"/><path class="cls-1" d="M69.48,193.86c.15-.52.49-.76,1-.62a.6.6,0,0,1,.46.81c-.14.47-.43.3-.52.62-.18.61.94,1.32,2.12,1.67,1.52.44,2.92.18,3.31-1.18s-.57-1.78-2.72-3c-1.35-.78-2.24-1.57-1.89-2.77s1.83-1.56,3.47-1.09,3,1.47,2.7,2.64a.64.64,0,0,1-.83.53.61.61,0,0,1-.48-.76c.11-.36.41-.27.48-.54.15-.51-1-1.07-2-1.35-1.33-.39-2.45-.29-2.72.67-.33,1.13.94,1.82,2.22,2.52,1.78.95,2.84,1.76,2.4,3.26-.51,1.76-2.19,2.17-4.06,1.62C70.91,196.42,69.06,195.3,69.48,193.86Z"/><path class="cls-1" d="M77.26,196.12c.15-.51.5-.76,1-.62a.6.6,0,0,1,.46.82c-.14.46-.43.3-.52.61-.18.61.94,1.33,2.11,1.67,1.52.44,2.92.18,3.32-1.18s-.57-1.78-2.72-3c-1.35-.79-2.25-1.57-1.9-2.78s1.83-1.56,3.48-1.08,3,1.46,2.7,2.64a.64.64,0,0,1-.83.52.6.6,0,0,1-.48-.75c.1-.36.4-.28.48-.54.15-.52-1-1.08-2-1.36-1.33-.38-2.45-.28-2.73.67-.32,1.13,1,1.82,2.23,2.52,1.78,1,2.84,1.76,2.4,3.26-.51,1.76-2.19,2.17-4.06,1.63C78.7,198.68,76.84,197.56,77.26,196.12Z"/><path class="cls-1" d="M85,199.69l.94.27,2-7-.94-.28.14-.47,1.53.45-2.17,7.49.94.28-.14.47-2.47-.72Zm3.57-9.64a.55.55,0,1,1,1.06.31.53.53,0,0,1-.68.37A.54.54,0,0,1,88.53,190.05Z"/><path class="cls-1" d="M89.67,197.28a4.26,4.26,0,0,1,5.67-2.94c1.61.47,3.13,1.69,2.79,2.85a.58.58,0,0,1-.77.44.56.56,0,0,1-.42-.75c.11-.38.37-.32.43-.52.17-.58-1.32-1.27-2.12-1.5a3.68,3.68,0,0,0-5,2.6,3.93,3.93,0,0,0,6.35,4l.24.22a3.86,3.86,0,0,1-4.19,1A4.17,4.17,0,0,1,89.67,197.28Z"/><path class="cls-1" d="M114.42,208.25l-.13.47-2.46-.72.13-.47,1,.28-.52-4.23L107.08,202l-1.9,2.4c-1,1.28-1.69,1.38-2.65,1.1a1.74,1.74,0,0,1-1.41-2.21,1.45,1.45,0,0,1,1.87-1.07c.86.25,1,.84.87,1.22a.52.52,0,0,1-.68.41.47.47,0,0,1-.37-.6c0-.12.13-.15.17-.29s0-.24-.27-.31c-.5-.15-.93.22-1.1.8-.24.83.3,1.32,1.07,1.55s1.24.16,2.07-.89l6.21-7.79-2.3-.67c-.77-.22-1.49-.09-1.73.74-.17.58,0,1.13.5,1.27.25.07.35,0,.39-.13s0-.18,0-.3a.53.53,0,1,1,1,.37c-.11.38-.53.82-1.42.56a1.43,1.43,0,0,1-1-1.9,1.73,1.73,0,0,1,2.37-1.08l3.31,1L113.56,208Zm-2.09-5.2-.8-6.59-4.11,5.16Z"/><path class="cls-1" d="M130.08,212.78a1,1,0,0,1-1.12.3,1.07,1.07,0,0,1-.81-1.39l1.11-3.82c.57-2,.12-3.13-1.37-3.56a4,4,0,0,0-3.69.88l-1.58,5.44.94.27-.14.47-2.48-.72.14-.47.94.28,1.39-4.78c.45-1.54.17-2.62-1.32-3.06-1-.28-2.21-.25-4,1l-1.51,5.22.94.27-.14.47-2.48-.72.14-.47.94.28,2-7-.94-.27.14-.47,1.53.45-.48,1.67a4.47,4.47,0,0,1,4.07-.9,2.4,2.4,0,0,1,1.88,2.52,4.17,4.17,0,0,1,3.92-.84c1.71.5,2.36,1.81,1.72,4l-1.14,3.93c-.15.52.08.72.39.81a.5.5,0,0,0,.59-.14Z"/><path class="cls-1" d="M138.94,213.81l.3.36a4.64,4.64,0,0,1-4.39.83,4.2,4.2,0,0,1-3.07-5.5,4.28,4.28,0,0,1,5.61-3c2.23.65,3.23,2.3,2.84,4.28l-7.4-2.15a4,4,0,0,0-.4,1,3.76,3.76,0,0,0,2.69,4.95A4,4,0,0,0,138.94,213.81Zm-5.83-5.62,6.57,1.91c.18-1.63-.87-2.65-2.43-3.11A3.72,3.72,0,0,0,133.11,208.19Z"/><path class="cls-1" d="M147.43,210.3a.61.61,0,0,1-.79.5.52.52,0,0,1-.39-.64c.06-.21.17-.23.2-.34s0-.17-.21-.21c-.85-.25-2,.24-3.24,1.61l-1.43,4.92,1.1.32-.14.47-2.63-.77.14-.47.94.28,2-7-.94-.27.13-.47,1.54.45-.54,1.85c1.41-1.41,2.54-1.54,3.31-1.32S147.53,210,147.43,210.3Z"/><path class="cls-1" d="M146.16,217.47l.94.28,2-7-.94-.27.14-.47,1.53.45-2.17,7.49.94.27-.14.47-2.48-.72Zm3.57-9.64a.55.55,0,1,1,.37.69A.55.55,0,0,1,149.73,207.83Z"/><path class="cls-1" d="M150.87,215.07c.74-2.56,3-3.72,5.67-2.95,1.61.47,3.13,1.7,2.79,2.86a.58.58,0,0,1-.78.43.55.55,0,0,1-.41-.74c.11-.38.37-.32.43-.53.17-.58-1.32-1.26-2.12-1.5a3.7,3.7,0,0,0-4.95,2.61,3.92,3.92,0,0,0,6.35,4l.24.23a3.86,3.86,0,0,1-4.19,1A4.16,4.16,0,0,1,150.87,215.07Z"/><path class="cls-1" d="M167.56,223.67a1,1,0,0,1-1.13.31,1.07,1.07,0,0,1-.8-1.39l.05-.18a3.4,3.4,0,0,1-3.39.5c-1.87-.55-3.14-1.73-2.59-3.6s2.39-2.38,4.71-1.7a5.93,5.93,0,0,1,2.33,1.17l.16-.58c.49-1.66-.17-2.64-2.05-3.18-1-.3-2.51-.41-2.69.2-.07.25.25.19.12.63a.52.52,0,0,1-.69.34.6.6,0,0,1-.4-.79c.16-.53.66-1,1.87-1.11a5.84,5.84,0,0,1,1.94.23c2.26.65,3.05,1.94,2.49,3.88l-1.24,4.28c-.15.52.08.72.39.81a.48.48,0,0,0,.58-.13Zm-1.39-2.93.44-1.52a6.29,6.29,0,0,0-2.29-1.13c-1.95-.56-3.51-.29-4,1.42s.64,2.47,2.22,2.93S165.62,222.62,166.17,220.74Z"/><path class="cls-1" d="M177.5,226.56a1,1,0,0,1-1.12.31,1.07,1.07,0,0,1-.8-1.39l1.11-3.83c.57-2,.23-3.09-1.39-3.56-1.29-.38-2.49-.1-4,1l-1.52,5.22.94.27-.13.47-2.48-.72.14-.47.94.27,2-7-.94-.27.13-.47,1.54.44-.49,1.7a4.5,4.5,0,0,1,4.17-.9c1.81.53,2.38,1.8,1.74,4l-1.14,3.93c-.15.52.07.72.39.81a.46.46,0,0,0,.58-.13Z"/><path class="cls-1" d="M181.79,227.83l.94.27,3.05-10.5-.94-.27.14-.47,1.53.44-3.18,11,.94.28-.14.47-2.48-.72Z"/><path class="cls-1" d="M193.67,229.71l.3.37a4.66,4.66,0,0,1-4.39.83,4.22,4.22,0,0,1-3.08-5.5,4.28,4.28,0,0,1,5.62-3c2.23.65,3.23,2.3,2.84,4.27l-7.4-2.15a4,4,0,0,0-.4,1,3.76,3.76,0,0,0,2.69,4.95A3.93,3.93,0,0,0,193.67,229.71Zm-5.83-5.62L194.4,226c.19-1.63-.86-2.64-2.43-3.1A3.7,3.7,0,0,0,187.84,224.09Z"/><path class="cls-1" d="M198.12,232.62a1.29,1.29,0,0,1-1.36.34,1.44,1.44,0,0,1-1-2l1.79-6.18-.86-.25.14-.47.86.25.3-1c.23,0,.32,0,.54-.78l.31.09-.56,1.91,2,.59-.14.47-2-.59-1.82,6.26a.93.93,0,0,0,.71,1.28.87.87,0,0,0,.85-.17Z"/><path class="cls-1" d="M202.08,233.78a1.29,1.29,0,0,1-1.35.33,1.44,1.44,0,0,1-1-2l1.79-6.18-.86-.25.14-.47.86.25.31-1.05c.23,0,.31,0,.53-.78l.31.09-.55,1.91,2,.59-.13.47-2-.59-1.82,6.26a.93.93,0,0,0,.72,1.28.85.85,0,0,0,.84-.16Z"/><path class="cls-1" d="M210.9,234.72l.3.36a4.64,4.64,0,0,1-4.39.84,4.21,4.21,0,0,1-3.07-5.5,4.26,4.26,0,0,1,5.61-3c2.23.64,3.23,2.29,2.84,4.27l-7.4-2.15a4.48,4.48,0,0,0-.4,1,3.77,3.77,0,0,0,2.7,4.95A3.9,3.9,0,0,0,210.9,234.72Zm-5.83-5.62,6.57,1.91c.18-1.63-.86-2.65-2.43-3.1A3.71,3.71,0,0,0,205.07,229.1Z"/><path class="cls-1" d="M219.4,231.21a.62.62,0,0,1-.79.5.51.51,0,0,1-.4-.64c.06-.2.17-.22.2-.33s0-.17-.21-.22c-.84-.24-2,.25-3.24,1.61l-1.43,4.92,1.1.32-.14.47-2.63-.76.14-.47.94.27,2-7-.94-.28.13-.47,1.54.45-.54,1.85c1.42-1.41,2.54-1.54,3.31-1.32C219.4,230.36,219.5,230.86,219.4,231.21Z"/><path class="cls-1" d="M218.12,238.39l.94.27,2.05-7-1-.28.14-.46,1.54.44-2.18,7.49.94.28-.14.47-2.47-.72Zm3.57-9.64a.56.56,0,1,1,.38.69A.56.56,0,0,1,221.69,228.75Z"/><path class="cls-1" d="M231.09,242.14a1,1,0,0,1-1.12.3,1.07,1.07,0,0,1-.81-1.39l1.11-3.82c.58-2,.24-3.1-1.39-3.57-1.29-.37-2.49-.09-4,1l-1.51,5.22.94.27-.14.47-2.48-.72.14-.47.94.28,2-7-.94-.27L224,232l1.53.45L225,234.1a4.57,4.57,0,0,1,4.17-.9c1.82.53,2.39,1.8,1.74,4l-1.14,3.94c-.15.51.08.72.39.81a.5.5,0,0,0,.59-.14Z"/><path class="cls-1" d="M238.52,245.88c-.51,1.74-2.22,2.36-4.53,1.69s-3.5-2.1-3-3.8a2.84,2.84,0,0,1,2.58-2,1.11,1.11,0,0,1,0-.65,1.2,1.2,0,0,1,.62-.79,2.72,2.72,0,0,1-.88-2.92c.49-1.71,2.23-2.41,4.09-1.87a3.83,3.83,0,0,1,1.57.85,2.94,2.94,0,0,1,.12-.89c.21-.68.71-1.13,1.4-.93a.62.62,0,0,1,.51.79.51.51,0,0,1-.67.4c-.38-.11-.3-.39-.41-.42s-.35.3-.42.52a2.16,2.16,0,0,0,0,1.08,2.74,2.74,0,0,1,.36,2.37c-.5,1.71-2.23,2.41-4.08,1.87a4.42,4.42,0,0,1-1.26-.58.75.75,0,0,0-.42.5c-.09.33,0,.66.49.89.32.15,1.74.7,2.19.89C237.6,243.3,239,244.06,238.52,245.88Zm-.6-.19c.38-1.3-.49-1.86-1.58-2.33l-2.14-.89a1.37,1.37,0,0,1-.42-.3,2.57,2.57,0,0,0-2.22,1.74c-.43,1.45.71,2.62,2.55,3.15S237.48,247.22,237.92,245.69Zm-2-5a2.43,2.43,0,1,0,1.35-4.64c-1.49-.43-2.85,0-3.3,1.56S234.41,240.3,235.9,240.73Z"/><circle class="cls-1" cx="3.52" cy="3.52" r="3.52"/><circle class="cls-1" cx="3.52" cy="35.96" r="3.52"/><circle class="cls-1" cx="3.59" cy="69.14" r="3.52"/><circle class="cls-1" cx="3.52" cy="102.92" r="3.52"/><circle class="cls-1" cx="3.52" cy="136.68" r="3.52"/><circle class="cls-1" cx="3.59" cy="171.56" r="3.52"/></g></g></svg>